<svg id="Camada_1" data-name="Camada 1" xmlns="http://www.w3.org/2000/svg" viewBox="0 0 300 300"><defs><style>.cls-1{fill:#0063bf;}.cls-2{fill:#c9b2fe;}.cls-3{fill:#f6fafe;}</style></defs><title>icone</title><rect class="cls-1" x="1.03" y="0.56" width="299.44" height="299.44" rx="56.5"/><path class="cls-2" d="M146.63,110.26l4.12,7.44,4.12-7.44a32,32,0,0,1,27.32-16.48,34.25,34.25,0,0,1,32.6,35.5v.18c0,11.47-6.11,24.07-15.62,36.57s-21.75,24.07-33.11,33.6h0a23.78,23.78,0,0,1-30.61,0h0c-11.37-9.53-23.68-21.21-33.11-33.6s-15.62-25.1-15.62-36.57v-.18a34.25,34.25,0,0,1,32.59-35.5,31.93,31.93,0,0,1,27.32,16.48Zm18.13,87.82,1.67-1.42v0c14.13-12,25.43-23.9,33.32-35,8.08-11.34,12.95-22.35,13-32.08a32.21,32.21,0,0,0-30.19-33.76l-.29,0-.29,0a32.2,32.2,0,0,0-30.2,33.7,1,1,0,0,1-.3.65,1,1,0,0,1-1.44,0,1,1,0,0,1-.29-.65,32.22,32.22,0,0,0-30.2-33.7l-.29,0-.29,0a32.2,32.2,0,0,0-30.2,33.76c0,9.73,4.92,20.74,13,32.08,8.19,11.51,20.08,23.89,35,36.41a21.75,21.75,0,0,0,28,0Z"/><path class="cls-3" d="M150.75,209.92a28.55,28.55,0,0,1-17.88-6.31h0l-.43-.36C118.33,191.42,107,179.86,98.6,168.88,87.59,154.43,82,141.16,82,129.46a39,39,0,0,1,37.08-40.38h.32A36.61,36.61,0,0,1,150.75,108h0a36.64,36.64,0,0,1,31.35-18.9h.32a38.95,38.95,0,0,1,37.07,40.38c0,11.7-5.57,25-16.58,39.42-8.36,11-19.74,22.54-33.83,34.36l-.44.37A28.57,28.57,0,0,1,150.75,209.92Zm-31.5-109.39a27.49,27.49,0,0,0-25.78,28.82v.21c0,8.26,4.11,18.14,12.12,29.38s19.55,23.24,34.19,35.53a17,17,0,0,0,21.94,0l1.66-1.42c13.87-11.8,24.81-23.27,32.54-34.11,8-11.24,12.08-21.12,12.12-29.37v-.22a27.49,27.49,0,0,0-25.78-28.82h0a27.5,27.5,0,0,0-25.79,28.77l0,.28,0,.27a5.75,5.75,0,0,1-1.68,3.68,5.89,5.89,0,0,1-8.09,0,5.68,5.68,0,0,1-1.66-3.66l0-.27v-.28a27.48,27.48,0,0,0-25.78-28.77Z"/></svg>