<svg id="Camada_1" data-name="Camada 1" xmlns="http://www.w3.org/2000/svg" xmlns:xlink="http://www.w3.org/1999/xlink" viewBox="0 0 1275 300"><defs><style>.cls-1,.cls-7{fill:none;}.cls-2{fill:#1d7cd4;}.cls-3{fill:#f17e7e;}.cls-4{fill:url(#Gradiente_sem_nome_2);}.cls-5{clip-path:url(#clip-path);}.cls-6{fill:#efad71;}.cls-7{stroke:#f17e7e;stroke-width:4px;}.cls-8{fill:url(#Gradiente_sem_nome_2-2);}.cls-9{font-size:36px;font-family:Roboto-Black, Roboto;font-weight:800;letter-spacing:0.12em;}.cls-11,.cls-18,.cls-9{fill:#fff;}.cls-10{letter-spacing:0.11em;}.cls-11{font-size:14.57px;font-family:Lato-Light, Lato;font-weight:300;letter-spacing:0.12em;}.cls-12{fill:#f9b170;}.cls-13{fill:#c97e67;}.cls-14{fill:#b2604d;}.cls-15{fill:#33353b;}.cls-16{fill:#44474f;}.cls-17{fill:#f9698c;}.cls-19{opacity:0.5;}.cls-20{fill:#fff2e2;}.cls-21{fill:#f4925d;}.cls-22{opacity:0.8;}.cls-23{opacity:0.6;}.cls-24{opacity:0.7;}.cls-25{opacity:0.4;}.cls-26{opacity:0.3;}</style><linearGradient id="Gradiente_sem_nome_2" x1="1120.32" y1="-799.39" x2="1259.62" y2="-805.15" gradientTransform="matrix(1, 0, 0, -1, 0, -532)" gradientUnits="userSpaceOnUse"><stop offset="0.2" stop-color="#ffa32d"/><stop offset="0.74" stop-color="#ffb12d"/></linearGradient><clipPath id="clip-path"><rect id="SVGID" class="cls-1" x="246.2" y="-56.16" width="106.44" height="164.03" transform="translate(69.42 219.3) rotate(-45)"/></clipPath><linearGradient id="Gradiente_sem_nome_2-2" x1="-33.62" y1="-866.79" x2="178.57" y2="-746.66" gradientTransform="matrix(0.93, -0.37, -0.37, -0.93, -79.3, -404.03)" xlink:href="#Gradiente_sem_nome_2"/></defs><title>03</title><rect class="cls-2" x="-17.48" y="0.2" width="1303" height="313.8"/><rect class="cls-1" x="337.52" y="1.2" width="600" height="300"/><circle class="cls-3" cx="1156.6" cy="18.74" r="59.33"/><path class="cls-3" d="M95.25,176.28a20.51,20.51,0,0,0-7.26,7c-4,6.42-5.25,14.54-4.18,22a32.93,32.93,0,0,0,19,25.29c5.63,2.59,11.87,3.52,17.78,5.39s11.86,5,14.9,10.41c3.39,6.07,2.47,13.77,5.42,20.06C144,273,150.8,277,157.59,279.46c12.24,4.52,26.67,5.31,37.72-1.63,8.87-5.59,14.4-15.46,16.77-25.7,2-8.61,2-17.83-1.06-26.14-3.48-9.57-10.69-17.42-19-23.26-15.15-10.62-32.74-15.43-50.15-20.83-3.29-1-6.55-2.11-9.82-3.23A132.83,132.83,0,0,0,117,174C109.75,172.41,101.88,172.47,95.25,176.28Z"/><path class="cls-4" d="M1125,304.6a20.61,20.61,0,0,1-4.71-8.93c-1.78-7.36-.43-15.48,2.9-22.2a32.31,32.31,0,0,1,1.94-3.39,33.65,33.65,0,0,1,24-14.66c6.16-.68,12.38.39,18.59.48s12.83-1,17.4-5.2c5.13-4.7,6.65-12.3,11.43-17.35,5-5.29,12.7-6.93,20-7.19,13-.44,27,3.36,35.34,13.44,6.68,8.1,8.85,19.24,7.9,29.71-.8,8.82-3.71,17.57-9.17,24.51-6.29,8-15.61,13.19-25.33,16.12-17.71,5.34-36,4.35-54.17,4-3.44-.06-6.89-.08-10.33,0a131.69,131.69,0,0,1-15.77-.28C1137.53,312.84,1130.06,310.31,1125,304.6Z"/><g class="cls-5"><path class="cls-6" d="M277.29-57.72a24.2,24.2,0,0,0-11.47,3C258-50.4,252.1-42.77,249-34.55a35.86,35.86,0,0,0-1.38,4.38,39.57,39.57,0,0,0,6.47,32.44c4.34,5.88,10.2,10.41,15.22,15.71s9.36,11.92,9.37,19.22c0,8.16-5.32,15.53-5.89,23.69-.59,8.52,4.13,16.5,9.69,23,10,11.65,24.41,20.72,39.76,19.92,12.32-.65,23.66-7.62,32-16.78,7-7.7,12.21-17.18,13.85-27.42,1.9-11.82-1-24-6.24-34.75-9.52-19.58-24.89-34.59-39.7-50.09q-4.2-4.39-8.24-8.93A153.25,153.25,0,0,0,301-47.61C294.42-53.4,286.29-57.85,277.29-57.72Z"/></g><path class="cls-6" d="M671.57-10.51c-2.83-3.52-2.66-5.1.84-7.91l8.74-7c3.5-2.81,5.08-2.64,7.91.87l13.69,17c11.4,14.19,9.5,32.1-6.09,44.64s-33.49,10.56-44.91-3.63l-13.69-17c-2.82-3.51-2.66-5.1.84-7.91L652-2c3.5-2.81,5.08-2.64,7.91.88L674.2,16.61a7.29,7.29,0,0,0,10.53,1.16,7.28,7.28,0,0,0,1.13-10.53L671.58-10.52Z"/><path class="cls-7" d="M964.31,252.78c7.08-6.82,15.45-10,23.88-9.62s17.18,4.44,24.95,12.5,11.4,16.85,11.52,25.33-3.36,16.75-10.43,23.57l-3.84,3.7c-1.85,1.78-2.68,2.06-3.14,2.05s-1.32-.36-3.14-2.25l-9-9.37c-1.82-1.89-2.14-2.75-2.14-3.22s.32-1.28,2.17-3.07l4.6-4.43A10.67,10.67,0,0,0,984.9,272.6c-11.13,10.73-11.51,24.46-11.9,38.3v.32c-.42,15.43-1.57,32.2-15.22,47.51a2.71,2.71,0,0,1-4-.05l-15.65-16.22a3.66,3.66,0,0,1,0-4.72c7.69-10.05,8-22.19,8.36-34.36v-.31C947,286.42,947.49,269,964.31,252.78Z"/><path class="cls-8" d="M321.41,303.86a49.94,49.94,0,0,1-8.53,10.46c-5.94,5.47-13.27,9.26-20.9,11.93-13.36,4.68-27.55,6.13-41.18,9.76l-.72.19A210.65,210.65,0,0,0,224,344.74c-16,6.66-32.61,18.59-33.21,37.56-.3,9.18,3.92,17.61,12.07,22.14,6.16,3.41,13.34,4.47,20.36,4.85,12.05.67,24.47-.51,35.7-5.14,12.45-5.13,21.95-15,29.83-25.63,6.55-8.86,12.27-18.3,19-27.06,18.72-24.5,45-42.66,62.37-68.15,6.68-9.82,12-21,12.44-32.86.28-8.2-2.41-17.21-9.39-21.53a18.93,18.93,0,0,0-13.69-2.14c-9.29,1.91-16.45,9.69-20.37,18.32-7.14,15.77-6.51,33.68-13.06,49.64A61.85,61.85,0,0,1,321.41,303.86Z"/><text class="cls-9" transform="translate(401.64 87.42)">Começe a <tspan x="0" y="43.2">ar</tspan><tspan class="cls-10" x="41.39" y="43.2">r</tspan><tspan x="59.01" y="43.2">ecadar </tspan><tspan x="0" y="86.4">hoje</tspan></text><text class="cls-11" transform="translate(401.76 248.69)">Cadastre sua instituiçaõ aqui</text><ellipse class="cls-12" cx="782.13" cy="249.28" rx="120.26" ry="13.72"/><path class="cls-13" d="M853.41,163.77c-3.27-.79-6.51-3.2-9.53-6.5a32,32,0,0,1-3.69-4.92l2.7-1.64,1.85-1.88c1.17,2,6.11,7.17,10.43,8.4,3.26.93,7.79-.06,9.3-.34l4.37,5.06C865.43,164.78,857.65,164.8,853.41,163.77Z"/><path class="cls-13" d="M842.1,153.54s-5.87,0-7.3-1.41-2.13-4.3-1.16-3.51a7.62,7.62,0,0,1,1.61,2.06s-1.43-2.93-.85-3.16c.84-.33,2.19,2.32,2.19,2.32s-1.83-3.64-.93-3.63,2.26,2.72,2.26,2.72-1.68-3.36-.64-3.32,1.77,2.72,2.64,2.46,3.69-.23,4.44.67Z"/><path class="cls-13" d="M845,149.2c-.5-1-3.37-3.59-4.22-3.59s2,5.29,2,5.29Z"/><path class="cls-14" d="M841.51,149.33l-.14-.05a1.72,1.72,0,0,0-.21-1.37l.12-.08A1.89,1.89,0,0,1,841.51,149.33Z"/><path class="cls-14" d="M836.29,151.12c-.84,0-1.09-.38-1.1-.4l.12-.07-.06,0,.06,0s.32.46,1.48.29l0,.14A3.49,3.49,0,0,1,836.29,151.12Z"/><path class="cls-14" d="M837.63,150a1.55,1.55,0,0,1-1.54-.9l.13-.05s.42,1.11,2.07.73l0,.14A3,3,0,0,1,837.63,150Z"/><path class="cls-14" d="M838.7,149.09a1.38,1.38,0,0,1-.8-.22.85.85,0,0,1-.32-.49l.15,0a.59.59,0,0,0,.26.39,1.66,1.66,0,0,0,1.28.13l0,.14A2.55,2.55,0,0,1,838.7,149.09Z"/><path class="cls-15" d="M859.74,161.76l-.16-.07a14.37,14.37,0,0,1,2.46-3.4l.13.13A14.13,14.13,0,0,0,859.74,161.76Z"/><path class="cls-15" d="M864.29,242.82s-.1,2-1.49,2.55-5.35.94-3.91,2.28c.83.77,4.85.4,6,.43s2.17.55,3-.19.13-5,.13-5a4.61,4.61,0,0,1-1.87.44A3.62,3.62,0,0,1,864.29,242.82Z"/><path class="cls-16" d="M854.33,191.21c.25,4.28.75,10,1.73,17,1.76,12.68,3.9,25.48,5,31.61a4.76,4.76,0,0,0,4.34,4l1.17.08a4,4,0,0,0,4.2-4.22l-1.83-41.35-.16-5.84S854,184.8,854.33,191.21Z"/><path class="cls-15" d="M877.24,243.17s-.1,2-1.49,2.55-5.35.94-3.91,2.28c.83.77,4.84.4,6,.43s2.18.55,3-.19.14-5,.14-5a4.61,4.61,0,0,1-1.87.44A3.62,3.62,0,0,1,877.24,243.17Z"/><path class="cls-16" d="M867.09,181.88s-.52,9.11,1.92,26.68c1.76,12.68,3.9,25.47,5,31.61a4.75,4.75,0,0,0,4.34,4l1.17.08a4,4,0,0,0,4.2-4.22l-1.84-41.35-.36-13.6Z"/><path class="cls-15" d="M882.66,193c-.17,1.09-6.83.62-14.95-.74s-14.48-3.38-14.3-4.47,6.82-.83,14.94.53S882.84,192,882.66,193Z"/><path class="cls-17" d="M884.87,161.9s-.67-5.91-11.3-7.42c-15.33-2.17-15.83,12.12-20.16,33.35,0,0,15.4-.08,29.3,4.94C882.71,192.77,887,171.08,884.87,161.9Z"/><path class="cls-17" d="M889.41,164.19l-8,.32s-16.35,1.82-20.3.6-3.88-7.93-3.88-7.93a30.16,30.16,0,0,1,12.56-3c.7,0,1.43,0,2.17,0a25.31,25.31,0,0,1,3.69.58C890.08,158.08,889.41,164.19,889.41,164.19Z"/><path class="cls-13" d="M875.21,153.37l-.45-2.7-.13-.79-.77-4.62-.78,4.39-.47,2.63-.15.84a2.31,2.31,0,0,1-.7,1.49c-.2.18-1.71.83-.54,1.54,1.45.9,4.4.19,5.69-1C876.9,155.13,875.36,154.24,875.21,153.37Z"/><path class="cls-16" d="M854.15,188.64s8.66-.22,27.55,4.89l0,2.06-27.09.22Z"/><ellipse class="cls-15" cx="884.44" cy="163.33" rx="1.87" ry="5.05" transform="translate(574.47 1007.62) rotate(-80.3)"/><path class="cls-15" d="M871.53,142.48a6,6,0,0,0-.75,2.33c-.14,1.38,2.19-1.38,2.19-1.38Z"/><ellipse class="cls-13" cx="874.1" cy="146.83" rx="4.8" ry="3.98" transform="matrix(0.43, -0.9, 0.9, 0.43, 367.87, 874.39)"/><path class="cls-15" d="M878.22,147.26l-1.78-.78a1.37,1.37,0,0,1-.79-.92c-.19-.71-.55-1.16-2.28-1.64-2.19-.62-3.2-2.37-3.07-3.58a1.36,1.36,0,0,1,2.4-.76c.91.9.88-.6,2-.41,2,.36,1.92,2,3.54,2.45,2.12.61,5.37,3.42,2.4,6.54Z"/><path class="cls-15" d="M874,146.58a.07.07,0,0,1,0-.07.08.08,0,0,1,.1-.06.86.86,0,0,1,.72.79.08.08,0,0,1-.07.09.11.11,0,0,1-.09-.07,1.41,1.41,0,0,0-.6-.66Z"/><path class="cls-15" d="M874,147.67a.3.3,0,0,1-.4.15c-.12-.07-.13-.26,0-.43a.27.27,0,1,1,.42.28Z"/><path class="cls-15" d="M871.2,145.44a.05.05,0,0,1,0-.05.11.11,0,0,1,.06-.1.57.57,0,0,1,.76.34.1.1,0,0,1,0,.11s-.06,0-.09,0a.8.8,0,0,0-.62-.28Z"/><path class="cls-15" d="M871.65,146.45c0,.19-.18.32-.32.29s-.22-.2-.18-.38.17-.33.31-.3A.32.32,0,0,1,871.65,146.45Z"/><path class="cls-15" d="M880.61,148.16s-2.15,2.32-4,2c0,0,2.12-1.62-.53-3.87A10.26,10.26,0,0,1,880.61,148.16Z"/><path class="cls-13" d="M877.59,148.85a.78.78,0,1,1,.64-1A.81.81,0,0,1,877.59,148.85Z"/><path class="cls-15" d="M876.07,146.24s-.49,2.37-1.1,2.65-3.75-.52-5-1.53h0a3.17,3.17,0,0,0,1.5,3.81,4.67,4.67,0,0,0,1.47.46h0a3.16,3.16,0,0,0,2.9-.75,9.55,9.55,0,0,0,.41-2.11,2.06,2.06,0,0,1,1-1.41A3,3,0,0,0,876.07,146.24Z"/><path class="cls-15" d="M873.24,139.52a1,1,0,0,1-.28-.05l0-.11a.5.5,0,0,0,.67-.22l.1,0A.6.6,0,0,1,873.24,139.52Z"/><path class="cls-18" d="M873,143.11a7.65,7.65,0,0,1-1-.87,2.18,2.18,0,0,1-.81-1.84c.09-.36.22-.58.42-.66s.72.1,1.07.31l.15.09,0,.05-.15-.09c-.34-.21-.72-.44-1-.31s-.3.28-.39.62a2.25,2.25,0,0,0,.8,1.79,8,8,0,0,0,1,.87Z"/><path class="cls-18" d="M879,142.34a4.48,4.48,0,0,1-2.43-1.2,2.87,2.87,0,0,1-.64-.88l.05,0a4,4,0,0,0,3,2Z"/><path class="cls-13" d="M872.22,149.56a2.18,2.18,0,0,1-1.74-1,.13.13,0,0,1,0-.16.14.14,0,0,1,.17,0,1.82,1.82,0,0,0,2.08.79.13.13,0,0,1,.15.08.12.12,0,0,1-.08.15A2.38,2.38,0,0,1,872.22,149.56Z"/><path class="cls-15" d="M869.4,212.13c0-.07-1-7.52-1.75-10.19s-4.18-4.95-4.22-5l.1-.15s3.53,2.36,4.29,5.07,1.75,10.15,1.76,10.22Z"/><path class="cls-13" d="M864.55,170.62c2.82,1.71,7.61,3.16,9.48,2.42,3.49-1.37,4.39-5.4,5.43-8.54.53-1.61,1.54-2.53,3.81-2.44a8.33,8.33,0,0,1,4.37.9c.9.5.78,1.51.57,2.35a29.94,29.94,0,0,1-1.59,5.41c-2.29,5.28-3.33,7.57-7.36,9.72-4.94,2.64-13.51.7-19.08-4.94C859.59,174.91,863.88,170.22,864.55,170.62Z"/><g class="cls-19"><path class="cls-14" d="M876.65,179.14A1.78,1.78,0,0,1,876,179a1.15,1.15,0,0,1-.66-.6c-.31-.73.28-1.69,1.34-2.17a2.45,2.45,0,0,1,1.82-.15,1.13,1.13,0,0,1,.65.6c.31.73-.27,1.69-1.34,2.17h0A2.71,2.71,0,0,1,876.65,179.14Zm1.16-2.77a2.45,2.45,0,0,0-1,.23c-.84.38-1.37,1.15-1.14,1.67a.75.75,0,0,0,.44.39,2,2,0,0,0,1.51-.14h0c.85-.38,1.37-1.15,1.15-1.67a.78.78,0,0,0-.44-.39A1.51,1.51,0,0,0,877.81,176.37Z"/></g><path class="cls-13" d="M861.05,175.78s-6.47-.75-7.88-2.41-1.85-5-.87-4a8.45,8.45,0,0,1,1.54,2.47s-1.24-3.41-.57-3.59c1-.26,2.14,2.82,2.14,2.82s-1.58-4.24-.6-4.11,2.17,3.26,2.17,3.26-1.45-3.91-.31-3.74,1.64,3.21,2.62,3,4.09.19,4.82,1.27Z"/><path class="cls-14" d="M855,173c-.71-.1-1.2-1.12-1.23-1.16l.15-.07s.48,1,1.1,1.07Z"/><path class="cls-14" d="M856.72,172.46a2.83,2.83,0,0,1-1.43-1.38l.14-.06a2.77,2.77,0,0,0,1.35,1.29Z"/><path class="cls-14" d="M858.22,171.48c-.77,0-1.35-1.24-1.37-1.29l.14-.07s.57,1.16,1.24,1.2Z"/><path class="cls-13" d="M864.91,171c-.12-.06-3.48-4-4.41-4.08s.91,4.31.91,4.31Z"/><path class="cls-20" d="M790.6,206l-3.44,6.39a2,2,0,0,0,.53,2.57l5.65,4.49-7-3.9a1.3,1.3,0,0,0-1.61.29L782,219l1.52-3.75a1.89,1.89,0,0,0-.4-2l-2.63-2.71,3.38,1.84a1.35,1.35,0,0,0,1.67-.32Z"/><path class="cls-15" d="M800.86,70.08s29.94,52.43,34.1,41.84C840,99,802.58,58.71,800.86,70.08Z"/><path class="cls-21" d="M835.4,109.91c.33-3-.84-6.64-2.85-10.49-4.31-8.29-12.49-17.49-17.88-22.81a35.26,35.26,0,0,0-12.74-8.28l.05-.06c.38-.39,20.71-8.34,34.9-14.93a46.4,46.4,0,0,1,32.78-2.42c12,3.57,23.1,7.81,23.17,7.84C909.73,66.08,912.44,82,898,88.89c-28.16,13.44-63.87,24.44-63.87,24.44a4.5,4.5,0,0,0,.42-.65,7.08,7.08,0,0,0,.87-2.71Z"/><path class="cls-13" d="M766.34,87.48s-22.52.37-24,2.5c-2.82,4.11,8.52,4.11,8.52,4.11Z"/><path class="cls-13" d="M801.93,71.36c-7,3.68-12.1,5.86-16.92,8.32-11.89,6.06-32.55,21.55-31.41,33.25s15.78,24.83,20.1,21.48-4.68-19.68-3-23.44,23.39-3.72,24.1-.79S780,125.26,785.1,130.71c0,0,2.86,3.06,11.35-3.9,4.61-3.77,13.91-7.1,21.22-15.1,2.87-3.15,7.15-7.57,8.44-10.15C828.3,97.15,805.76,69.34,801.93,71.36Z"/><path class="cls-13" d="M781.05,81.86S755.34,89.65,748,99s-10.88,17-6.71,19.72S761.57,106,761.57,106Z"/><path class="cls-13" d="M793,75.92c-9.56,3-59.23,23.81-59.83,27.32-1.14,6.78,17.59.26,17.59.26Z"/><path class="cls-17" d="M771.63,132.16s-9.06-8.51-17.93-1.07,2.59,19.21,13.89,22.47,14.44,5,16.36,3.84,23.12-33.5,8.84-44.49C782.55,105,771,114,771.63,132.16Z"/><path class="cls-13" d="M794.81,110.18s-12.77,14-11.66,19.76,12.33-2.39,25.18-10.88S800.47,101.42,794.81,110.18Z"/><path class="cls-14" d="M753.6,113.28a.36.36,0,0,1-.34-.26,13.72,13.72,0,0,1,1.2-9.66c1.71-3,4.7-5.07,8.91-6.19a.35.35,0,1,1,.18.67c-4,1.08-6.87,3-8.48,5.86a13.3,13.3,0,0,0-1.14,9.14.35.35,0,0,1-.24.43Z"/><path class="cls-14" d="M743.38,105.9a.29.29,0,0,1-.18-.05.34.34,0,0,1-.12-.48c.2-.31,4.77-7.69,8.52-9.66a66.15,66.15,0,0,1,10.56-3.83.34.34,0,0,1,.43.24.36.36,0,0,1-.24.43,67.6,67.6,0,0,0-10.42,3.78c-3.59,1.88-8.21,9.33-8.25,9.41A.37.37,0,0,1,743.38,105.9Z"/><path class="cls-18" d="M758.32,143.75l-4.52-7.49a2.48,2.48,0,0,0-3-1l-8.12,3.1,8.37-4.91a1.56,1.56,0,0,0,.69-1.85l-1.6-4.69,3,3.88a2.28,2.28,0,0,0,2.34.83l4.42-1.07-4,2.38a1.63,1.63,0,0,0-.7,1.93Z"/><g class="cls-22"><path class="cls-20" d="M822.8,162.47h0a2.66,2.66,0,0,1-.78-1.86v-6.79a4.48,4.48,0,0,0-4.57-4.48l-68.25,1.36a4.75,4.75,0,0,0-4.63,4.19s1,5.37-.27,6.48c-10.87,9.51-19.83,24.68-19.83,40.26,0,21.1,11.25,36.21,25.4,46.46,0,0,11.91,2.56,31,2.63,22.14.08,35.1-2.63,35.1-2.63,14.16-10.25,25.9-21.26,25.9-44.11C841.85,188.41,833,172.68,822.8,162.47Z"/></g><g class="cls-23"><path class="cls-21" d="M825.19,160.9h0a2.79,2.79,0,0,1-.82-2v-7.18a4.73,4.73,0,0,0-4.8-4.75l-71.65,1.44a5,5,0,0,0-4.86,4.44s1,5.68-.29,6.85C731.36,169.8,722,185.87,722,202.36c0,17.57,7.3,31.22,17.65,41.53a32.32,32.32,0,0,0,19.16,9.21,205.34,205.34,0,0,0,22.39,1.25,239.15,239.15,0,0,0,26.7-1.31,34,34,0,0,0,18.47-8c10.87-9.35,18.87-20.71,18.87-40.19C845.19,188.36,835.9,171.71,825.19,160.9Z"/></g><ellipse class="cls-15" cx="782.91" cy="245.77" rx="27.92" ry="3.12"/><path class="cls-15" d="M761.82,158.33c-6,0-11.78-.16-17-.52l0-.42c28.83,2.06,76.61-2.66,77.09-2.71l0,.42C821.64,155.14,789.34,158.33,761.82,158.33Z"/><path class="cls-15" d="M779.12,160.83c-13.53,0-26.87-.38-34.23-1.63l.07-.41c18.69,3.16,76.25.72,76.83.7l0,.41C821.46,159.92,800.06,160.83,779.12,160.83Z"/><path class="cls-15" d="M744.56,155.1v-.42c.67,0,67.3-.1,77.19-2.43l.1.4C811.91,155,745.23,155.1,744.56,155.1Z"/><g class="cls-24"><path class="cls-17" d="M750.59,222.4s-7-7.43-14.58-1.84,1.08,15.82,10.12,19.09,11.52,4.83,13.15,4,20.68-26.1,9.61-35.83C761,200.84,751.06,207.58,750.59,222.4Z"/><path class="cls-20" d="M766.75,212.52a.39.39,0,0,1-.36-.25,4.44,4.44,0,0,0-4-3.15,7.83,7.83,0,0,0-2.85.25.38.38,0,0,1-.47-.25.39.39,0,0,1,.25-.48c.06,0,5.94-1.78,7.74,3.38a.38.38,0,0,1-.23.48Z"/></g><path class="cls-17" d="M798.64,219.11s1.59-12.76-10-15.64-14.48,13.88-10.32,25.3,4.66,15.1,6.77,16,42.09-1.1,42.57-19.73C828,211.7,813.41,207.55,798.64,219.11Z"/><path class="cls-20" d="M821.7,227a.51.51,0,0,1-.24-.07.49.49,0,0,1-.17-.66,5.58,5.58,0,0,0-.16-6.39,9.92,9.92,0,0,0-2.54-2.56.48.48,0,0,1,.52-.81,11.29,11.29,0,0,1,2.82,2.84,6.57,6.57,0,0,1,.18,7.41A.49.49,0,0,1,821.7,227Z"/><path class="cls-17" d="M763.27,234.65s-6.38-1.06-8.06,4.71,6.66,7.56,12.49,5.71,7.68-2,8.18-3.07.33-21.16-9-21.79C760.15,219.76,757.77,227,763.27,234.65Z"/><path class="cls-20" d="M762.57,224.69a.23.23,0,0,1-.14,0,.24.24,0,0,1-.06-.34s2.31-3.19,5.21-1.29a.24.24,0,0,1-.26.4,2.81,2.81,0,0,0-3.22,0,5.14,5.14,0,0,0-1.34,1.22A.22.22,0,0,1,762.57,224.69Z"/><path class="cls-17" d="M768,188.24s-4-4.68-8.78-1.49.25,9.62,5.65,11.83,6.86,3.22,7.86,2.76,13.19-15.29,6.74-21.47C774.87,175.44,768.7,179.27,768,188.24Z"/><path class="cls-20" d="M778.1,182.66a.22.22,0,0,1-.22-.16,2.68,2.68,0,0,0-2.31-2,4.65,4.65,0,0,0-1.74.07.23.23,0,0,1-.28-.16.22.22,0,0,1,.16-.28s3.64-.93,4.61,2.24a.24.24,0,0,1-.16.28Z"/><path class="cls-17" d="M801.06,180.15s-6.38-1.39-8.37,4.36,6.35,8,12.33,6.38,7.86-1.66,8.42-2.69,1.37-21.36-8-22.46C798.66,165,795.89,172.14,801.06,180.15Z"/><path class="cls-20" d="M800.86,170.06a.27.27,0,0,1-.15-.05.23.23,0,0,1,0-.34s2.49-3.12,5.32-1.06a.24.24,0,1,1-.28.4,2.87,2.87,0,0,0-3.25-.22,5.28,5.28,0,0,0-1.41,1.17A.23.23,0,0,1,800.86,170.06Z"/><path class="cls-17" d="M740,200.76s2-3-.52-5.22-5.42,1.64-5.84,5-.76,4.4-.35,4.9,10.73,5.11,13.24.49C748.3,202.65,745.17,199.74,740,200.76Z"/><path class="cls-20" d="M744.83,205.7a.13.13,0,0,1-.11-.06.14.14,0,0,1,0-.19,1.57,1.57,0,0,0,.78-1.63,2.85,2.85,0,0,0-.31-1,.13.13,0,0,1,.23-.13s1.09,1.92-.56,3Z"/><path class="cls-20" d="M817.73,188.28l2.78,7.71a2.31,2.31,0,0,0,2.56,1.49l8-1.36-8.58,3a1.45,1.45,0,0,0-1,1.57l.6,4.6-2-4.1a2.13,2.13,0,0,0-2-1.2l-4.26.17,4.09-1.45a1.53,1.53,0,0,0,1-1.65Z"/><path class="cls-20" d="M765.34,178l-3.88,7.22a2.33,2.33,0,0,0,.6,2.91l6.38,5.06-8-4.4a1.47,1.47,0,0,0-1.82.33l-3,3.53,1.71-4.24a2.13,2.13,0,0,0-.44-2.28l-3-3.05,3.81,2.07a1.51,1.51,0,0,0,1.89-.36Z"/><path class="cls-20" d="M789.86,167.76l-2.5,4.64a1.5,1.5,0,0,0,.39,1.88l4.1,3.25-5.12-2.83a.93.93,0,0,0-1.16.21l-1.94,2.27,1.1-2.72a1.38,1.38,0,0,0-.29-1.47l-1.91-2,2.45,1.33a1,1,0,0,0,1.22-.23Z"/><path class="cls-20" d="M749.68,165.69l-2.49,4.64a1.49,1.49,0,0,0,.38,1.87l4.1,3.25-5.11-2.83a1,1,0,0,0-1.17.22l-1.94,2.26,1.11-2.72a1.36,1.36,0,0,0-.29-1.46l-1.91-2,2.45,1.33a1,1,0,0,0,1.22-.23Z"/><path class="cls-20" d="M743.7,213.78l-2.5,4.64a1.5,1.5,0,0,0,.39,1.88l4.1,3.25-5.11-2.83a1,1,0,0,0-1.17.21l-1.94,2.27,1.1-2.72a1.38,1.38,0,0,0-.28-1.47l-1.91-2,2.45,1.33a1,1,0,0,0,1.21-.23Z"/><path class="cls-15" d="M786.37,254.63c-11.32,0-22.17-.68-25.88-1a42.41,42.41,0,0,1-12.24-3.2.34.34,0,0,1-.17-.46.34.34,0,0,1,.46-.17,41.87,41.87,0,0,0,12,3.14c6.21.54,32.43,2.07,47.25-.25,14.46-2.25,20.85-10.17,20.92-10.25a.35.35,0,1,1,.54.43,23.36,23.36,0,0,1-5.11,4.4,40.15,40.15,0,0,1-16.25,6.11A149.66,149.66,0,0,1,786.37,254.63Z"/><path class="cls-15" d="M742.1,246.49a.36.36,0,0,1-.2-.06c-6.76-4.91-13-15.87-13.07-16A.36.36,0,0,1,729,230a.37.37,0,0,1,.48.13c.06.11,6.23,11,12.87,15.76a.35.35,0,0,1,.08.49A.37.37,0,0,1,742.1,246.49Z"/><g class="cls-23"><path class="cls-18" d="M710,112.11a9.16,9.16,0,0,0-9.08-4.32c-6.51.62-5.74,5.58-8.84,5.11s-7.44,0-8.37,3.1-5.11,1.4-5.27,4,4.81,4.5,10.54,2.17,8.53,1.81,16.59,1.06,9.06-1.68,13.83-1.21,4.66-2.81,2.49-5S710.91,115.11,710,112.11Z"/></g><g class="cls-25"><path class="cls-18" d="M848.05,126s-3.56-6.18-10.09-5.16-.14,3.79-8.7,5.16-10.43,4.26-6.52,6.58,10.29-4.21,17.25-1S856.26,132,848.05,126Z"/></g><g class="cls-25"><path class="cls-18" d="M880,112.72s-2.4-4.15-6.78-3.47-.1,2.55-5.85,3.47-7,2.86-4.39,4.42,6.92-2.82,11.6-.68S885.47,116.77,880,112.72Z"/></g><g class="cls-25"><path class="cls-18" d="M756.93,66.76s-2.4-4.15-6.78-3.47-.1,2.56-5.85,3.47-7,2.87-4.38,4.43,6.91-2.83,11.59-.69S762.45,70.82,756.93,66.76Z"/></g><path class="cls-15" d="M695.8,148.61s1,2.71-2.45,4.29-2.07,3.3-1.19,4.29c1.51,1.7-4.72,1-6.11,4.28-2.42,5.63,4.81,5.9,8.25,4.5s13.93-5.61,14.33-6.8.59-4.24-1.31-4.16c-3.4.13-.09-3.37-2.48-4S695.8,148.61,695.8,148.61Z"/><path class="cls-13" d="M717.3,165.93c3.27-.78,6.51-3.2,9.53-6.49a31.45,31.45,0,0,0,3.7-4.93l-5.4-3.28,2.7,1.64L726,151c-1.17,2-6.12,7.17-10.44,8.4-3.25.93-7.78-.06-9.3-.34l-4.37,5.06C705.29,166.94,713.06,167,717.3,165.93Z"/><path class="cls-15" d="M701,241.52s0,2.1,1.48,2.69,5.55,1.13,4,2.49c-.88.77-5.05.27-6.23.27s-2.28.51-3.16-.27,0-5.19,0-5.19A4.76,4.76,0,0,0,699,242,3.76,3.76,0,0,0,701,241.52Z"/><path class="cls-15" d="M684.64,241.51s.05,2.11,1.48,2.7,5.55,1.13,4,2.49c-.89.77-5.06.27-6.23.27s-2.29.51-3.16-.27,0-5.19,0-5.19a4.7,4.7,0,0,0,1.93.51A3.68,3.68,0,0,0,684.64,241.51Z"/><path class="cls-17" d="M711.08,193.9c-.36,4-1,9.26-2,15.63-2,12.2-4.43,24.49-5.61,30.39a4.58,4.58,0,0,1-4.29,3.73l-1.13,0a3.85,3.85,0,0,1-4-4.18l2.85-39.88.38-7.15S711.69,187.23,711.08,193.9Z"/><path class="cls-15" d="M685.56,189.82c.13,1.68,5.87,4.32,13.33,3.72s13.36-1.56,13.23-3.24-6.22-3.45-13.68-2.85S685.44,188.14,685.56,189.82Z"/><path class="cls-17" d="M705.71,191.32,687.21,241a5.11,5.11,0,0,1-4.77,3.63l-1,0a3.62,3.62,0,0,1-3.56-4.31l9.64-49.26c.13-.57,2.13-.83,2.7-.88C695,189.83,706,189.21,705.71,191.32Z"/><path class="cls-20" d="M694.54,162.66s3.4-5.3,10.66-3.33c3.42.93,7.67.81,8,7.29a99,99,0,0,1-1,23.68,45.66,45.66,0,0,0-26.56-.48c.05-.63.78-17.06,4.27-25.92C690.84,161.35,693.4,164.34,694.54,162.66Z"/><path class="cls-20" d="M684.52,164.66l8,3.59s18.84,2.09,20.73-1.08.59-7.91.59-7.91-6.47-.37-11.37-.54c-1.12,0-3.21.05-4.31.07C688.09,159,684.52,164.66,684.52,164.66Z"/><path class="cls-15" d="M695.49,219.15l-.26-.06,3.9-16.66a10.11,10.11,0,0,1,4.56-5.64l.13.24a9.79,9.79,0,0,0-4.43,5.47Z"/><path class="cls-15" d="M684.3,165.1c-.16.89,1.27,2.76,4.57,3.24s4.5-.61,4.6-1.85c.08-.94-1.34-2.5-4.46-2.92S684.42,164.46,684.3,165.1Z"/><path class="cls-17" d="M690.55,190.2a59.9,59.9,0,0,1,20,.51.91.91,0,0,1,.72,1l-.35,3.7-10.36-2.58Z"/><path class="cls-13" d="M698.17,158.79c1.36,1.31,3.54,2.3,5.27,1.8a1.35,1.35,0,0,0,1-1.84c-.67.05-1.55-1.68-1.66-2.34l-.15-.81-.07-.4-.23-1.28-.21-1.16-.85-4.72-.78,5-.14.84-.46,2.91a2.6,2.6,0,0,1-1.67,2Z"/><path class="cls-15" d="M700.31,153.85a3.26,3.26,0,0,0,2.21,1.35l-.12-1.5A9.85,9.85,0,0,0,700.31,153.85Z"/><path class="cls-15" d="M695.8,148.61a5.42,5.42,0,0,1,.33,2.39c-.06,2.45,2.79,2.73,3.29,1.91.07-.1-1-3.95-1-3.95l-1-.29Z"/><ellipse class="cls-13" cx="701.63" cy="148.73" rx="4.5" ry="5.55" transform="translate(-15 177.93) rotate(-14.3)"/><path class="cls-15" d="M702.31,144.16c-.08.2,1.31,2.79-3.65,4.75s-3.46-5,.29-6.13c5.4-1.6,7.13,1.87,6.95,3.32S702.31,144.16,702.31,144.16Z"/><path class="cls-15" d="M699,147.89s-1.53,2.74-.23,4.81c0,0-1.55-1-1.7-1.5a18.56,18.56,0,0,1-.29-2.36Z"/><path class="cls-13" d="M698.06,150.5a1.1,1.1,0,0,0,1.57-.28,1.23,1.23,0,0,0-.65-1.54,1.1,1.1,0,0,0-1.57.29A1.23,1.23,0,0,0,698.06,150.5Z"/><path class="cls-15" d="M702.07,148.67s0,0,0-.07a.1.1,0,0,0-.09-.12,1.11,1.11,0,0,0-1.21.62.09.09,0,0,0,0,.13.11.11,0,0,0,.14,0,1.78,1.78,0,0,1,1-.52A.08.08,0,0,0,702.07,148.67Z"/><path class="cls-15" d="M701.56,150c.05.24.24.4.41.36s.27-.26.22-.5-.24-.4-.41-.36A.4.4,0,0,0,701.56,150Z"/><path class="cls-15" d="M705.74,148.29s.06,0,.07,0a.1.1,0,0,0,0-.14,1.11,1.11,0,0,0-1.36.1.11.11,0,0,0,0,.15.11.11,0,0,0,.14,0,1.82,1.82,0,0,1,1.12-.09A.1.1,0,0,0,705.74,148.29Z"/><path class="cls-15" d="M704.78,149.29c0,.24.06.46.24.49s.35-.14.39-.38-.06-.46-.24-.49S704.82,149.05,704.78,149.29Z"/><g class="cls-26"><path class="cls-18" d="M699.56,149.07a2.93,2.93,0,0,0,1.63,3c1,.27,1.81-.62,1.89-2a2.94,2.94,0,0,0-1.63-3C700.48,146.8,699.63,147.69,699.56,149.07Z"/></g><g class="cls-26"><path class="cls-18" d="M704.11,148.75c.08,1.35.85,2.62,1.72,2.84s1.52-.71,1.44-2.07-.85-2.62-1.73-2.83S704,147.4,704.11,148.75Z"/></g><path class="cls-15" d="M699.55,150.05l.06.2a3.07,3.07,0,0,0,1,1.54,2,2,0,0,0,.58.29,1.49,1.49,0,0,0,.59,0l.15,0a1.52,1.52,0,0,0,.48-.23,2.2,2.2,0,0,0,.8-1.24,3.19,3.19,0,0,0,.11-.71,4,4,0,0,0,0-.77l-.06-.31a2.93,2.93,0,0,0-1.43-2l-.26-.1a1.4,1.4,0,0,0-1.22.22,2.42,2.42,0,0,0-.88,1.63l0,.32a1.2,1.2,0,0,0,0,.19,3.26,3.26,0,0,0,0,.54C699.49,149.76,699.52,149.9,699.55,150.05Zm3.19,1.26a1.57,1.57,0,0,1-.4.41,1.12,1.12,0,0,1-.41.2,1.23,1.23,0,0,1-.66,0,1.67,1.67,0,0,1-.6-.32,3,3,0,0,1-1-1.62h0l-.06-.31a2.91,2.91,0,0,1,0-.31,3.53,3.53,0,0,1,0-.46,2.68,2.68,0,0,1,0-.42,1.42,1.42,0,0,1,.05-.22v0a2.37,2.37,0,0,1,.15-.4,1.81,1.81,0,0,1,.58-.74,1.2,1.2,0,0,1,.56-.23,1.26,1.26,0,0,1,.51,0l.2.07a2.76,2.76,0,0,1,1.38,1.95l.06.32a3.17,3.17,0,0,1,0,.69,2.93,2.93,0,0,1-.11.68,2.43,2.43,0,0,1-.33.73Z"/><path class="cls-15" d="M703.72,152.43a1.59,1.59,0,0,1-.92-.3.05.05,0,0,1,.06-.08,1.74,1.74,0,0,0,2-.15.06.06,0,0,1,.07.09A2.2,2.2,0,0,1,703.72,152.43Z"/><path class="cls-15" d="M702.76,152.35a0,0,0,0,1,0,0,.67.67,0,0,1,.16-.48.06.06,0,0,1,.07,0,0,0,0,0,1,0,.07h0a.63.63,0,0,0-.14.4,0,0,0,0,1,0,.06Z"/><path class="cls-15" d="M691.89,156.84a3.06,3.06,0,0,1-1.07-2.34,2.26,2.26,0,0,1,2-2.31,3.53,3.53,0,0,0,3-3.52l.29,0a3.87,3.87,0,0,1-3.22,3.82c-1.15.29-1.75.92-1.79,1.87a3.19,3.19,0,0,0,.85,2.23Z"/><path class="cls-15" d="M704.23,149.52l.06.22c0,.07.05.13.07.2l.06.14v0a1.17,1.17,0,0,1,.05.11h0a4.14,4.14,0,0,1-.26-1.09l-.06,0,0,.22C704.2,149.39,704.21,149.46,704.23,149.52Zm0,0,.06.22c0,.07.05.13.07.2l.06.14v0a1.17,1.17,0,0,1,.05.11h0a4.14,4.14,0,0,1-.26-1.09l-.06,0,0,.22C704.2,149.39,704.21,149.46,704.23,149.52Zm0,0,.06.22c0,.07.05.13.07.2l.06.14v0a1.17,1.17,0,0,1,.05.11h0a4.14,4.14,0,0,1-.26-1.09l-.06,0,0,.22C704.2,149.39,704.21,149.46,704.23,149.52Zm0,0,.06.22c0,.07.05.13.07.2l.06.14v0a1.17,1.17,0,0,1,.05.11h0a4.14,4.14,0,0,1-.26-1.09l-.06,0,0,.22C704.2,149.39,704.21,149.46,704.23,149.52Zm0,0,.06.22c0,.07.05.13.07.2l.06.14v0a1.17,1.17,0,0,1,.05.11h0a4.14,4.14,0,0,1-.26-1.09l-.06,0,0,.22C704.2,149.39,704.21,149.46,704.23,149.52Zm0,0,.06.22c0,.07.05.13.07.2l.06.14v0a1.17,1.17,0,0,1,.05.11h0a4.14,4.14,0,0,1-.26-1.09l-.06,0,0,.22C704.2,149.39,704.21,149.46,704.23,149.52Zm0,0,.06.22c0,.07.05.13.07.2l.06.14v0a1.17,1.17,0,0,1,.05.11h0a4.14,4.14,0,0,1-.26-1.09l-.06,0,0,.22C704.2,149.39,704.21,149.46,704.23,149.52Zm0,0,.06.22c0,.07.05.13.07.2l.06.14v0a1.17,1.17,0,0,1,.05.11h0a4.14,4.14,0,0,1-.26-1.09l-.06,0,0,.22C704.2,149.39,704.21,149.46,704.23,149.52Zm-.08.24a3.43,3.43,0,0,0,.58,1.25h0a1.77,1.77,0,0,0,.9.68l.06,0h0a1,1,0,0,0,.51,0,1.13,1.13,0,0,0,.4-.19,2.58,2.58,0,0,0,.83-2c0-1.45-.68-2.84-1.61-3.11h-.06l-.24,0a.8.8,0,0,0-.31,0,1.41,1.41,0,0,0-.37.18,2.58,2.58,0,0,0-.83,2v.18c0,.1,0,.21,0,.32A5.07,5.07,0,0,0,704.15,149.76Zm.32.45a4.14,4.14,0,0,1-.26-1.09c0-.11,0-.22,0-.34v-.19a3.25,3.25,0,0,1,.22-1.13,1.66,1.66,0,0,1,.52-.72s0,0,0,0a1.2,1.2,0,0,1,.34-.17,1.22,1.22,0,0,1,.33,0l.16,0c.86.24,1.53,1.56,1.49,2.94h0a2.36,2.36,0,0,1-.76,1.83.91.91,0,0,1-.74.18l-.09,0-.08,0h0a1.49,1.49,0,0,1-.56-.4,3.09,3.09,0,0,1-.52-.83S704.48,150.23,704.47,150.21Zm-.24-.69.06.22c0,.07.05.13.07.2l.06.14v0a1.17,1.17,0,0,1,.05.11h0a4.14,4.14,0,0,1-.26-1.09l-.06,0,0,.22C704.2,149.39,704.21,149.46,704.23,149.52Zm0,0,.06.22c0,.07.05.13.07.2l.06.14v0a1.17,1.17,0,0,1,.05.11h0a4.14,4.14,0,0,1-.26-1.09l-.06,0,0,.22C704.2,149.39,704.21,149.46,704.23,149.52Zm0,0,.06.22c0,.07.05.13.07.2l.06.14v0a1.17,1.17,0,0,1,.05.11h0a4.14,4.14,0,0,1-.26-1.09l-.06,0,0,.22C704.2,149.39,704.21,149.46,704.23,149.52Zm0,0,.06.22c0,.07.05.13.07.2l.06.14v0a1.17,1.17,0,0,1,.05.11h0a4.14,4.14,0,0,1-.26-1.09l-.06,0,0,.22C704.2,149.39,704.21,149.46,704.23,149.52Zm0,0,.06.22c0,.07.05.13.07.2l.06.14v0a1.17,1.17,0,0,1,.05.11h0a4.14,4.14,0,0,1-.26-1.09l-.06,0,0,.22C704.2,149.39,704.21,149.46,704.23,149.52Zm0,0,.06.22c0,.07.05.13.07.2l.06.14v0a1.17,1.17,0,0,1,.05.11h0a4.14,4.14,0,0,1-.26-1.09l-.06,0,0,.22C704.2,149.39,704.21,149.46,704.23,149.52Zm0,0,.06.22c0,.07.05.13.07.2l.06.14v0a1.17,1.17,0,0,1,.05.11h0a4.14,4.14,0,0,1-.26-1.09l-.06,0,0,.22C704.2,149.39,704.21,149.46,704.23,149.52Z"/><path class="cls-15" d="M704.32,149.13a.14.14,0,0,0,.11-.09.16.16,0,0,0-.08-.21,1.74,1.74,0,0,0-1.42.13.16.16,0,0,0-.07.22.16.16,0,0,0,.21.07,1.35,1.35,0,0,1,1.15-.12Z"/><path class="cls-13" d="M706.34,174.18c-2.7,1.25-7.13,2.1-8.74,1.26-3-1.57-3.42-5.27-4.05-8.18-.32-1.5-1.14-2.42-3.19-2.55a7.37,7.37,0,0,0-4,.38c-.85.37-.84,1.28-.73,2a25.25,25.25,0,0,0,.91,5c1.54,4.95,2.25,7.11,5.66,9.43,4.18,2.83,12,1.91,17.59-2.61C710.38,178.5,707,173.88,706.34,174.18Z"/><g class="cls-19"><path class="cls-14" d="M694.88,180.66a2.43,2.43,0,0,1-1.21-.35c-.91-.54-1.34-1.45-1-2.08a1,1,0,0,1,.64-.47,2.18,2.18,0,0,1,1.62.3c.9.54,1.34,1.45,1,2.08a1,1,0,0,1-.65.47A1.29,1.29,0,0,1,694.88,180.66Zm-1.15-2.61a1.65,1.65,0,0,0-.32,0,.69.69,0,0,0-.43.31c-.25.45.15,1.18.87,1.61h0a1.85,1.85,0,0,0,1.34.27.67.67,0,0,0,.43-.31c.25-.45-.14-1.18-.86-1.61A2.11,2.11,0,0,0,693.73,178.05Z"/></g><path class="cls-13" d="M709,179.14s5.88-.06,7.3-1.41,2.14-4.3,1.17-3.51a7.38,7.38,0,0,0-1.62,2.06s1.43-2.93.85-3.16c-.84-.33-2.18,2.32-2.18,2.32s1.82-3.64.93-3.63-2.27,2.72-2.27,2.72,1.68-3.37.64-3.32-1.77,2.72-2.63,2.46-3.69-.23-4.45.67Z"/><path class="cls-14" d="M714.68,177.24v-.14c.57,0,1.08-.85,1.09-.86l.12.08S715.33,177.22,714.68,177.24Z"/><path class="cls-14" d="M713.18,176.57l0-.14a2.45,2.45,0,0,0,1.33-1l.12.08A2.54,2.54,0,0,1,713.18,176.57Z"/><path class="cls-14" d="M712,175.55h0v-.14c.6,0,1.22-.95,1.23-1l.12.07S712.64,175.55,712,175.55Z"/><path class="cls-13" d="M706,174.45c.12,0,3.51-3.24,4.35-3.24S709.1,175,709.1,175Z"/><path class="cls-13" d="M728.62,155.7s5.87,0,7.3-1.41,2.13-4.29,1.16-3.51a7.51,7.51,0,0,0-1.62,2.07s1.44-2.94.85-3.17c-.83-.33-2.18,2.32-2.18,2.32s1.82-3.64.93-3.62-2.26,2.71-2.26,2.71,1.68-3.36.64-3.32-1.78,2.72-2.64,2.46-3.69-.23-4.45.67Z"/><path class="cls-13" d="M725.74,151.36c.51-1,3.38-3.59,4.22-3.59s-2,5.29-2,5.29Z"/><path class="cls-14" d="M729.21,151.49a1.82,1.82,0,0,1,.22-1.49l.12.08a1.72,1.72,0,0,0-.21,1.36Z"/><path class="cls-14" d="M734.43,153.28a3.61,3.61,0,0,1-.53-.05l0-.14c1.17.18,1.48-.28,1.48-.28l.12.07S735.26,153.28,734.43,153.28Z"/><path class="cls-14" d="M733.08,152.17a3,3,0,0,1-.69-.08l0-.14c1.65.38,2.06-.72,2.06-.73l.14.05A1.56,1.56,0,0,1,733.08,152.17Z"/><path class="cls-14" d="M732,151.25a3.28,3.28,0,0,1-.59-.06l0-.15a1.64,1.64,0,0,0,1.27-.13.63.63,0,0,0,.27-.39l.14,0a.77.77,0,0,1-.32.49A1.31,1.31,0,0,1,732,151.25Z"/><path class="cls-15" d="M875.36,220.24a.08.08,0,0,1-.07,0l-2.7-3.89a.09.09,0,1,1,.14-.1l2.7,3.89a.08.08,0,0,1,0,.12Z"/><path class="cls-15" d="M877.91,221a.11.11,0,0,1-.08,0l-3.34-4.68a.08.08,0,0,1,0-.12.08.08,0,0,1,.12,0l3.35,4.67a.09.09,0,0,1,0,.13Z"/><path class="cls-15" d="M873.12,219.55a.09.09,0,0,1-.07,0,.08.08,0,0,1,0-.12,40,40,0,0,1,3.58-2.53.09.09,0,0,1,.09.09.09.09,0,0,1-.07.09c-.2.08-2.19,1.53-3.49,2.49Z"/><path class="cls-15" d="M873.12,221.22a.11.11,0,0,1-.07,0,.09.09,0,0,1,0-.13c3.76-3.06,3.89-3,4-2.93a.09.09,0,0,1,0,.13.08.08,0,0,1-.08,0c-.27.1-2.46,1.83-3.79,2.91Z"/><path class="cls-12" d="M716.75,243.41s-5.37-5.53-3.52-8.68,5,6.77,5,6.77-1.62-11.72,1.73-11.93,0,11.93,0,11.93,1.25-2.83,2.46-3,.86,2.4-1.3,4.92Z"/><path class="cls-15" d="M717.13,243.55a25.72,25.72,0,0,1-2.81-3.62c-1.71-2.74-2.12-4.91-1.21-6.46.34-.58.75-.85,1.21-.79.94.1,2,1.54,3.24,4.39.37.85.69,1.7,1,2.41-.29-3.08-.64-9.2,1-11.25a1.83,1.83,0,0,1,1.31-.71,1.37,1.37,0,0,1,1.21.53c1.52,1.86.16,8.52-.59,11.63.55-.91,1.34-1.92,2.15-2a.81.81,0,0,1,.86.4c.49.9-.18,3.2-2.16,5.5l-.29-.26c1.94-2.26,2.47-4.38,2.1-5.05a.39.39,0,0,0-.45-.2c-1,.15-2.25,2.43-2.63,3.29l-.38-.13s.75-2.71,1.24-5.63c.64-3.84.59-6.35-.15-7.27a1,1,0,0,0-.88-.38,1.41,1.41,0,0,0-1,.57c-2.12,2.59-.77,12.63-.75,12.73l-.39.09c-.7-2.23-2.86-8.05-4.45-8.23-.3,0-.57.16-.82.6-2,3.4,3.9,9.54,4,9.6Z"/><path class="cls-12" d="M727.61,257.13s-4-4.08-2.6-6.4,3.66,5,3.66,5-1.19-8.65,1.28-8.8,0,8.8,0,8.8.91-2.09,1.81-2.22.64,1.77-1,3.63Z"/><path class="cls-15" d="M727.89,257.23a17.56,17.56,0,0,1-2.07-2.66c-1.27-2-1.57-3.63-.9-4.77a1,1,0,0,1,.89-.59c.7.08,1.48,1.14,2.39,3.24.27.63.52,1.26.71,1.78-.22-2.27-.48-6.78.76-8.3a1.35,1.35,0,0,1,1-.52,1,1,0,0,1,.89.39c1.12,1.38.11,6.28-.44,8.58.41-.67,1-1.42,1.59-1.51a.58.58,0,0,1,.63.3c.37.66-.13,2.36-1.58,4.06l-.23-.19c1.44-1.67,1.83-3.24,1.56-3.73a.31.31,0,0,0-.34-.15c-.76.11-1.66,1.79-1.94,2.43l-.27-.1s.55-2,.91-4.15c.47-2.83.44-4.68-.11-5.36a.74.74,0,0,0-.65-.28,1,1,0,0,0-.76.42c-1.57,1.91-.57,9.32-.56,9.39l-.28.06c-.52-1.64-2.11-5.93-3.28-6.07-.22,0-.42.12-.61.45-1.47,2.5,2.88,7,2.93,7.08Z"/><path class="cls-12" d="M843.79,244s-4-4.08-2.6-6.4,3.67,5,3.67,5-1.2-8.65,1.27-8.8,0,8.8,0,8.8.92-2.09,1.81-2.22.64,1.77-1,3.63Z"/><path class="cls-15" d="M844.07,244.1a18.08,18.08,0,0,1-2.07-2.67c-1.26-2-1.56-3.62-.89-4.76.25-.43.55-.63.89-.59.69.08,1.47,1.14,2.39,3.24.27.63.51,1.26.7,1.78-.22-2.27-.47-6.78.77-8.3a1.33,1.33,0,0,1,1-.52,1,1,0,0,1,.89.39c1.11,1.37.11,6.28-.44,8.58.41-.68,1-1.42,1.59-1.51a.58.58,0,0,1,.63.3c.36.66-.13,2.36-1.59,4.05l-.22-.19c1.43-1.66,1.82-3.23,1.55-3.72a.28.28,0,0,0-.33-.15c-.77.11-1.66,1.79-1.94,2.43l-.28-.1s.55-2,.92-4.16c.47-2.82.43-4.67-.12-5.35a.71.71,0,0,0-.65-.28,1,1,0,0,0-.75.42c-1.57,1.91-.57,9.31-.56,9.39l-.28.06c-.52-1.64-2.12-5.94-3.28-6.07-.23,0-.42.12-.61.44-1.47,2.51,2.88,7,2.92,7.09Z"/><path class="cls-12" d="M813.3,257.89s-5.21-5.37-3.42-8.42S814.7,256,814.7,256s-1.57-11.37,1.68-11.57,0,11.57,0,11.57,1.21-2.74,2.38-2.91.84,2.32-1.26,4.77Z"/><path class="cls-15" d="M813.67,258a24.69,24.69,0,0,1-2.73-3.51c-1.66-2.66-2.06-4.77-1.17-6.27.33-.56.72-.82,1.17-.77,1.53.17,3.21,4.19,4.07,6.59-.09-1-.18-2.22-.22-3.55-.1-3.76.32-6.24,1.23-7.36a1.78,1.78,0,0,1,1.27-.69,1.35,1.35,0,0,1,1.18.52c1.47,1.81.15,8.26-.58,11.29.54-.89,1.31-1.87,2.09-2a.75.75,0,0,1,.83.38c.48.88-.17,3.11-2.09,5.34l-.29-.25c1.89-2.19,2.4-4.25,2-4.9a.39.39,0,0,0-.44-.19c-1,.14-2.18,2.35-2.55,3.19l-.36-.13s.72-2.62,1.2-5.47c.62-3.71.57-6.15-.15-7a.94.94,0,0,0-.85-.37,1.33,1.33,0,0,0-1,.55c-2.06,2.51-.75,12.26-.73,12.36l-.37.08c-.69-2.16-2.79-7.81-4.32-8-.29,0-.55.16-.8.58-1.94,3.31,3.79,9.26,3.85,9.32Z"/><path class="cls-12" d="M891.18,247.32s-3.5-3.6-2.3-5.65,3.23,4.4,3.23,4.4-1.05-7.62,1.13-7.76,0,7.76,0,7.76.81-1.84,1.6-1.95.56,1.56-.85,3.2Z"/><path class="cls-15" d="M891.42,247.41a16,16,0,0,1-1.82-2.35c-1.12-1.79-1.39-3.2-.79-4.21.22-.38.48-.55.78-.52.62.07,1.31,1,2.11,2.86.24.55.46,1.11.62,1.57-.19-2-.41-6,.68-7.32a1.16,1.16,0,0,1,.85-.46.88.88,0,0,1,.79.34c1,1.21.1,5.54-.39,7.57.37-.59.88-1.25,1.4-1.33a.52.52,0,0,1,.56.26c.32.59-.11,2.09-1.4,3.58l-.19-.16c1.26-1.48,1.6-2.86,1.37-3.29a.26.26,0,0,0-.3-.13c-.67.09-1.46,1.58-1.71,2.14l-.24-.09s.48-1.76.8-3.66c.42-2.5.39-4.13-.1-4.73a.65.65,0,0,0-.57-.25.94.94,0,0,0-.67.37c-1.38,1.69-.5,8.22-.49,8.29l-.25.06c-.46-1.46-1.87-5.24-2.89-5.36-.2,0-.38.1-.54.39-1.3,2.21,2.54,6.21,2.58,6.25Z"/><path class="cls-12" d="M668.24,246s-3.07-3.17-2-5,2.85,3.88,2.85,3.88-.93-6.72,1-6.84,0,6.84,0,6.84.72-1.62,1.41-1.72.5,1.37-.74,2.81Z"/><path class="cls-15" d="M668.46,246.09a14.07,14.07,0,0,1-1.61-2.07c-1-1.57-1.21-2.82-.69-3.7.19-.34.42-.49.69-.46.54.06,1.15.89,1.86,2.52.21.48.4,1,.54,1.38-.17-1.76-.36-5.27.6-6.45a1.06,1.06,0,0,1,.75-.41.78.78,0,0,1,.69.31c.87,1.07.09,4.88-.34,6.66.32-.52.78-1.1,1.24-1.16a.44.44,0,0,1,.49.22c.28.52-.1,1.84-1.23,3.16l-.18-.15c1.12-1.3,1.42-2.51,1.21-2.9a.23.23,0,0,0-.26-.11c-.6.09-1.29,1.39-1.51,1.88l-.21-.07s.43-1.55.71-3.23c.37-2.19.34-3.63-.09-4.16a.58.58,0,0,0-.5-.22.77.77,0,0,0-.59.33c-1.22,1.48-.44,7.24-.44,7.29l-.22.05c-.4-1.27-1.64-4.61-2.54-4.71-.17,0-.33.09-.48.34-1.14,1.95,2.24,5.47,2.28,5.5Z"/><path class="cls-7" d="M136.93,54.25c7.08-6.83,15.44-10,23.88-9.63s17.18,4.45,24.95,12.5S197.16,74,197.28,82.46,193.92,99.2,186.84,106l-3.83,3.7c-1.85,1.78-2.68,2.07-3.14,2.06s-1.33-.37-3.15-2.26l-9-9.36c-1.82-1.89-2.14-2.75-2.13-3.23s.32-1.28,2.17-3.06l4.6-4.44a10.68,10.68,0,0,0-14.82-15.37c-11.13,10.73-11.51,24.47-11.89,38.3v.32c-.43,15.43-1.57,32.2-15.22,47.52a2.73,2.73,0,0,1-4,0l-15.64-16.23a3.64,3.64,0,0,1,0-4.72c7.69-10,8-22.18,8.36-34.36v-.31C119.58,87.89,120.1,70.47,136.93,54.25Z"/><circle class="cls-3" cx="513.3" cy="329.82" r="59.33"/><path class="cls-6" d="M1064.56,88.15a20.52,20.52,0,0,1-4.66,9c-5,5.66-12.48,9.17-19.9,10.26a34.19,34.19,0,0,1-3.9.33,33.69,33.69,0,0,1-25.72-11.4c-4.06-4.69-6.72-10.41-10.18-15.56s-8.13-10-14.19-11.36c-6.77-1.53-13.89,1.54-20.77.49-7.18-1.1-12.92-6.51-17.26-12.32-7.79-10.46-12.61-24.12-9.07-36.7,2.86-10.1,10.78-18.23,19.93-23.41C966.55-6.92,975.4-9.51,984.22-9c10.15.62,19.72,5.33,27.67,11.65,14.47,11.53,24,27.08,34.14,42.25,1.91,2.87,3.85,5.71,5.86,8.51a131.7,131.7,0,0,1,8.74,13.12C1064.18,73.13,1066.36,80.71,1064.56,88.15Z"/></svg>