<svg id="Camada_1" data-name="Camada 1" xmlns="http://www.w3.org/2000/svg" viewBox="0 0 592.65 599.13"><defs><style>.cls-1,.cls-18{fill:#007aff;}.cls-2{fill:#ebebeb;}.cls-3{opacity:0.6;}.cls-4{fill:#263238;}.cls-5{fill:#fff;}.cls-6{fill:#ff725e;}.cls-7{fill:#c27461;}.cls-8{fill:#7d4336;}.cls-9{fill:#455a64;}.cls-10,.cls-16{opacity:0.3;}.cls-11{fill:#ffcfb4;}.cls-12{fill:#ff9d64;}.cls-13{fill:#824e44;}.cls-14{fill:#ffbf9d;}.cls-15{fill:#5b342f;}.cls-17{fill:#ff9a6c;}.cls-18{stroke:#007aff;stroke-miterlimit:10;stroke-width:3px;}.cls-19{fill:#1a1a1a;}</style></defs><title>02</title><path class="cls-1" d="M461.07,412.94c-1.49-3.35-1.82-7.07-2.81-10.59-.52-1.9-1.41-3.91-3.18-4.75-1.18-.55-2.57-.48-3.81-.86-4.49-1.34-5.71-7.6-9.95-9.54a14.45,14.45,0,0,0-4.27-.89c-5.68-.67-11.55-2.63-15.12-7.09-1.18-1.44-2.06-3.14-3.5-4.32s-3.72-1.67-5.13-.48c1.2,2.4,2.37,4.8,3.55,7.17a18.81,18.81,0,0,0,4,6c1.82,1.6,4.5,2.44,6.68,1.44a4.34,4.34,0,0,1,2.26-.79,2.47,2.47,0,0,1,1.46.93c3.09,3.43,2.08,9.11-.94,12.61s-7.45,5.3-11.74,7a9.09,9.09,0,0,1-4.79.93c-3-.55-4.56-3.79-5.42-6.69-1.94-6.42-2.88-13.39-6.86-18.81-1.27-1.7-2.85-3.26-3.62-5.25-.81-2.16-.62-4.67-1.91-6.57s-4.2-3.14-4.39-5.53c-.12-1.68,1.27-3.17,2.8-3.89s3.26-.95,4.85-1.6c.62-.27,1.31-.72,1.34-1.39,0-1-1.39-1.42-1.75-2.35s.69-2,1.15-3.07c1-2.35-1.46-4.72-3.84-5.68s-5.2-1.65-6.3-4a14.12,14.12,0,0,1-.77-3.43c-.55-2.9-2.68-5.71-5.6-6.19s-6.21,2.14-5.73,5.06c.28,1.61,1.48,2.85,2.13,4.34s.48,3.69-1,4.17c-2.52.77-4.94-3.83-7.05-2.25.86,2.95,1.7,5.89,2.56,8.87-3.3,1.67-7.26-1.37-8.67-4.82s-1.47-7.36-3.14-10.67-6.21-5.8-9.09-3.45c-.14,4.27,5.49,6,8,9.44,1.8,2.5,1.54,6.55-1.12,8.13s-6.83-1.18-5.83-4.08c.36-1,1.2-1.84,1.3-2.92.09-1.34-1-2.42-2.06-3.28-1.61-1.37-3.22-2.71-4.82-4.05a9.91,9.91,0,0,0-3.43-2.16c-3.31-1-6.61,1.72-8.36,4.67s-2.74,6.45-5.16,8.92c-3.47,3.59-10.06,3.81-13.32.05s-1.61-10.81,3.21-12.18c1.82-.5,4.12-.45,5.08-2.06,1.68-2.85-3.12-6.5-1.46-9.37,1.27-2.21,4.62-1.2,7.07-1.94s3.79-3.19,5.22-5.3,3.65-4.19,6.14-3.64a7.78,7.78,0,0,1,.26-4.37c.65-1.34,2.47-2.2,3.67-1.34-1.22,2,.24,4.82,2.37,5.83s4.63.76,7,.5,5.3-1.15,5.49-3.5c.07-.77-.22-1.58.07-2.3,1-2.8,6.21,1.05,8.2-1.2,1.15-1.17-.12-3.26-1.73-3.64s-3.24.19-4.87.24-3.61-.79-3.69-2.42,1.73-2.76,1.92-4.34c.31-2.69-4.24-3.38-5.85-1.2s-1,5.18-.55,7.84.74,5.8-1.22,7.67c-.84,1.27-3,.6-3.74-.74s-.57-3-.7-4.49-.79-3.26-2.27-3.66c-1-.29-2.13.21-3.19.36-4.17.5-7.07-4.89-5.75-8.87s5.08-6.57,8.75-8.61c2.68-1.48,6-2.87,8.67-1.36,1.25.69,2.11,1.89,3.33,2.61,2.11,1.25,4.73.79,7.15.84a16.6,16.6,0,0,1,10.42,4.05c1.08,1,2.09,2.61,1.25,3.79s-3.52,1.51-3.07,3a5.2,5.2,0,0,0,6.52-4.2,4.38,4.38,0,0,1,2.52,3.55,7.75,7.75,0,0,1,11.38.94,9.69,9.69,0,0,0,2.11,2.7c1,.63,2.64.31,2.76-.81a2.29,2.29,0,0,0-.19-1.06c-.58-1.63-1.18-3.23-1.75-4.84,2.23-1.2,4.86.67,6.37,2.69,5.61,7.5,9.61,3,17.52,4.22,5.35.81,7.7,4.24,10.72,8.38,9.25,12.76,21.47,23.21,29.88,36.53.89,1.39,1.71,2.81,2.47,4.24-.14-.36-.26-.72-.4-1.07a147.46,147.46,0,0,0-12.23-24.86q-1.55-2.52-3.16-5c-.67-1-1.37-2-2.06-3-.89-1.3-1.82-2.54-2.76-3.79-.74-1-1.49-2-2.25-2.95-.53-.67-1.08-1.34-1.63-2s-1.2-1.51-1.87-2.25l-2-2.33c-.2-.24-.41-.48-.65-.72-.7-.81-1.44-1.6-2.18-2.39a.63.63,0,0,0-.22-.24c-.19-.22-.41-.43-.62-.65-.6-.67-1.25-1.32-1.87-2-1-1.05-2.09-2.1-3.17-3.11-.88-.89-1.79-1.73-2.73-2.57s-1.63-1.48-2.47-2.2-1.63-1.42-2.47-2.11c-1-.86-2-1.7-3.09-2.54h0c-2.9-2.33-5.9-4.53-9-6.59-.77-.53-1.51-1-2.28-1.54s-1.56-1-2.33-1.48-1.55-1-2.35-1.44-1.58-1-2.37-1.41-1.27-.75-1.92-1.08a7.37,7.37,0,0,0-1-.55c-1.36-.77-2.76-1.51-4.15-2.21-.69-.36-1.39-.72-2.1-1.05-.89-.46-1.8-.89-2.71-1.3a2.57,2.57,0,0,0-.41-.19c-.82-.38-1.63-.77-2.47-1.13-1.17-.5-2.35-1-3.52-1.48-1.34-.55-2.69-1.1-4.05-1.61s-3-1.12-4.56-1.63-3.09-1-4.65-1.51-3.11-.91-4.69-1.34q-4.68-1.26-9.47-2.23a1.09,1.09,0,0,1-.17-.05c-1.22-.24-2.44-.48-3.67-.67a1.14,1.14,0,0,0-.24,0c-.52-.09-1.07-.19-1.63-.26-2.27-.38-4.57-.69-6.9-1a7.21,7.21,0,0,0-.84-.09c-.67-.1-1.34-.15-2-.22-1.53-.14-3.06-.26-4.62-.36s-3.24-.19-4.87-.24-3.4-.1-5.1-.1q-6.76,0-13.38.6c-1.05.08-2.08.17-3.11.29s-2.16.24-3.24.39-2.15.28-3.21.45-2.13.34-3.21.53c-.91.14-1.85.31-2.76.5q-3.37.64-6.68,1.44c-1,.24-2.07.5-3.1.79s-2.06.55-3.06.84c-1.71.48-3.36,1-5,1.53h0c-1.34.46-2.71.91-4,1.37a.14.14,0,0,0-.1,0c-1.37.48-2.68,1-4,1.51l-.21.07c-1.22.48-2.45,1-3.65,1.49-1.51.62-3,1.29-4.45,2-1.25.58-2.47,1.15-3.67,1.75s-2.59,1.29-3.86,2l-.14.07c-1.23.64-2.45,1.32-3.65,2s-2.47,1.41-3.69,2.18h0c-1.15.7-2.28,1.39-3.41,2.11-.43.26-.83.55-1.27.84-1.19.77-2.34,1.56-3.52,2.37-1.44,1-2.83,2-4.22,3.05q-1.83,1.36-3.59,2.78A150.11,150.11,0,0,0,211,306c-2,2.26-4,4.56-5.83,6.91-1.58,2-3.11,4.05-4.57,6.16q-2,2.75-3.82,5.6,1.85-2.85,3.82-5.6c.38-.05.76-.1,1.15-.12,2.15-.17,4.43-.1,6.37-1s3.07-2.5,4.7-3.65c4.17-3,11-3.52,12.13-8.51.38-1.67-.07-3.5.55-5.1,1.17-3,5.18-3.43,8.39-3.38,1.36,0,3,.19,3.59,1.39a3.43,3.43,0,0,1-.14,2.78,26.07,26.07,0,0,1-11,13.52c-4.17,2.54-9.61,4.5-10.76,9.25.57,1.6,3.5,1.49,3.74,3.16.16,1.34-1.56,2-2.19,3.24-.91,1.75,1.18,3.88,3.17,3.79s3.64-1.54,5.1-2.88c4.37-4.05,8.94-8.41,10.53-14.17.67-2.37.91-5.15,2.82-6.73a4.68,4.68,0,0,1,7.12,2.28c1.9-1.06,4.84-1.85,5.83.12a9.92,9.92,0,0,1,.4,2.25c.63,3.07,4.82,4.46,5.25,7.55.51,3.57-4.07,5.42-7.64,6-3.24.5-6.47,1-9.71,1.53a9,9,0,0,0-4,1.3,3.14,3.14,0,0,0-1.2,3.76,9.75,9.75,0,0,0,1.68,1.72c2.69,2.69.48,8.22-3.3,8.34-1.3.05-2.57-.43-3.86-.47-3.84-.17-6.88,3.21-8.7,6.59s-3.19,7.24-6.26,9.54c-4.94,3.71-13.45,2.85-15.84,8.55-1,2.3-.46,4.89-.07,7.36s.55,5.18-.89,7.22-5.11,2.44-6.16.19a5.5,5.5,0,0,1-.14-3.19q.85-5.32,1.67-10.64c.41-2.64.77-5.59-.79-7.74-2.18-3-7.07-2.74-9.9-.32s-4,6.21-4.77,9.83c-.57,2.69-1.24,6.47-2.73,9.54h0c-.5,3-.91,6-1.22,9s-.53,6.2-.65,9.37a13.83,13.83,0,0,0,1.22-1.15c1.51-1.56,4.56-8.15,7.29-4.92a2.46,2.46,0,0,1,0,3c-.84,1.08-2.52,1.32-3.17,2.49-.79,1.39.32,3.12,1.61,4s2.88,1.51,3.79,2.83c1.75,2.51.07,6.33,1.77,8.89,1.46,2.2,4.58,2.35,7.24,2.64l.91.14c.74-5.27,3.21-9.56,10.4-11.19,9.92-2.26,23,6,28.55,13.44,6.23,8.37,9.18,20.21,18.72,24.4,6.83,3,16.54,1.92,19.87,8.61,3,6-2.21,12.72-3,19.36-.5,4.39.94,8.75,1.27,13.14s-1,9.54-5,11.38c-2.23,1-5,.89-6.84,2.57-3.18,3-.57,9.25-3.76,12.27-1.12,1.05-2.68,1.44-4,2.13-7.17,3.62-7,14.17-3.64,21.48l.36.76a151.49,151.49,0,0,0,77.68,21.46,150.68,150.68,0,0,0,71.06-17.69h0a154.11,154.11,0,0,0,13.4-8.08,151.45,151.45,0,0,0,30.32-27c2.54-2.93,4.93-6,7.23-9.09,1.18-1.6,2.33-3.21,3.41-4.86a149.55,149.55,0,0,0,18.84-38.76A146.86,146.86,0,0,0,474.2,427c.46-3.4.82-6.85,1.06-10.33a8.7,8.7,0,0,1-6.09,2.71C465.53,419.34,462.53,416.3,461.07,412.94Z" transform="translate(-23.87 -50.87)"/><path class="cls-2" d="M288,294.89c-3,1.79-4.59,5.18-6.91,7.8s-6.47,4.49-9.2,2.31a6.36,6.36,0,0,1-2.05-4.46,11.35,11.35,0,0,1,1.63-6.94c1.3-2.13,3.29-3.8,4.4-6s.88-5.51-1.39-6.56c-1.22-.56-2.76-.34-3.85-1.14-2-1.44-.55-4.84,1.72-5.7s4.78-.19,7.2,0c8.78.56,15.24-5.19,21.84-10,5.13-3.71,16.06-8.1,22-4.31,2.37,1.52,3.3,5.41,1.07,7.12-1,.76-2.38.93-3.31,1.78-1.12,1-1.27,2.69-1.91,4.06-1.66,3.55-6.46,4.84-8,8.45-.93,2.17-.51,4.87-1.94,6.75-1.14,1.48-3.1,2-4.93,2.44l-11.44,2.72A17.29,17.29,0,0,0,288,294.89Z" transform="translate(-23.87 -50.87)"/><path class="cls-2" d="M390.32,481.31c-3.8,5.73-4.49,12.88-5.54,19.67s-2.87,14-8.08,18.47-14.8,4.2-17.67-2c-1.55-3.39-.76-7.38-1.61-11-1.1-4.73-4.87-8.38-6.65-12.9-1.53-3.85-1.53-8.11-1.66-12.25-.67-22.63-6.19-46.25-21.6-62.84-1.9-2-4-4-6.73-4.74a8.61,8.61,0,0,0-8.85,3.05c-1.23,1.64-1.87,3.73-3.39,5.11-3.29,3-9,.85-11.24-3s-1.89-8.63-1.52-13.07q.68-8.26,1.36-16.53c.24-2.89.57-6,2.46-8.17,2.69-3.11,7.51-3.26,10.8-5.72,4.32-3.23,4.89-9.4,7.61-14.05s11.24-6.63,12.5-1.38c9-19.28,28.91,9.36,40.75,7.21,3.44-.63,6.8-2.28,10.26-1.8,6.11.86,9.26,7.59,11.34,13.4l10.35,28.93c1.32,3.67,3,7.75,6.65,9.16,2.79,1.08,6,.26,8.84,1.28,7.43,2.7,5,14.39-1,19.57s-14.37,8.43-17.21,15.81c-2.14,5.55-.44,12.06-2.74,17.56C396.14,474.92,392.68,477.76,390.32,481.31Z" transform="translate(-23.87 -50.87)"/><path class="cls-2" d="M418.52,487.6c-2.44.34-5.33-.86-7.18.76-1.08.95-1.32,2.5-1.75,3.87a8.28,8.28,0,0,1-3.46,4.73,5.21,5.21,0,0,1-5.65-.11,3.81,3.81,0,0,1-.77-5.28,25.57,25.57,0,0,1,2.11-1.73c3.24-3.06,1-8.74,3.48-12.38,1.45-2.14,3.74-4.32,5.34-6.5,1.22-1.67,1.67-3,3.93-3.44C424.44,465.58,428.9,486.14,418.52,487.6Z" transform="translate(-23.87 -50.87)"/><g class="cls-3"><path class="cls-4" d="M239.83,532.47c1.28.86,2.56,1.7,3.87,2.52.91.57,1.82,1.12,2.76,1.67-.94-.55-1.85-1.1-2.76-1.67C242.39,534.17,241.11,533.33,239.83,532.47Z" transform="translate(-23.87 -50.87)"/></g><g class="cls-3"><path class="cls-4" d="M172.85,400.38v0h0v0c0,.29,0,.55,0,.84,0,.9,0,1.82,0,2.73,0-.91,0-1.83,0-2.73C172.8,400.93,172.83,400.67,172.85,400.38Z" transform="translate(-23.87 -50.87)"/></g><path class="cls-2" d="M192.48,446.5c-.48-4.34,1-8.68,1-13.07.05-3-.17-6.2-.21-9.25a41.64,41.64,0,0,1-7.7-1.08,2.24,2.24,0,0,1-1.41-.72,2.72,2.72,0,0,1-.31-1.6c-.19-3.4-3.48-5.66-6.43-7.36a25.3,25.3,0,0,0-4.67-2.3c0,.36,0,.69,0,1.05a151,151,0,0,0,9.64,48.06,145.6,145.6,0,0,0,9.25,19.85c1.49,2.75,3.12,5.46,4.82,8.12,2.11,3.28,4.31,6.5,6.68,9.59,2.21,3,4.56,5.87,7,8.65a150.63,150.63,0,0,0,10.71,11q5,4.66,10.43,8.86c-8.27-22.19-16.06-44.84-30.2-63.73C197.44,457.67,193.18,452.63,192.48,446.5Z" transform="translate(-23.87 -50.87)"/><path class="cls-2" d="M193.56,418.31l-.91-.14c-2.66-.29-5.78-.44-7.24-2.64-1.7-2.56,0-6.38-1.77-8.89-.91-1.32-2.5-1.9-3.79-2.83s-2.4-2.64-1.61-4c.65-1.17,2.33-1.41,3.17-2.49a2.46,2.46,0,0,0,0-3c-2.73-3.23-5.78,3.36-7.29,4.92a13.83,13.83,0,0,1-1.22,1.15v0c0,.29,0,.55,0,.84,0,.9,0,1.82,0,2.73s0,1.82,0,2.74c0,.74,0,.7,0,1.44s0,2.26.07,3a25.3,25.3,0,0,1,4.67,2.3c3,1.7,6.24,3.95,6.43,7.36a2.72,2.72,0,0,0,.31,1.6,2.24,2.24,0,0,0,1.41.72,41.64,41.64,0,0,0,7.7,1.08" transform="translate(-23.87 -50.87)"/><path class="cls-2" d="M193.3,424.18c0,3.05.26,6.23.21,9.25-.07,4.39-1.51,8.73-1,13.07.7,6.13,5,11.17,8.68,16.1,14.14,18.89,21.93,41.54,30.2,63.73h0c1.54,1.23,3.09,2.38,4.68,3.5q1.86,1.35,3.77,2.64c1.28.86,2.56,1.7,3.87,2.52.91.57,1.82,1.12,2.76,1.67l-.36-.76c-3.33-7.31-3.53-17.86,3.64-21.48,1.37-.69,2.93-1.08,4-2.13,3.19-3,.58-9.25,3.76-12.27,1.8-1.68,4.61-1.56,6.84-2.57,4-1.84,5.29-7,5-11.38s-1.77-8.75-1.27-13.14c.79-6.64,6-13.37,3-19.36-3.33-6.69-13-5.61-19.87-8.61-9.54-4.19-12.49-16-18.72-24.4-5.59-7.48-18.63-15.7-28.55-13.44-7.19,1.63-9.66,5.92-10.4,11.19" transform="translate(-23.87 -50.87)"/><path class="cls-2" d="M182.22,362.58c2.83-2.42,7.72-2.7,9.9.32,1.56,2.15,1.2,5.1.79,7.74q-.82,5.31-1.67,10.64a5.5,5.5,0,0,0,.14,3.19c1.05,2.25,4.74,1.82,6.16-.19s1.27-4.77.89-7.22-.89-5.06.07-7.36c2.39-5.7,10.9-4.84,15.84-8.55,3.07-2.3,4.43-6.16,6.26-9.54s4.86-6.76,8.7-6.59c1.29,0,2.56.52,3.86.47,3.78-.12,6-5.65,3.3-8.34a9.75,9.75,0,0,1-1.68-1.72,3.14,3.14,0,0,1,1.2-3.76,9,9,0,0,1,4-1.3c3.24-.53,6.47-1,9.71-1.53,3.57-.55,8.15-2.4,7.64-6-.43-3.09-4.62-4.48-5.25-7.55a9.92,9.92,0,0,0-.4-2.25c-1-2-3.93-1.18-5.83-.12a4.68,4.68,0,0,0-7.12-2.28c-1.91,1.58-2.15,4.36-2.82,6.73-1.59,5.76-6.16,10.12-10.53,14.17-1.46,1.34-3.11,2.78-5.1,2.88s-4.08-2-3.17-3.79c.63-1.2,2.35-1.9,2.19-3.24-.24-1.67-3.17-1.56-3.74-3.16,1.15-4.75,6.59-6.71,10.76-9.25a26.07,26.07,0,0,0,11-13.52,3.43,3.43,0,0,0,.14-2.78c-.62-1.2-2.23-1.39-3.59-1.39-3.21-.05-7.22.38-8.39,3.38-.62,1.6-.17,3.43-.55,5.1-1.13,5-8,5.54-12.13,8.51-1.63,1.15-2.9,2.76-4.7,3.65s-4.22.86-6.37,1c-.39,0-.77.07-1.15.12q-2,2.75-3.82,5.6t-3.54,5.78a150,150,0,0,0-13.14,29.29c-1.17,3.58-2.21,7.23-3.11,10.92s-1.66,7.45-2.28,11.25c1.49-3.07,2.16-6.85,2.73-9.54C178.24,368.79,179.42,365,182.22,362.58Z" transform="translate(-23.87 -50.87)"/><path class="cls-2" d="M475.26,416.66s-3.81,2.78-6.09,2.73c-3.64-.05-6.64-3.09-8.1-6.45s-1.82-7.07-2.81-10.59c-.52-1.9-1.41-3.91-3.18-4.75-1.18-.55-2.57-.48-3.81-.86-4.49-1.34-5.71-7.6-9.95-9.54a14.45,14.45,0,0,0-4.27-.89c-5.68-.67-11.55-2.63-15.12-7.09-1.18-1.44-2.06-3.14-3.5-4.32s-3.72-1.67-5.13-.48c1.2,2.4,2.37,4.8,3.55,7.17a18.81,18.81,0,0,0,4,6c1.82,1.6,4.5,2.44,6.68,1.44a4.34,4.34,0,0,1,2.26-.79,2.47,2.47,0,0,1,1.46.93c3.09,3.43,2.08,9.11-.94,12.61s-7.45,5.3-11.74,7a9.09,9.09,0,0,1-4.79.93c-3-.55-4.56-3.79-5.42-6.69-1.94-6.42-2.88-13.39-6.86-18.81-1.27-1.7-2.85-3.26-3.62-5.25-.81-2.16-.62-4.67-1.91-6.57s-4.2-3.14-4.39-5.53c-.12-1.68,1.27-3.17,2.8-3.89s3.26-.95,4.85-1.6c.62-.27,1.31-.72,1.34-1.39,0-1-1.39-1.42-1.75-2.35s.69-2,1.15-3.07c1-2.35-1.46-4.72-3.84-5.68s-5.2-1.65-6.3-4a14.12,14.12,0,0,1-.77-3.43c-.55-2.9-2.68-5.71-5.6-6.19s-6.21,2.14-5.73,5.06c.28,1.61,1.48,2.85,2.13,4.34s.48,3.69-1,4.17c-2.52.77-4.94-3.83-7.05-2.25.86,2.95,1.7,5.89,2.56,8.87-3.3,1.67-7.26-1.37-8.67-4.82s-1.47-7.36-3.14-10.67-6.21-5.8-9.09-3.45c-.14,4.27,5.49,6,8,9.44,1.8,2.5,1.54,6.55-1.12,8.13s-6.83-1.18-5.83-4.08c.36-1,1.2-1.84,1.3-2.92.09-1.34-1-2.42-2.06-3.28-1.61-1.37-3.22-2.71-4.82-4.05a9.91,9.91,0,0,0-3.43-2.16c-3.31-1-6.61,1.72-8.36,4.67s-2.74,6.45-5.16,8.92c-3.47,3.59-10.06,3.81-13.32.05s-1.61-10.81,3.21-12.18c1.82-.5,4.12-.45,5.08-2.06,1.68-2.85-3.12-6.5-1.46-9.37,1.27-2.21,4.62-1.2,7.07-1.94s3.79-3.19,5.22-5.3,3.65-4.19,6.14-3.64a7.78,7.78,0,0,1,.26-4.37c.65-1.34,2.47-2.2,3.67-1.34-1.22,2,.24,4.82,2.37,5.83s4.63.76,7,.5,5.3-1.15,5.49-3.5c.07-.77-.22-1.58.07-2.3,1-2.8,6.21,1.05,8.2-1.2,1.15-1.17-.12-3.26-1.73-3.64s-3.24.19-4.87.24-3.61-.79-3.69-2.42,1.73-2.76,1.92-4.34c.31-2.69-4.24-3.38-5.85-1.2s-1,5.18-.55,7.84.74,5.8-1.22,7.67c-.84,1.27-3,.6-3.74-.74s-.57-3-.7-4.49-.79-3.26-2.27-3.66c-1-.29-2.13.21-3.19.36-4.17.5-7.07-4.89-5.75-8.87s5.08-6.57,8.75-8.61c2.68-1.48,6-2.87,8.67-1.36,1.25.69,2.11,1.89,3.33,2.61,2.11,1.25,4.73.79,7.15.84a16.6,16.6,0,0,1,10.42,4.05c1.08,1,2.09,2.61,1.25,3.79s-3.52,1.51-3.07,3a5.2,5.2,0,0,0,6.52-4.2,4.38,4.38,0,0,1,2.52,3.55,7.75,7.75,0,0,1,11.38.94,9.69,9.69,0,0,0,2.11,2.7c1,.63,2.64.31,2.76-.81a2.29,2.29,0,0,0-.19-1.06c-.58-1.63-1.18-3.23-1.75-4.84,2.23-1.2,4.86.67,6.37,2.69,5.61,7.5,9.61,3,17.52,4.22,5.35.81,7.7,4.24,10.72,8.38,9.25,12.76,21.47,23.21,29.88,36.53.89,1.39,1.71,2.81,2.47,4.24h0v0c.72,1.92,1.4,3.84,2,5.79s1.24,3.9,1.8,5.88a134.36,134.36,0,0,1,3.63,14.87s1.05,8.56,1.31,11.35c.19,2.14.38,4.27.5,6.42s.18,4.32.19,6.5Z" transform="translate(-23.87 -50.87)"/><path class="cls-1" d="M103.77,380.22c.58-4.23-5.4-7.72-9.89-8.08-2.14-.17-4.37.15-6.4-.55-4.39-1.54-6.15-7.22-10.44-9-3.21-1.35-6.9-.15-10,1.42s-6.18,3.53-9.65,3.76c-3,.19-6.31-.93-8.95.54-2,1.11-3,3.38-4.82,4.72s-4.1,1.58-6.3,1.7-4.49.15-6.5,1.06-3.67,3.05-3.25,5.22Z" transform="translate(-23.87 -50.87)"/><path class="cls-2" d="M193.51,295.25c.58-4.23-5.4-7.72-9.89-8.08-2.14-.17-4.37.15-6.4-.55-4.4-1.54-6.15-7.22-10.45-9-3.2-1.35-6.9-.15-10,1.42s-6.18,3.53-9.66,3.76c-3,.19-6.3-.93-8.95.54-2,1.1-3,3.38-4.82,4.72s-4.09,1.58-6.29,1.7-4.49.15-6.5,1.06-3.67,3-3.25,5.21Z" transform="translate(-23.87 -50.87)"/><path class="cls-1" d="M616.46,360.7c.93-6.8-8.68-12.4-15.9-13-3.44-.27-7,.25-10.28-.88-7.06-2.47-9.89-11.6-16.78-14.51-5.16-2.17-11.09-.23-16.09,2.28s-9.94,5.68-15.52,6c-4.86.31-10.13-1.49-14.38.88-3.17,1.77-4.83,5.42-7.75,7.57s-6.58,2.55-10.12,2.75-7.21.22-10.44,1.7-5.89,4.89-5.22,8.37Z" transform="translate(-23.87 -50.87)"/><path class="cls-2" d="M525.7,295.06a11.56,11.56,0,0,0-1.94-6.68,11.09,11.09,0,0,0-5.16-4.44,9,9,0,0,0-10.49,3,9,9,0,0,0-8.9-5.75,11.11,11.11,0,0,0-6.29,2.6,11.54,11.54,0,0,0-3.93,5.74,14.07,14.07,0,0,0,.35,8.84,19.94,19.94,0,0,0,5.76,7.45c4,3.38,9.31,7.66,9.31,7.66s5.52-2.9,10.38-4.86a19.94,19.94,0,0,0,7.81-5.26A14.1,14.1,0,0,0,525.7,295.06Z" transform="translate(-23.87 -50.87)"/><path class="cls-2" d="M129.43,328.44a9,9,0,0,0-4.13-3.39,8.54,8.54,0,0,0-5.2-.58,7.07,7.07,0,0,0-4.42,3.26,6.94,6.94,0,0,0-.93,3.2,6.87,6.87,0,0,0-8.13.21,8.49,8.49,0,0,0-2.86,4.38,8.92,8.92,0,0,0,0,5.34,10.8,10.8,0,0,0,4.06,5.45,15.27,15.27,0,0,0,6.88,2.22c4,.4,9.22.82,9.22.82s2.24-4.24,4.48-7.59a15.39,15.39,0,0,0,2.66-6.72A10.91,10.91,0,0,0,129.43,328.44Z" transform="translate(-23.87 -50.87)"/><path class="cls-5" d="M339.55,345.76a30,30,0,1,0-9,.3l5.17,7.83Z" transform="translate(-23.87 -50.87)"/><path class="cls-4" d="M339.55,345.76s-.07.2-.22.56l-.71,1.59-2.75,6-.1.22-.13-.2-5.21-7.81.13.08a29.89,29.89,0,0,1-14.3-5.55,28.63,28.63,0,0,1-3.42-2.89,34.3,34.3,0,0,1-3.07-3.56,29.31,29.31,0,0,1-4.56-8.87,30.23,30.23,0,0,1,38.56-37.8,28.26,28.26,0,0,1,8.44,4.44,29.07,29.07,0,0,1,6.4,6.52l.67.89c.2.32.38.64.57.95.37.64.77,1.26,1.1,1.9a30.12,30.12,0,0,1,1.68,4,31.49,31.49,0,0,1,1.13,4c.12.67.21,1.35.31,2l.14,1,.05,1a31.09,31.09,0,0,1-.45,7.65,30.77,30.77,0,0,1-9.23,16.51,30,30,0,0,1-7.6,5.07,28.49,28.49,0,0,1-5.45,1.89c-.65.16-1.13.25-1.46.3a2.7,2.7,0,0,1-.52.07l.49-.13c.33-.07.83-.19,1.46-.36a30.3,30.3,0,0,0,12.83-7.1,29.59,29.59,0,0,0,9.4-23.86l-.05-1-.15-1c-.1-.65-.19-1.31-.31-2a30.18,30.18,0,0,0-1.12-3.94,29.78,29.78,0,0,0-1.66-3.88c-.33-.63-.73-1.23-1.09-1.86-.19-.31-.36-.62-.56-.93l-.66-.88a28.77,28.77,0,0,0-6.29-6.37,28,28,0,0,0-8.27-4.34,29.37,29.37,0,0,0-19.35.14,29.76,29.76,0,0,0-18.47,36.9,28.72,28.72,0,0,0,4.45,8.72,33.19,33.19,0,0,0,3,3.52,30,30,0,0,0,17.41,8.43h.09l.05.07c2,3.06,3.71,5.71,5.12,7.87l-.23,0,2.89-6,.76-1.54A4.48,4.48,0,0,1,339.55,345.76Z" transform="translate(-23.87 -50.87)"/><path class="cls-6" d="M346,313a7.37,7.37,0,0,0-1.74-4.09,7.06,7.06,0,0,0-3.6-2.43,5.83,5.83,0,0,0-4.52.69,5.72,5.72,0,0,0-1.91,2,5.92,5.92,0,0,0-1.63-1.92,5.85,5.85,0,0,0-4.45-1.06,7,7,0,0,0-3.79,2.13,7.37,7.37,0,0,0-2.06,3.93,9,9,0,0,0,.89,5.58,12.64,12.64,0,0,0,4.22,4.29c2.79,1.84,6.47,4.15,6.47,4.15s3.29-2.25,6.22-3.86a12.62,12.62,0,0,0,4.55-3.93A9,9,0,0,0,346,313Z" transform="translate(-23.87 -50.87)"/><polygon class="cls-4" points="168.7 598.47 173.62 562.32 278.49 557.32 285.87 598.57 168.7 598.47"/><path class="cls-7" d="M290.83,499.38l31.47,34.91c5.19,5.76,8.94,11,16.4,13.11,5.23,1.48,16.24,2.09,19-1.34,3.82-4.72,6.18-12.86.84-23.11-3.47-6.67-34-33.92-34-33.92l-33.73,10.35" transform="translate(-23.87 -50.87)"/><path class="cls-6" d="M301.2,505.21c.18,1.73,8.4,18.89,8.4,18.89l27-17.62s-17.39-41.31-30.09-44.08Z" transform="translate(-23.87 -50.87)"/><path class="cls-7" d="M347.45,457.06l.38-13.12L347,427.22l-2.65-13.9s-.7-1.37-2.45-.34-.24,8.62-.24,8.62l.27,5.71s-1,4.4-1.36,4-1.43-8.07-1.43-8.07l-3.18-16.54a2.2,2.2,0,0,0-2.79-1.14c-1.13.35-1.87,2-1.73,4.45s1.21,6.58,1.33,8,1,9.43,1,9.43L328.16,409s-1-6-3.54-5.15-.83,5.18-.72,7.05,3.74,14.46,3.44,18-.86,1.76-.86,1.76-1.46-5.8-2.6-10.37S321,413,319,412.66s.68,10.26.68,10.26l3.35,14.79-.83,4.71-3.3-4.24s-.1-5.55-3.56-7.86-4.37.28-4.37.28l6.47,21.49c1.53,3.52,11.44,10.35,11.44,10.35L330.67,484l22-.44Z" transform="translate(-23.87 -50.87)"/><path class="cls-8" d="M339.72,449.31a24.46,24.46,0,0,1-2.94-2.47c-1.76-1.46-4.55-3.49-8-3.33a6.47,6.47,0,0,0-4,1.45l-.37.32-.32-.43c-1.41-1.86-2.93-3.48-3.83-4.65s-1.41-1.95-1.31-2a11.84,11.84,0,0,1,1.73,1.65,58.16,58.16,0,0,1,4.18,4.55l-.68-.11a7.14,7.14,0,0,1,4.54-1.73,9.87,9.87,0,0,1,5.14,1.24,15.75,15.75,0,0,1,3.41,2.55C339,448,339.81,449.23,339.72,449.31Z" transform="translate(-23.87 -50.87)"/><polygon class="cls-7" points="310.14 481.23 305.48 414.17 324.12 408.32 337.65 481.23 310.14 481.23"/><path class="cls-4" d="M293.63,378.89a7.54,7.54,0,0,0,4-14.46,7.84,7.84,0,0,0-6.06-13.6,9.39,9.39,0,0,0-13.69-8.5,10.56,10.56,0,0,0-13-1,7.51,7.51,0,0,0-7.35,12.33" transform="translate(-23.87 -50.87)"/><path class="cls-7" d="M294.57,420.92c.59-8.27.42-25.41.09-40.92a32,32,0,0,0-30.11-31.25l-1.66-.09c-17.89,0-27.9,15.18-27.42,33.07l-2.75,68.91,10.81,9.76a20.4,20.4,0,0,0,31.68-5.55h0l.84-15.14S293.35,438.06,294.57,420.92Z" transform="translate(-23.87 -50.87)"/><path class="cls-8" d="M276.19,439.69a41.63,41.63,0,0,1-22.08-7.89s4.56,12.64,21.76,12.11Z" transform="translate(-23.87 -50.87)"/><path class="cls-4" d="M287.08,394.47a2.45,2.45,0,0,1-2.5,2.33,2.35,2.35,0,0,1-2.4-2.36,2.46,2.46,0,0,1,2.51-2.33A2.35,2.35,0,0,1,287.08,394.47Z" transform="translate(-23.87 -50.87)"/><path class="cls-4" d="M290.48,388.18c-.32.3-2.1-1.18-4.73-1.33s-4.64,1-4.91.71c-.13-.15.21-.71,1.09-1.27a6.75,6.75,0,0,1,3.95-1,6.43,6.43,0,0,1,3.74,1.46C290.4,387.45,290.64,388,290.48,388.18Z" transform="translate(-23.87 -50.87)"/><path class="cls-4" d="M262.9,394.47a2.45,2.45,0,0,1-2.5,2.33,2.35,2.35,0,0,1-2.4-2.36,2.46,2.46,0,0,1,2.51-2.33A2.35,2.35,0,0,1,262.9,394.47Z" transform="translate(-23.87 -50.87)"/><path class="cls-4" d="M264.55,387.14c-.32.3-2.09-1.18-4.73-1.33s-4.64,1.06-4.91.72c-.13-.15.21-.71,1.09-1.27a6.63,6.63,0,0,1,4-1,6.46,6.46,0,0,1,3.74,1.45C264.47,386.41,264.71,387,264.55,387.14Z" transform="translate(-23.87 -50.87)"/><path class="cls-4" d="M273,407.24c0-.15,1.65-.33,4.33-.52.67,0,1.32-.12,1.46-.57a3.44,3.44,0,0,0-.33-2q-.81-2.49-1.69-5.24c-2.33-7.45-4-13.57-3.68-13.66s2.44,5.88,4.77,13.34c.56,1.83,1.1,3.59,1.6,5.26a3.91,3.91,0,0,1,.2,2.66,1.68,1.68,0,0,1-1.17.92,4.35,4.35,0,0,1-1.15.09C274.62,407.48,273,407.39,273,407.24Z" transform="translate(-23.87 -50.87)"/><path class="cls-4" d="M265.1,408.61c.43,0,.27,2.86,2.6,5s5.39,2,5.39,2.44c0,.18-.71.52-2,.48a7.12,7.12,0,0,1-4.51-1.88,6.16,6.16,0,0,1-2-4.21C264.55,409.27,264.91,408.58,265.1,408.61Z" transform="translate(-23.87 -50.87)"/><path class="cls-4" d="M265.84,376.86c-.3.7-2.91.2-6,.39s-5.66.89-6,.22c-.16-.32.31-1,1.36-1.6a10.55,10.55,0,0,1,9.19-.47C265.44,375.93,266,376.52,265.84,376.86Z" transform="translate(-23.87 -50.87)"/><path class="cls-4" d="M290,380.5c-.5.57-2.28-.16-4.46-.32s-4.05.16-4.44-.49c-.17-.31.16-.89,1-1.41a6.47,6.47,0,0,1,7.17.64C290,379.58,290.18,380.22,290,380.5Z" transform="translate(-23.87 -50.87)"/><path class="cls-4" d="M293.47,372.05s-3.88-11-8.91-13.82c-6.09-3.4-9.2,3.32-15.07,1.3s-11.69-5.29-18.06-1c-7,4.66-4.06,8.39-4.92,16C243,405.21,236.87,413.6,236.13,399c-.09-1.6-4.43-3.13-4.69-9.89-.33-8.77,0-19.37,2.27-25.45,1.95-5.12,5.13-8.54,10.7-12.2,8.79-5.78,20.36-5.23,28.16-4S295,358.65,293.47,372.05Z" transform="translate(-23.87 -50.87)"/><path class="cls-7" d="M237.25,398.58a4.66,4.66,0,0,0-4.76-4.78c-3.22.12-6.89,1.72-7.06,8.34-.32,11.74,11.53,9.64,11.56,9.3S237.16,403.5,237.25,398.58Z" transform="translate(-23.87 -50.87)"/><path class="cls-8" d="M234.56,407c-.05,0-.21.13-.56.28a2,2,0,0,1-1.53,0c-1.23-.49-2.22-2.48-2.22-4.6a6.77,6.77,0,0,1,.65-2.91,2.35,2.35,0,0,1,1.58-1.53,1,1,0,0,1,1.19.59c.15.33.07.56.13.59s.26-.19.18-.68a1.27,1.27,0,0,0-.44-.75,1.57,1.57,0,0,0-1.13-.33,2.88,2.88,0,0,0-2.18,1.76,7,7,0,0,0-.8,3.26c0,2.37,1.16,4.61,2.85,5.15a2.18,2.18,0,0,0,1.88-.26C234.53,407.24,234.6,407,234.56,407Z" transform="translate(-23.87 -50.87)"/><path class="cls-4" d="M238.81,375.89a11.25,11.25,0,0,0,4.83,2.58c1.83.29,4-.64,4.4-2.44.19-.81.05-1.76.62-2.36s1.85-.41,2.83-.25a7.49,7.49,0,0,0,8.08-4.91c.79,1.36,2.82,1.42,4.19.65a17,17,0,0,0,3.39-3.23c1.1-1.12,2.61-2.08,4.14-1.77a11.58,11.58,0,0,0,2.52.71c1.55-.05,2.4-1.8,2.73-3.32s.61-3.28,2-4,2.79-.16,4.2.13,3.25.07,3.69-1.29a2.78,2.78,0,0,0-.39-2.16,7.62,7.62,0,0,0-8.8-3.4,10.3,10.3,0,0,0-18.78-3.11,10.46,10.46,0,0,0-16.92,2.82A7.59,7.59,0,0,0,232.32,361c-2.18,1.08-4.11,3.06-4.29,5.49s2,5,4.41,4.48a4.2,4.2,0,0,0,7,4.61" transform="translate(-23.87 -50.87)"/><path class="cls-9" d="M277.87,354.29s0,.07,0,.21-.05.36-.12.62a7.25,7.25,0,0,1-1,2.21A8.33,8.33,0,0,1,274,360a7.9,7.9,0,0,1-4.88,1.09l.21-.25a4.27,4.27,0,0,1-.43,3.22,11.84,11.84,0,0,1-2.17,2.76,8.14,8.14,0,0,1-1.39,1.27,4.1,4.1,0,0,1-1.9.58,4.27,4.27,0,0,1-3.69-1.57l.44-.1a8.8,8.8,0,0,1-4.09,5.86,6.46,6.46,0,0,1-3.92,1,11.72,11.72,0,0,1-3.74-1.06l.32-.12a9.22,9.22,0,0,1-3,3.45,4.9,4.9,0,0,1-4.15.87,6.44,6.44,0,0,1-4.67-5.34l.26.14a6,6,0,0,1-4.07.35,6.5,6.5,0,0,1-2.73-1.42,5.7,5.7,0,0,1-1.23-1.51,3.12,3.12,0,0,1-.26-.62,7,7,0,0,0,1.62,2,6.66,6.66,0,0,0,2.67,1.3,5.82,5.82,0,0,0,3.84-.4l.22-.12,0,.26a6.08,6.08,0,0,0,4.42,4.95,4.47,4.47,0,0,0,3.77-.83,8.73,8.73,0,0,0,2.81-3.28l.11-.21.21.09a11.2,11.2,0,0,0,3.58,1,5.88,5.88,0,0,0,3.63-1,8.28,8.28,0,0,0,3.86-5.52l.11-.55.34.45a3.8,3.8,0,0,0,3.26,1.39,3.7,3.7,0,0,0,1.68-.5,8.06,8.06,0,0,0,1.31-1.19,11.82,11.82,0,0,0,2.13-2.64,3.84,3.84,0,0,0,.42-2.91l-.08-.29.3,0a7.6,7.6,0,0,0,4.67-1,8.27,8.27,0,0,0,2.74-2.47A9,9,0,0,0,277.87,354.29Z" transform="translate(-23.87 -50.87)"/><path class="cls-6" d="M303.2,522.31l1.24-12.49,4.3-45.78c-2.21-2.33-11.12-6-11.12-6L275.5,450.1s-2.12,6.07-18.74,6.32c-17,.25-24-10.38-24-10.38-8.49,2.73-27,9.77-27,9.77l-6.33,59.56L199,535l-3.91,100.13s111.37-4.73,113-5l-4.51-36Z" transform="translate(-23.87 -50.87)"/><polygon class="cls-10" points="247.36 442.05 247.36 465.48 260.12 475.89 273.41 465.57 274.14 442.7 247.36 442.05"/><path class="cls-10" d="M197.47,575.17l-.33,8.33s70.36-12.75,82.65-17.71c15.17-6.11,23.32-11.3,23.32-11.3l.25-6.35Z" transform="translate(-23.87 -50.87)"/><path class="cls-7" d="M202.35,460.82s-15.86,2.53-19.13,22.76c-2.1,13-8.48,70.48.24,85.91,10.09,17.86,101.16-12.1,101.16-12.1l3.12-23.11-70.19,4.64-8.81-48.71Z" transform="translate(-23.87 -50.87)"/><path class="cls-6" d="M176.92,528.75H221.4l-12.17-74.19s-25.5,5.16-28.83,31.8C177,513.23,176.92,528.75,176.92,528.75Z" transform="translate(-23.87 -50.87)"/><path class="cls-4" d="M182.51,528.75l.2,0,.58,0,2.25,0,8.29-.07,27.57-.07-.23.24c0-.57-.1-1.19-.16-1.82-.93-11.19-1.78-21.31-2.39-28.69-.28-3.64-.51-6.6-.67-8.7-.07-1-.13-1.79-.16-2.36,0-.25,0-.46,0-.62a.67.67,0,0,1,0-.21.69.69,0,0,1,0,.2l.08.62c.06.57.14,1.36.24,2.36.2,2.09.48,5,.82,8.68.65,7.38,1.54,17.5,2.53,28.68.05.63.1,1.25.15,1.83l0,.24h-.25l-27.57-.07-8.29-.07-2.25,0-.58,0Z" transform="translate(-23.87 -50.87)"/><path class="cls-4" d="M306.53,483.68a9.31,9.31,0,0,1,0,1.51c0,1-.07,2.38-.16,4.13-.18,3.48-.54,8.28-1,13.57s-1,10.08-1.45,13.54c-.21,1.72-.39,3.12-.53,4.09a10.4,10.4,0,0,1-.26,1.49,10,10,0,0,1,.08-1.51l.39-4.11c.34-3.54.8-8.29,1.31-13.54s.92-10.08,1.18-13.56c.13-1.67.23-3.06.3-4.11A9,9,0,0,1,306.53,483.68Z" transform="translate(-23.87 -50.87)"/><path class="cls-4" d="M222.09,475.6a4,4,0,0,1-.5-.83c-.34-.63-.75-1.41-1.24-2.31a35.79,35.79,0,0,0-4.78-7.13,16.54,16.54,0,0,0-7-4.71,20.22,20.22,0,0,0-3.49-.65,3,3,0,0,1,1-.06,10.18,10.18,0,0,1,2.62.41,15.76,15.76,0,0,1,7.26,4.7,31.73,31.73,0,0,1,4.73,7.29c.49,1,.86,1.81,1.11,2.38A4.07,4.07,0,0,1,222.09,475.6Z" transform="translate(-23.87 -50.87)"/><path class="cls-10" d="M216.32,532.1c-.08-.44,7.69-2.33,7.69-2.33l-5.69-36.85,3.08,35.83h-5.69Z" transform="translate(-23.87 -50.87)"/><path class="cls-11" d="M332.81,535.43l-1.37,18.94-6.29,7.92-15.4,20.42,18.65,1.22s21.87-5.44,25.08-12.17,3.41-36.33,3.41-36.33Z" transform="translate(-23.87 -50.87)"/><path class="cls-11" d="M424.94,472.37,426,398.71c.67-17.53-8-32.69-25.58-32.88l-1.62.07a31.34,31.34,0,0,0-29.85,30.26c-.51,15.2-.87,32-.38,40.12,1,16.81,17.94,18.62,17.94,18.62,0,.52,0,4.7-.09,9.71l0,8.35Z" transform="translate(-23.87 -50.87)"/><path class="cls-12" d="M386.46,454.9A40.63,40.63,0,0,0,408,447.39s-4.76,12.53-21.6,11.81Z" transform="translate(-23.87 -50.87)"/><path class="cls-4" d="M396.39,404.76c.36.11,2.06-1.12,4.8-1.76s5-.35,5.2-.61-.3-.37-1.27-.51a12,12,0,0,0-4.23.26,10.74,10.74,0,0,0-3.76,1.63C396.4,404.32,396.21,404.72,396.39,404.76Z" transform="translate(-23.87 -50.87)"/><path class="cls-4" d="M399.1,410a2.27,2.27,0,0,0,2.29,2.19,2.18,2.18,0,0,0,2.25-2.16,2.29,2.29,0,0,0-2.3-2.19A2.17,2.17,0,0,0,399.1,410Z" transform="translate(-23.87 -50.87)"/><path class="cls-4" d="M389.44,423.11c0-.15-1.61-.35-4.23-.56-.66,0-1.29-.14-1.42-.58a3.38,3.38,0,0,1,.34-2c.55-1.62,1.12-3.33,1.72-5.11,2.37-7.28,4-13.26,3.75-13.35s-2.45,5.73-4.82,13l-1.63,5.15a3.85,3.85,0,0,0-.22,2.6,1.64,1.64,0,0,0,1.13.91,4.77,4.77,0,0,0,1.13.11C387.82,423.32,389.44,423.26,389.44,423.11Z" transform="translate(-23.87 -50.87)"/><path class="cls-4" d="M398.44,393.22c.26.63,2.52.22,5.2.43s4.89.85,5.22.26c.14-.28-.26-.86-1.16-1.44a8.83,8.83,0,0,0-7.94-.53C398.8,392.4,398.33,392.92,398.44,393.22Z" transform="translate(-23.87 -50.87)"/><path class="cls-4" d="M371.63,397.75c.29.51,2.49,0,5.15,0s4.85.38,5.15-.14c.13-.25-.3-.72-1.22-1.14a9.2,9.2,0,0,0-3.91-.75,9.58,9.58,0,0,0-3.93.86C372,397,371.51,397.5,371.63,397.75Z" transform="translate(-23.87 -50.87)"/><path class="cls-11" d="M425.19,411.46c.3-.14,12.06-3.85,11.93,8.23s-12.23,9.46-12.24,9.12S425.19,411.46,425.19,411.46Z" transform="translate(-23.87 -50.87)"/><path class="cls-12" d="M428.62,424.27c.05,0,.2.15.56.31a2.05,2.05,0,0,0,1.57.05c1.28-.45,2.38-2.47,2.46-4.64a7,7,0,0,0-.56-3,2.46,2.46,0,0,0-1.56-1.64,1.08,1.08,0,0,0-1.25.57c-.17.33-.09.58-.16.6s-.25-.21-.15-.71A1.35,1.35,0,0,1,430,415a1.57,1.57,0,0,1,1.17-.29,3,3,0,0,1,2.18,1.89,7.11,7.11,0,0,1,.69,3.38c-.1,2.43-1.37,4.7-3.12,5.18a2.25,2.25,0,0,1-1.93-.34C428.63,424.56,428.57,424.29,428.62,424.27Z" transform="translate(-23.87 -50.87)"/><path class="cls-4" d="M371.86,403.5c.26.27,2.34.14,5,1s4.43,2.23,4.77,2.15c.16,0-.07-.45-.84-1.06a12.3,12.3,0,0,0-3.76-1.94,10.92,10.92,0,0,0-4-.59C372.09,403.15,371.73,403.37,371.86,403.5Z" transform="translate(-23.87 -50.87)"/><path class="cls-4" d="M375.08,409.68a2.27,2.27,0,0,0,2.3,2.18,2.18,2.18,0,0,0,2.25-2.15,2.28,2.28,0,0,0-2.3-2.19A2.18,2.18,0,0,0,375.08,409.68Z" transform="translate(-23.87 -50.87)"/><path class="cls-4" d="M346.61,380.54a2.72,2.72,0,0,1,1.32-1.55c1.33-.75,2.84-.6,4.3-.59A24.07,24.07,0,0,0,362.78,376a12.08,12.08,0,0,1-3-2.24c-1.8-1.89-2.79-4.75-1.88-7.2a1.62,1.62,0,0,1,.92-1.08c.75-.21,1.39.54,1.89,1.13,1.66,1.95,3.21,2.81,5.77,2.62a10.12,10.12,0,0,0,4.39-1.18l.14-.15c.61-.6,1.21-1.17,1.8-1.73h0c4.42-4.17,8.2-7,12.06-8.47,5.65-2.11,15-2.79,20.82-1.11s10.91,6.54,11.57,12.54c3.35-2.68,8.26-2.53,12.2-.83l.1,0c4.4,1.69,6.8,6.44,8,11,.07.25.12.5.18.76a17.65,17.65,0,0,0,5.83,6c.42.26.9.58.94,1.07s-.38.89-.79,1.16a8.63,8.63,0,0,1-3.63,1.4,20.2,20.2,0,0,0,1.39,3.16c.48.86,1.05,1.89.59,2.76a1.86,1.86,0,0,1-2,.81,5.53,5.53,0,0,1-2-1l1.4,3.59a10.5,10.5,0,0,1-4.82-.44c-1,4.2-2.26,9.58-3.42,12.42-1.85-.06-3.6-.54-4.77.46-1.59,1.36-2.35,4-4.91,2.91-1.3-.54-2.43-3.33-2.83-4.68a65.36,65.36,0,0,1-2.13-27.77,21.18,21.18,0,0,0-6.38-4.85l.2.19c-4.65-1.75-9.9-3.49-14.41-1.4-3.49,1.62-5.6,5.14-8.26,7.93a24.86,24.86,0,0,1-18.32,8.18c-.78,5-.41,11.47-.77,16.18l-4.17-7.72v0c-.31-.56-.56-1.13-.81-1.7l-.08-.17v0a28.81,28.81,0,0,0-1.26-2.72l-.05,0c-2.61,2.19-6.29-1.35-4.21-4.05a6.73,6.73,0,0,1,1.47-1.4,4.68,4.68,0,0,1-4.48,1,3.67,3.67,0,0,1-2.5-3.69,3.15,3.15,0,0,1,1.92-2.45,10.47,10.47,0,0,1-5.94-1.46C347.3,383.15,346.17,382,346.61,380.54Z" transform="translate(-23.87 -50.87)"/><path class="cls-9" d="M411.91,371a14.63,14.63,0,0,1,1.64,1.58,12.1,12.1,0,0,1,2.43,5.64,21.25,21.25,0,0,1,.32,4.27c0,1.54-.2,3.19-.36,4.93a42.44,42.44,0,0,0-.26,5.5,19.41,19.41,0,0,0,.3,2.91,6.07,6.07,0,0,0,1.11,2.84,2.52,2.52,0,0,0,2.35.86,3.75,3.75,0,0,0,2.16-1.15,8.65,8.65,0,0,0,1.72-4.22l-.35,0a14,14,0,0,0,1.95,3.57,5,5,0,0,0,3.22,1.86,3.17,3.17,0,0,0,1.73-.26,2.87,2.87,0,0,0,1.6-2.61,2.08,2.08,0,0,0-.5-1.31l-.18.15a10.67,10.67,0,0,0,3.53,2.79,9,9,0,0,0,1.1.47l.4.11s-.12-.07-.37-.18a9.27,9.27,0,0,1-1.07-.51,11.08,11.08,0,0,1-3.41-2.83l-.18.15a2.17,2.17,0,0,1,0,2.5,2.49,2.49,0,0,1-1.09,1,2.9,2.9,0,0,1-1.58.22,4.71,4.71,0,0,1-3-1.76,14.17,14.17,0,0,1-1.88-3.49l-.22-.55L423,394a8.41,8.41,0,0,1-1.64,4,3.43,3.43,0,0,1-1.94,1,2.11,2.11,0,0,1-2-.72,5.78,5.78,0,0,1-1-2.66,18.64,18.64,0,0,1-.3-2.85,43.76,43.76,0,0,1,.24-5.45c.15-1.74.31-3.4.33-5a21.71,21.71,0,0,0-.37-4.33,12.08,12.08,0,0,0-2.59-5.68A7.1,7.1,0,0,0,411.91,371Z" transform="translate(-23.87 -50.87)"/><path class="cls-9" d="M359.62,386l.13.12.41.31a5.22,5.22,0,0,0,.7.48,9.69,9.69,0,0,0,1,.56,14.83,14.83,0,0,0,7.15,1.47,18.86,18.86,0,0,0,10.21-3.48,32.58,32.58,0,0,0,8.95-9.8c1.28-2,2.32-4.05,3.47-5.95a22.26,22.26,0,0,1,3.87-5,11.62,11.62,0,0,1,4.91-2.81,8.35,8.35,0,0,1,2.56-.23,9.62,9.62,0,0,1,7.59,5.21,11.61,11.61,0,0,1,.8,2.54s0-.06,0-.18,0-.31-.06-.52a8.59,8.59,0,0,0-.59-1.91,9.72,9.72,0,0,0-5.32-4.89,9.39,9.39,0,0,0-2.39-.55,8.39,8.39,0,0,0-2.66.22,11.67,11.67,0,0,0-5.07,2.86,22.31,22.31,0,0,0-4,5.07c-1.16,1.91-2.21,4-3.47,5.94a32.93,32.93,0,0,1-8.82,9.72,19,19,0,0,1-10,3.5,15,15,0,0,1-7.07-1.34A24.67,24.67,0,0,1,359.62,386Z" transform="translate(-23.87 -50.87)"/><path class="cls-9" d="M358.28,378.54s.19.18.59.44a14.14,14.14,0,0,0,1.76.95,16.84,16.84,0,0,0,2.79,1,18.35,18.35,0,0,0,7.23.42,17.47,17.47,0,0,0,2.89-.67,14,14,0,0,0,1.86-.74c.42-.21.65-.34.63-.37s-1,.39-2.57.84a18.18,18.18,0,0,1-2.86.58,20.58,20.58,0,0,1-3.56.12,21.48,21.48,0,0,1-3.53-.53,20.09,20.09,0,0,1-2.77-.9C359.2,379,358.31,378.48,358.28,378.54Z" transform="translate(-23.87 -50.87)"/><path class="cls-12" d="M397.89,427.48s-6.12,1.78-8.44,2.62l.93,2.66a4.17,4.17,0,0,0,7.16,1.37,4.31,4.31,0,0,0,1-3A24.64,24.64,0,0,0,397.89,427.48Z" transform="translate(-23.87 -50.87)"/><path class="cls-4" d="M389.45,430.1c-.08-.21,3.63-1.56,8.32-3l.44-.14.09.47c0,.06,0,.13.05.19a19.79,19.79,0,0,1,.55,3.54A4.13,4.13,0,0,1,398,434c-1.15,1.38-2.35,1.45-2.34,1.37s1-.44,1.85-1.72c1-1.26.55-3.48,0-5.91,0-.07,0-.14,0-.21l.54.33C393.35,429.33,389.54,430.32,389.45,430.1Z" transform="translate(-23.87 -50.87)"/><path class="cls-9" d="M347.77,650l119-.55-6.57-101.26L459.75,518l-7-54.7-26.61-5.71s-6.65,12.24-23.65,12c-16.62-.24-16.08-7.31-16.08-7.31l-28.27,10.61s-15.49,7.54-18.33,14.85c-2.77,7.12-8.13,48-8.13,48l24.37-.3-2.22,77.45Z" transform="translate(-23.87 -50.87)"/><path class="cls-4" d="M356.89,499.55a1.93,1.93,0,0,1,.06.53q0,.6.09,1.53c.07,1.33.12,3.26.13,5.64,0,4.76-.08,11.33-.3,18.58s-.52,13.82-.76,18.57c-.13,2.33-.24,4.24-.32,5.63,0,.62-.08,1.12-.11,1.52a2.79,2.79,0,0,1-.07.53,1.66,1.66,0,0,1,0-.53c0-.4,0-.91,0-1.53l.18-5.63c.16-4.81.38-11.35.62-18.57s.39-13.82.44-18.57c0-2.38,0-4.3,0-5.63,0-.63,0-1.13,0-1.53A1.91,1.91,0,0,1,356.89,499.55Z" transform="translate(-23.87 -50.87)"/><path class="cls-9" d="M452,464s12,1.26,18.39,9.66c5.9,7.73,17.27,32,17,32.65s-26.77,17.95-26.77,17.95L454,512.23Z" transform="translate(-23.87 -50.87)"/><path class="cls-4" d="M457.79,476a1.49,1.49,0,0,1,.07.46c0,.35.06.79.11,1.32.09,1.15.18,2.82.29,4.89.2,4.12.35,9.83.45,16.12s.2,12,.32,16.13c.05,2,.1,3.66.14,4.89,0,.53,0,1,0,1.32a2.42,2.42,0,0,1,0,.47,1.59,1.59,0,0,1-.07-.46c0-.36-.07-.79-.11-1.33-.09-1.15-.19-2.82-.29-4.88-.2-4.12-.36-9.83-.45-16.13s-.2-12-.32-16.12c-.06-2-.1-3.67-.14-4.89,0-.53,0-1,0-1.33A1.64,1.64,0,0,1,457.79,476Z" transform="translate(-23.87 -50.87)"/><path class="cls-13" d="M292.05,581.38s3.94,2.64,6.42,2.31,10.58-2.31,10.58-2.31.17.71,2.32,2.34,15.21,3.77,20.66,3.11,14.72-4.13,14.72-4.13L344,567.07l-24.57,3.87-27.35,6.3v4.14Z" transform="translate(-23.87 -50.87)"/><path class="cls-11" d="M300.29,568.65s-2.15,9.42-1,10.74,2.61,1.66,3.44-.16a78.91,78.91,0,0,0,2.34-8.29l1-2.29s-1.33,15.54,1.32,16.36a5.52,5.52,0,0,0,4.13,0s5.29,4,5.62-2.31a90.32,90.32,0,0,1,2.25-14.05l1.23-2v3.53s-2.79,8.27-1.23,9.43,3.21,2,4.2.66a99.35,99.35,0,0,0,6.62-14.4s3.1,4.48,7.43,4.54c3.39,0,5.36-1.42,4-3.53s-4.79-3.88-4.79-3.88l-4.47-10.43L321.45,550h-12.4Z" transform="translate(-23.87 -50.87)"/><path class="cls-14" d="M282.59,561.94s10.43,6.21,15.22,7.37,30.5-3.41,30.23-5-3.61-3.07-5.93-3.4-9.09-1.49-9.09-1.49h18.19l8.76,5.54s3.11-1.25,2.1-3.79c-.54-1.35-7.39-6.71-7.39-6.71L318,551.12,288.39,550Z" transform="translate(-23.87 -50.87)"/><path class="cls-7" d="M292.35,534.09s29.6,5,30.26,5.79,8.27,9.42,8.27,9.42,11.4,3.92,9.92,6.45-4.8,1-4.8,1,4.63,7.28,2.48,8.76-4.46.5-6.12-1.65-6.44-10.08-6.44-10.08,4,16.2,2,16.69-5.13.67-6.45-3.47a44.2,44.2,0,0,1-1.65-6.45l-6.28-10.41s2.48,19,1,20.59c0,0-3.8,1.23-5.13-2.07s-3.14-10.87-3.14-10.87l-3.14-8.31-.33,5.29s2.65,9.75,1,10.41a4,4,0,0,1-5-2.22,35.77,35.77,0,0,1-3-7c-.33-1.3-2.08-5.7-2.08-5.7l-6.29-.83Z" transform="translate(-23.87 -50.87)"/><path class="cls-8" d="M328.79,546.77a95.11,95.11,0,0,1,7.48,10.62,44.68,44.68,0,0,1-3.93-5.17A47.09,47.09,0,0,1,328.79,546.77Z" transform="translate(-23.87 -50.87)"/><path class="cls-8" d="M318.93,541.3a8.53,8.53,0,0,1,1.39,1.66,44.33,44.33,0,0,1,2.78,4.4c1,1.78,1.77,3.44,2.29,4.67a8.82,8.82,0,0,1,.72,2,11.66,11.66,0,0,1-1-1.9c-.59-1.18-1.41-2.82-2.39-4.58s-1.94-3.33-2.65-4.44A14,14,0,0,1,318.93,541.3Z" transform="translate(-23.87 -50.87)"/><path class="cls-8" d="M310.22,542.18s.49.21,1,.83a8.12,8.12,0,0,1,1.57,2.8,15.09,15.09,0,0,1,.64,3.13,3.8,3.8,0,0,1,0,1.32,3.69,3.69,0,0,1-.35-1.27,25.64,25.64,0,0,0-.76-3,9.87,9.87,0,0,0-1.39-2.75C310.55,542.57,310.17,542.24,310.22,542.18Z" transform="translate(-23.87 -50.87)"/><path class="cls-8" d="M299.71,543.08c0-.05.46.09,1.06.51a5.94,5.94,0,0,1,2.46,5c0,.74-.18,1.17-.24,1.16a7.64,7.64,0,0,0-3.28-6.65Z" transform="translate(-23.87 -50.87)"/><path class="cls-10" d="M354.63,586.25c2.11,0,82.5-5.9,82.5-5.9l28.35-5.87-7-31.39L354.85,576.44Z" transform="translate(-23.87 -50.87)"/><path class="cls-13" d="M344,567.07,418.39,550s67.75-39.49,68.79-40.13S481.94,550,481.94,550s-43.16,22.74-55.59,25.69c-6.76,1.61-81.84,7.85-81.84,7.85Z" transform="translate(-23.87 -50.87)"/><path class="cls-4" d="M527.19,404.67c4.58-4.95,15.78-4.09,18.4-.78a8.54,8.54,0,0,1,11.15,3.83l11.89,2.72c2,.46,4.15,1,5.7,2.36s2.25,4,.95,5.58c4.18,1.13,5.77,7.39,2.63,10.38a4.52,4.52,0,0,1-.74,6.53,45.17,45.17,0,0,1,7.55,13.34c.72,2,1.3,4.28.53,6.29s-3.43,3.37-5.16,2.09a5.29,5.29,0,0,1,.19,5.71c2,.07,2.59,3.19,1.19,4.65s-3.65,1.58-5.67,1.51-4.19-.19-5.86.95a1.83,1.83,0,0,0,.64,1.28,8.29,8.29,0,0,1,1.74,11.31l-.67.92c-1.18,1.65-4.09,3.14-5.89,4.06-4.59,2.33-7.3,1.85-12.39,2.54,1.36,3.29-7,10.48-16.37,3.25-18.92,4.88-32.54,6.67-52.08,6.53-2.79,0-6.13-.43-7.35-2.94a6.91,6.91,0,0,1-6.35-2.15,20.52,20.52,0,0,1-3.68-5.92,12.15,12.15,0,0,1-8.63-11,15,15,0,0,1-5.56-10.74A8.81,8.81,0,0,1,448.41,455a53.24,53.24,0,0,1,6-16.39c-3.19-.72-4.35-5.05-3-8s4.28-4.88,7.05-6.61c-2.39.62-4.45-2.4-3.86-4.81s2.78-4,4.91-5.29a45.08,45.08,0,0,1,10-4.32c1.18-4.19,6.6-8.93,10.56-10.76,16-7.36,27.11-9.15,47.22,5.88" transform="translate(-23.87 -50.87)"/><path class="cls-13" d="M482.65,434.52c1.37-10.93,9.47-23.94,20.33-22.1l33.6,10.74a6.45,6.45,0,0,1,5.35,6.89l-5.7,73.05a20.09,20.09,0,0,1-17.56,18.38h0a20.1,20.1,0,0,1-22.57-20.32c.1-5,.16-8.8.15-8.77s-13.87-3.2-15.63-21.67C479.74,461.54,481.12,446.66,482.65,434.52Z" transform="translate(-23.87 -50.87)"/><path class="cls-4" d="M488.78,449.36a2.35,2.35,0,0,0,2.11,2.51,2.25,2.25,0,0,0,2.55-2,2.34,2.34,0,0,0-2.11-2.5A2.25,2.25,0,0,0,488.78,449.36Z" transform="translate(-23.87 -50.87)"/><path class="cls-4" d="M485.4,442.47c.27.33,2.13-.88,4.65-.71s4.29,1.54,4.59,1.25c.14-.13-.12-.7-.89-1.34a6.42,6.42,0,0,0-3.65-1.38,6.24,6.24,0,0,0-3.73.95C485.56,441.79,485.26,442.33,485.4,442.47Z" transform="translate(-23.87 -50.87)"/><path class="cls-4" d="M511.92,450.33a2.35,2.35,0,0,0,2.11,2.51,2.25,2.25,0,0,0,2.55-2,2.35,2.35,0,0,0-2.11-2.5A2.25,2.25,0,0,0,511.92,450.33Z" transform="translate(-23.87 -50.87)"/><path class="cls-4" d="M510.17,444.49c.28.32,2.14-.88,4.66-.72s4.29,1.54,4.58,1.25c.15-.13-.11-.7-.89-1.34a6.42,6.42,0,0,0-3.64-1.38,6.15,6.15,0,0,0-3.73,1C510.34,443.8,510,444.34,510.17,444.49Z" transform="translate(-23.87 -50.87)"/><path class="cls-4" d="M499.85,462.63c0-.14-1.53-.51-4.05-1-.64-.11-1.24-.28-1.32-.72A3.31,3.31,0,0,1,495,459l2.22-4.78c3.08-6.82,5.35-12.45,5.07-12.57s-3,5.31-6.07,12.13l-2.14,4.82a3.73,3.73,0,0,0-.49,2.51,1.67,1.67,0,0,0,1,1,4.57,4.57,0,0,0,1.09.22C498.25,462.66,499.83,462.77,499.85,462.63Z" transform="translate(-23.87 -50.87)"/><path class="cls-15" d="M496.25,492.39a46.66,46.66,0,0,0,24.9-5s-6.72,12.2-24.92,9.35Z" transform="translate(-23.87 -50.87)"/><path class="cls-4" d="M509.7,434c.21.7,2.75.53,5.69,1.07s5.28,1.5,5.71.91c.2-.29-.18-1-1.1-1.68a10,10,0,0,0-8.69-1.51C510.2,433.19,509.62,433.7,509.7,434Z" transform="translate(-23.87 -50.87)"/><path class="cls-4" d="M486.83,433.84c.4.6,2.18.12,4.27.22s3.84.63,4.28.05c.2-.28,0-.87-.78-1.46a6.2,6.2,0,0,0-6.9-.22C486.93,433,486.65,433.55,486.83,433.84Z" transform="translate(-23.87 -50.87)"/><path class="cls-4" d="M474.27,443.17a12.54,12.54,0,0,1,3.17-7.83,45.77,45.77,0,0,0,3.45-3.22c2.11-2.67,1.88-6.43,2.81-9.7a13.81,13.81,0,0,1,8.73-9.15c3.45-1.17,7.34-.94,10.59-2.59,2.41-1.22,4.26-3.39,6.73-4.46,4.81-2.1,10.31.44,14.77,3.21.84,3.6-1.48,6.66-3.72,9.6a12.82,12.82,0,0,1-9.51,5c-2.86.13-6.19-.58-8.23,1.43s-1.4,5.9-3.18,8.33c-2.55,3.47-8.18,2-11.93,4.15-2.9,1.63-4.17,5-5.66,8s-4.05,6-7.37,5.83A36.9,36.9,0,0,1,474.27,443.17Z" transform="translate(-23.87 -50.87)"/><path class="cls-4" d="M517.27,415.83a64.83,64.83,0,0,1,24.44,4.85c2.31.94,4.69,2.14,6,4.27a11.63,11.63,0,0,1,1.17,6.37c-.2,6.86-3.11,15.2-5.84,21.49l-8.65,5c-6.56-1.68-3.34-13-2.92-18.71a13.48,13.48,0,0,1-7.66-12A15,15,0,0,1,517.27,415.83Z" transform="translate(-23.87 -50.87)"/><path class="cls-13" d="M534.52,455.33c.33-3.92,5.16-4.6,8.49-2.52,1.84,1.15,3.19,3.36,2.88,7.52-.83,11.09-11.8,8-11.79,7.65S534.14,459.91,534.52,455.33Z" transform="translate(-23.87 -50.87)"/><path class="cls-15" d="M537.8,464c.05,0,.18.15.5.33a2,2,0,0,0,1.44.14c1.21-.35,2.33-2.13,2.54-4.13a6.38,6.38,0,0,0-.34-2.8,2.26,2.26,0,0,0-1.34-1.6,1,1,0,0,0-1.18.45c-.17.3-.12.52-.18.54s-.22-.21-.1-.66a1.22,1.22,0,0,1,.49-.66,1.42,1.42,0,0,1,1.09-.2,2.73,2.73,0,0,1,1.89,1.87,6.71,6.71,0,0,1,.44,3.14c-.24,2.23-1.54,4.24-3.18,4.58a2.09,2.09,0,0,1-1.75-.43C537.8,464.3,537.76,464.05,537.8,464Z" transform="translate(-23.87 -50.87)"/><path class="cls-9" d="M543.13,471.09a9.11,9.11,0,0,0,1.78-.08,6.54,6.54,0,0,0,2-.56l-.14-.06a5.52,5.52,0,0,0,8.73,3.66l-.18,0a2.28,2.28,0,0,0,1.43,1,3.3,3.3,0,0,0,1.81-.12,2.9,2.9,0,0,0,1.46-1.15,3.89,3.89,0,0,0,.6-1.82,5.68,5.68,0,0,0-1.14-3.72,16.46,16.46,0,0,0-2.88-2.9l0,.25a3.89,3.89,0,0,0,1.81-2.6,5.68,5.68,0,0,0-.26-3.28,8.66,8.66,0,0,0-1.89-2.8,25.5,25.5,0,0,0-2.59-2.27v.25a4.2,4.2,0,0,0,1.16-3.2,6.1,6.1,0,0,0-1.2-3.32,14.89,14.89,0,0,0-5.35-3.88l.09.2a7.38,7.38,0,0,0-7.85-9.25l.17.2a6.35,6.35,0,0,0-1.41-5.43,6.26,6.26,0,0,0-4.65-2.39l.14.14a6.23,6.23,0,0,0-2.44-4.88,6.09,6.09,0,0,0-4.61-1.37l.12.11a6.07,6.07,0,0,0-.85-2.86,8,8,0,0,0-1.65-2.07,6.33,6.33,0,0,0-3.77-1.7l-.41,0c-.14,0-.27,0-.39,0a5,5,0,0,0-.71.06,10.36,10.36,0,0,0-1.06.28l-.63.26-.21.09s.08,0,.22-.06l.63-.23a9.6,9.6,0,0,1,1.07-.25c.21,0,.44,0,.69-.05l.39,0,.4,0a6.29,6.29,0,0,1,3.67,1.71,7.89,7.89,0,0,1,1.59,2,5.78,5.78,0,0,1,.8,2.76v.13l.13,0a5.91,5.91,0,0,1,4.43,1.34,6,6,0,0,1,2.31,4.68v.15h.14a6.33,6.33,0,0,1,5.75,7.46l-.05.22.22,0a7,7,0,0,1,7.49,8.84l0,.13.12.06a14.64,14.64,0,0,1,5.23,3.78,5.71,5.71,0,0,1,1.13,3.13,3.85,3.85,0,0,1-1,2.95l-.14.13.15.12c1.79,1.42,3.58,2.91,4.39,4.93a5.38,5.38,0,0,1,.25,3.09,3.63,3.63,0,0,1-1.65,2.4l-.2.11.17.15a16.19,16.19,0,0,1,2.84,2.83,5.39,5.39,0,0,1,1.1,3.53,3,3,0,0,1-1.87,2.73,2.43,2.43,0,0,1-2.92-.76l-.08-.12-.11.09a5.36,5.36,0,0,1-5.6.43,5.44,5.44,0,0,1-2.8-3.91v-.13l-.12.06a6.56,6.56,0,0,1-1.89.56,9.8,9.8,0,0,1-1.76.1,6.73,6.73,0,0,1-2.7-.57,2.57,2.57,0,0,1-1.26-1.11c-.17-.34-.2-.55-.22-.55l0,.15a2.07,2.07,0,0,0,.14.43,2.57,2.57,0,0,0,1.27,1.17" transform="translate(-23.87 -50.87)"/><path class="cls-9" d="M581.45,457.56a3.15,3.15,0,0,0,.43-.66,5.75,5.75,0,0,0-.22-5.69,5.88,5.88,0,0,0-4-2.62l.09.13a7.69,7.69,0,0,0-3-7.84,16.82,16.82,0,0,0-3-1.48,6.29,6.29,0,0,1-1.44-.89,3.76,3.76,0,0,1-1-1.39c-.47-1.07-.61-2.33-1.21-3.49a6.78,6.78,0,0,0-6.71-3.47l.19.19a8.9,8.9,0,0,0-9.68-10.25l.18.19a7.81,7.81,0,0,0-12-7.51l.18,0a10.73,10.73,0,0,0-3.84-2.44,15.88,15.88,0,0,0-4-1,18.68,18.68,0,0,0-6.59.33,13.3,13.3,0,0,0-3.94,1.56,7.61,7.61,0,0,0-.91.64l-.3.24s.42-.31,1.26-.81a13.64,13.64,0,0,1,3.93-1.47,18.48,18.48,0,0,1,6.52-.26,15.93,15.93,0,0,1,3.91,1A10.65,10.65,0,0,1,540,413l.08.09.09-.07a7.52,7.52,0,0,1,11.54,7.24l0,.2.2,0a8.57,8.57,0,0,1,9.32,9.87l0,.22.23,0a6.43,6.43,0,0,1,6.37,3.29c.58,1.08.72,2.33,1.22,3.47a4.05,4.05,0,0,0,1.07,1.48,6.34,6.34,0,0,0,1.52.93,17.81,17.81,0,0,1,3,1.45,7,7,0,0,1,2.07,2.25,7.37,7.37,0,0,1,.92,5.31l0,.12.12,0a5.69,5.69,0,0,1,3.86,2.5,5.49,5.49,0,0,1,.88,3.4,5.73,5.73,0,0,1-.56,2.16C581.6,457.34,581.44,457.56,581.45,457.56Z" transform="translate(-23.87 -50.87)"/><path class="cls-9" d="M475.22,458.78a1.13,1.13,0,0,0,0-.91,2.14,2.14,0,0,0-.63-.93,3.73,3.73,0,0,0-1.36-.72,6.25,6.25,0,0,1-1.72-.75,3.46,3.46,0,0,1-1.22-1.8,6.83,6.83,0,0,1-.24-2.55c.06-.91.22-1.88.24-2.92.05-2.11-.8-4.26-1.31-6.59A9.13,9.13,0,0,1,469,438a4.43,4.43,0,0,1,2.06-3.09,16.21,16.21,0,0,1,3.92-1.25,6.52,6.52,0,0,0,2-.9,4.48,4.48,0,0,0,1.44-1.73,21.65,21.65,0,0,0,1.24-4.35,7.54,7.54,0,0,1,.8-2.09,3.44,3.44,0,0,1,1.67-1.41,12.84,12.84,0,0,1,3.07-.37,4.78,4.78,0,0,0,1.57-.36,3.08,3.08,0,0,0,1.24-1,10.62,10.62,0,0,0,1.21-2.81,6.83,6.83,0,0,1,1.44-2.48,6.64,6.64,0,0,1,4.87-2.23,6.88,6.88,0,0,1,4.69,1.78l.14.14.09-.18a10.55,10.55,0,0,1,6.69-5.58,9.7,9.7,0,0,1,3.71-.26,8.81,8.81,0,0,1,3,.9,7.81,7.81,0,0,1,3.19,3,6.81,6.81,0,0,1,.53,1.05,2.16,2.16,0,0,1,.13.28l0,.09s0,0,0-.1l-.1-.29a7,7,0,0,0-.5-1.08,7.73,7.73,0,0,0-3.19-3.14,9.11,9.11,0,0,0-3.09-.95,9.74,9.74,0,0,0-3.8.23,10.85,10.85,0,0,0-6.9,5.68l.24,0a7.19,7.19,0,0,0-4.89-1.88,6.94,6.94,0,0,0-5.11,2.32,7.24,7.24,0,0,0-1.51,2.59,10.72,10.72,0,0,1-1.17,2.73,3.26,3.26,0,0,1-2.57,1.24,12.46,12.46,0,0,0-3.16.38,3.81,3.81,0,0,0-1.83,1.55,8,8,0,0,0-.85,2.19,21.22,21.22,0,0,1-1.21,4.28,4.14,4.14,0,0,1-1.33,1.62,6.51,6.51,0,0,1-1.9.85,16.77,16.77,0,0,0-4,1.29,4.28,4.28,0,0,0-1.47,1.43,5.58,5.58,0,0,0-.72,1.87,9.53,9.53,0,0,0,.1,3.77c.53,2.36,1.38,4.48,1.34,6.53,0,1-.16,2-.21,2.91a7,7,0,0,0,.27,2.62,3.53,3.53,0,0,0,1.31,1.87,6.75,6.75,0,0,0,1.77.75,3.6,3.6,0,0,1,1.33.66,2.14,2.14,0,0,1,.64.88A1.46,1.46,0,0,1,475.22,458.78Z" transform="translate(-23.87 -50.87)"/><path class="cls-9" d="M454,441.22a.88.88,0,0,0,.12-.21l.32-.62c.28-.56.68-1.36,1.18-2.39s1.11-2.32,1.94-3.73a9.92,9.92,0,0,1,3.79-3.93c.9-.47,1.95-.77,3-1.22a6.86,6.86,0,0,0,1.53-.86,3.76,3.76,0,0,0,1.15-1.43c.55-1.14.59-2.45,1-3.63a3.1,3.1,0,0,1,1.09-1.5,6,6,0,0,1,1.8-.8,11.27,11.27,0,0,0,2-.72,3.58,3.58,0,0,0,1.54-1.54,15.89,15.89,0,0,0,1-4.29,5.33,5.33,0,0,1,.78-2,2.75,2.75,0,0,1,1.78-1.13c1.46-.28,3,.26,4.65,0a3.89,3.89,0,0,0,2.16-1.09,10.1,10.1,0,0,0,1.41-1.89,21.57,21.57,0,0,1,1.26-1.9,4.34,4.34,0,0,1,1.65-1.37,6.58,6.58,0,0,1,4.2.11,9.89,9.89,0,0,0,4.21.44,11.37,11.37,0,0,0,3.69-1.61,19.23,19.23,0,0,1,3.3-1.76,11.49,11.49,0,0,1,6.59-.1,12.29,12.29,0,0,1,4.84,2.6,13.65,13.65,0,0,1,2.64,3.23,15.09,15.09,0,0,1,1.11,2.41c.11.27.19.48.25.65s.09.22.09.21,0-.07-.06-.22-.12-.39-.21-.66a14.3,14.3,0,0,0-1.07-2.45,13.26,13.26,0,0,0-2.62-3.31,12.39,12.39,0,0,0-4.9-2.69,11.6,11.6,0,0,0-6.75.07,18.68,18.68,0,0,0-3.36,1.77,11,11,0,0,1-3.6,1.55,9.48,9.48,0,0,1-4.08-.44,14.61,14.61,0,0,0-2.15-.42,4.25,4.25,0,0,0-4,1.79c-.47.61-.86,1.27-1.27,1.92a9.86,9.86,0,0,1-1.37,1.82,3.53,3.53,0,0,1-2,1c-1.52.22-3.07-.32-4.67,0a3.15,3.15,0,0,0-2,1.27,5.61,5.61,0,0,0-.82,2.15,16.31,16.31,0,0,1-1,4.21,3.26,3.26,0,0,1-1.41,1.41,10.74,10.74,0,0,1-1.92.7,6.42,6.42,0,0,0-1.89.85,3.46,3.46,0,0,0-1.19,1.64c-.45,1.26-.49,2.55-1,3.62a4.49,4.49,0,0,1-2.54,2.17c-1,.45-2.07.76-3,1.25a10,10,0,0,0-3.84,4c-.82,1.43-1.39,2.74-1.89,3.78s-.87,1.84-1.13,2.41L454,441C454,441.14,454,441.21,454,441.22Z" transform="translate(-23.87 -50.87)"/><path class="cls-9" d="M466,429.8l-.2,0a1.28,1.28,0,0,0-.6.12,2.38,2.38,0,0,0-1.13,1.95,5.83,5.83,0,0,0,.2,1.66,7,7,0,0,1,.26,1.93,4.38,4.38,0,0,1-.82,2c-.44.66-1,1.31-1.46,2.1a3.19,3.19,0,0,0-.32,2.79c.34.95,1,1.75,1.33,2.72a4.12,4.12,0,0,1-.36,3.05c-.44,1-1.08,2-1.52,3.1A5,5,0,0,0,461,453a4.5,4.5,0,0,0,.39,1.84,21.53,21.53,0,0,0,2.06,3.2,5.1,5.1,0,0,1,1.11,3.54,16.64,16.64,0,0,1-1.41,3.72,5.7,5.7,0,0,0-.44,2,4.57,4.57,0,0,0,.48,2,16.86,16.86,0,0,0,2.34,3.18,9,9,0,0,1,1.89,3.18,27.55,27.55,0,0,0,1.09,3.48,4.06,4.06,0,0,0,1.11,1.42,5,5,0,0,0,1.55.78,15.41,15.41,0,0,1,1.54.58,5.62,5.62,0,0,1,1.26.89,11.28,11.28,0,0,1,1.78,2.41c.5.84,1,1.66,1.48,2.4a7.65,7.65,0,0,0,3.82,2.91,8.3,8.3,0,0,0,3.62.41,7.41,7.41,0,0,0,2.22-.61,4.94,4.94,0,0,0,.7-.39,8.65,8.65,0,0,1-2.94.87,8.18,8.18,0,0,1-3.54-.46,7.41,7.41,0,0,1-3.69-2.87c-.5-.73-.95-1.55-1.44-2.39a11.89,11.89,0,0,0-1.81-2.48,5.89,5.89,0,0,0-1.34-.95,14,14,0,0,0-1.56-.6,4.57,4.57,0,0,1-1.46-.74,3.72,3.72,0,0,1-1-1.32,27.21,27.21,0,0,1-1.06-3.44,9.42,9.42,0,0,0-1.94-3.29,16.51,16.51,0,0,1-2.29-3.11,4.19,4.19,0,0,1-.46-1.86,5.35,5.35,0,0,1,.43-1.91,16.76,16.76,0,0,0,1.42-3.81,4.19,4.19,0,0,0-.23-2,8.82,8.82,0,0,0-.94-1.74,21.81,21.81,0,0,1-2-3.15,4.12,4.12,0,0,1-.37-1.71,4.49,4.49,0,0,1,.36-1.69c.42-1.08,1.05-2.05,1.51-3.09a4.48,4.48,0,0,0,.35-3.26c-.36-1-1-1.83-1.36-2.72a3,3,0,0,1,.29-2.59c.43-.76,1-1.41,1.43-2.09a4.45,4.45,0,0,0,.83-2.15,7,7,0,0,0-.29-2,5.85,5.85,0,0,1-.23-1.62,2.33,2.33,0,0,1,1-1.9A1.43,1.43,0,0,1,466,429.8Z" transform="translate(-23.87 -50.87)"/><path class="cls-4" d="M581.18,457.2a4.45,4.45,0,0,0,.88-.07,6.22,6.22,0,0,0,2.36-1,5.9,5.9,0,0,0,2.4-3.23,6.22,6.22,0,0,0-.81-5.25,15.31,15.31,0,0,0-2.18-2.33,7.47,7.47,0,0,1-2-2.67,4.89,4.89,0,0,1,.24-3.53c.44-1.18,1.11-2.33,1.55-3.64a10.91,10.91,0,0,0-8-14l.09.26a5.39,5.39,0,0,0,1-2.4,7,7,0,0,0-.12-2.65,7.49,7.49,0,0,0-1.07-2.46,8.91,8.91,0,0,0-1.84-2,17.25,17.25,0,0,0-7.26-3.08,25.58,25.58,0,0,0-7.46-.46l.18.16a7.9,7.9,0,0,0-4.34-6.92,8,8,0,0,0-3.88-.82,12.67,12.67,0,0,0-3.66.9,7.14,7.14,0,0,1-1.72.36,4.27,4.27,0,0,1-1.67-.21A13.27,13.27,0,0,1,541,400.7a12.09,12.09,0,0,0-2.79-1.34,9.56,9.56,0,0,0-2.8-.42,9.3,9.3,0,0,0-4.63,1.17A9.78,9.78,0,0,0,528,402.4a9.53,9.53,0,0,0-1.2,1.89,4.74,4.74,0,0,0-.29.72s.11-.24.34-.69a10.31,10.31,0,0,1,1.24-1.85,9.77,9.77,0,0,1,2.74-2.22,9.22,9.22,0,0,1,4.55-1.11,9.6,9.6,0,0,1,2.74.44,11.59,11.59,0,0,1,2.72,1.33,13.76,13.76,0,0,0,3,1.53,4.74,4.74,0,0,0,1.76.22,7.31,7.31,0,0,0,1.79-.37,12.83,12.83,0,0,1,3.59-.87,7.86,7.86,0,0,1,3.74.81,7.57,7.57,0,0,1,4.14,6.64V409H559a25.71,25.71,0,0,1,7.37.46,16.83,16.83,0,0,1,7.1,3,8.27,8.27,0,0,1,1.78,1.91,7.26,7.26,0,0,1,1,2.35,6.65,6.65,0,0,1,.11,2.51,5.16,5.16,0,0,1-.94,2.26l-.15.21.25.06a10.6,10.6,0,0,1,7.74,13.6c-.41,1.27-1.08,2.42-1.53,3.63a5.17,5.17,0,0,0-.22,3.72,7.7,7.7,0,0,0,2.11,2.76,15.26,15.26,0,0,1,2.16,2.27,6.08,6.08,0,0,1,.83,5.09,5.79,5.79,0,0,1-2.31,3.18,6.23,6.23,0,0,1-2.3,1C581.49,457.18,581.18,457.18,581.18,457.2Z" transform="translate(-23.87 -50.87)"/><path class="cls-4" d="M462.19,422.1a.86.86,0,0,0,0-.22c0-.15,0-.36.07-.62.06-.57.15-1.37.27-2.39s.29-2.31.6-3.76a21.86,21.86,0,0,1,1.55-4.76,14.23,14.23,0,0,1,3.63-4.8,10.22,10.22,0,0,1,2.88-1.71,30.76,30.76,0,0,1,3.47-.93,10.1,10.1,0,0,0,3.53-1.49,15.71,15.71,0,0,0,2.88-2.77c.88-1,1.72-2.1,2.69-3.08a11.61,11.61,0,0,1,3.38-2.4,20.1,20.1,0,0,1,8.05-1.56,53.35,53.35,0,0,1,7.72.45,39.6,39.6,0,0,1,12.49,3.73,28,28,0,0,1,7.16,5.11c.36.37.7.69,1,1l.65.77c.18.2.31.36.41.48l.15.15s0-.06-.12-.17l-.38-.5-.64-.8c-.26-.3-.59-.63-.95-1a27.49,27.49,0,0,0-7.14-5.22A39.49,39.49,0,0,0,503,391.75a52.54,52.54,0,0,0-7.76-.47,20.25,20.25,0,0,0-8.19,1.59,11.53,11.53,0,0,0-3.48,2.47c-1,1-1.83,2.08-2.7,3.1a15.33,15.33,0,0,1-2.82,2.71,9.76,9.76,0,0,1-3.42,1.46,32.08,32.08,0,0,0-3.5.95,10.86,10.86,0,0,0-2.95,1.77,14.3,14.3,0,0,0-3.66,4.92,21.42,21.42,0,0,0-1.53,4.82c-.29,1.47-.44,2.74-.55,3.78s-.16,1.86-.2,2.41c0,.26,0,.46,0,.62S462.19,422.09,462.19,422.1Z" transform="translate(-23.87 -50.87)"/><path class="cls-15" d="M510.71,468.47a4.16,4.16,0,0,0-2.4-3.52,3.67,3.67,0,0,0-4.11.89,3.27,3.27,0,0,0-.2,3.94,3.58,3.58,0,0,0,1.58,1.4,4.5,4.5,0,0,0,2.69.28,3.07,3.07,0,0,0,1.94-1A2.93,2.93,0,0,0,510.71,468.47Z" transform="translate(-23.87 -50.87)"/><path class="cls-4" d="M509.31,463.07c-.42,0-.2,2.79-2.41,5s-5.2,2.1-5.19,2.49c0,.18.71.49,2,.42A6.91,6.91,0,0,0,508,469a6,6,0,0,0,1.84-4.14C509.86,463.7,509.49,463,509.31,463.07Z" transform="translate(-23.87 -50.87)"/><path class="cls-6" d="M557.82,509.16,536.27,501s-16.62,9.87-29.42,7.83c-9.93-1.59-10.74-6.69-10.74-6.69l-11.94,1.92s-18.09,15-21.87,30.32c-2.23,9-2.77,20.84-2.77,31.21,0,4.14,5.28,20.55,5.28,20.55l2.06,23.74-10,39.58H561.11V540Z" transform="translate(-23.87 -50.87)"/><polygon class="cls-6" points="417.29 523.61 402.15 485.71 445.59 455.45 460.29 453.18 456.47 506.83 417.29 523.61"/><path class="cls-4" d="M463.84,581.68a2.29,2.29,0,0,1-.28-.52c-.15-.36-.42-.87-.68-1.56a41.77,41.77,0,0,1-1.94-5.94,61.88,61.88,0,0,1-1.34-20.5,128.72,128.72,0,0,1,3.78-20.24c.66-2.55,1.23-4.6,1.63-6,.2-.67.35-1.21.48-1.63a3.69,3.69,0,0,1,.19-.56,2.21,2.21,0,0,1-.11.58l-.39,1.65c-.36,1.49-.87,3.54-1.49,6.06a140.35,140.35,0,0,0-3.63,20.2,64.27,64.27,0,0,0,1.19,20.39,50.36,50.36,0,0,0,1.79,5.95c.24.69.48,1.21.61,1.58A3,3,0,0,1,463.84,581.68Z" transform="translate(-23.87 -50.87)"/><g class="cls-16"><path d="M458.88,560.72l.95-.68a106.07,106.07,0,0,1,5.65-34.58C458.43,535.9,455.43,549,458.88,560.72Z" transform="translate(-23.87 -50.87)"/></g><path class="cls-10" d="M488.77,555.48s15,55.34,23.28,65.49,12.89,13.18,25.74,14.2,17.62-13.84,20.47-19.64S560.59,601,560.59,601l-17.51-9.79-13.85,22.83-35.7-59.59Z" transform="translate(-23.87 -50.87)"/><path class="cls-13" d="M491.11,562.69s15.23,35.42,26.15,55.74c9.24,17.19,28.1,15.28,34.08,5.72s16-38.21,16-38.21l-31.81-5.59L532,590.43l-24.12-30.75Z" transform="translate(-23.87 -50.87)"/><path class="cls-13" d="M517.13,557.58,514.79,547s-1.07-2.94-2.81-.35-.93,7.47-.93,7.47-3.3-25.21-6.19-28c-1.06-1-2.51.38-2.51.38s-.34-4.93-1.88-4.9-3,3.71-3,3.71a2.75,2.75,0,0,0-3.43.78c-1.35,1.64-1.36,15.34-1.36,15.34s-1.28-11.29-3.31-12c-3.23-1.14-3.23,3.15-3.23,3.15l.94,14.7a129.39,129.39,0,0,0,4,16.33c2.22,6.3,3.52,6.37,3.52,6.37l14.52-.39s3.28-3,5.86-5.31A7,7,0,0,0,517.13,557.58Z" transform="translate(-23.87 -50.87)"/><path class="cls-15" d="M541.77,604.71s-.1-.14-.25-.44L540.9,603l-1.13-2c-.46-.75-1-1.59-1.63-2.52-2.51-3.68-6.3-8.54-10.63-13.79s-8.31-10-11.11-13.44c-1.4-1.73-2.51-3.16-3.25-4.17l-.83-1.17a2.13,2.13,0,0,1-.27-.43s.13.12.34.37.53.67.9,1.12c.78,1,1.92,2.37,3.36,4.08,2.86,3.42,6.88,8.09,11.22,13.35s8.09,10.16,10.54,13.9c.59.95,1.14,1.8,1.58,2.57s.79,1.45,1.07,2,.4,1,.55,1.34A2.37,2.37,0,0,1,541.77,604.71Z" transform="translate(-23.87 -50.87)"/><path class="cls-6" d="M554.24,508.22s17.37,3.55,21.74,23.21c4,18.07,2.77,56.52,2.77,56.52l-47.29-8.33L543,514Z" transform="translate(-23.87 -50.87)"/><path class="cls-4" d="M538.17,539.58s0,.07,0,.21,0,.36-.08.61c-.08.57-.2,1.34-.35,2.32-.32,2.06-.79,5-1.36,8.56-1.2,7.26-2.85,17.26-4.68,28.38l-.19-.26,1.55.28L562.4,585l8.88,1.66,2.42.47.62.14.21.06h-.22l-.63-.09-2.43-.39-8.91-1.52L533,580.13l-1.55-.28-.22,0,0-.22c1.89-11.12,3.59-21.11,4.82-28.36l1.5-8.54c.18-1,.33-1.74.43-2.31,0-.24.09-.43.13-.6Z" transform="translate(-23.87 -50.87)"/><path class="cls-4" d="M540.82,533.28a5.47,5.47,0,0,1,.36-1.13c.27-.72.66-1.74,1.19-3a28.3,28.3,0,0,1,5.68-9,17.31,17.31,0,0,1,4.84-3.37,19.91,19.91,0,0,1,4.57-1.46,19.2,19.2,0,0,1,3.22-.33,4.58,4.58,0,0,1,1.18.06,42.54,42.54,0,0,0-4.33.59,18.49,18.49,0,0,0-9.16,4.84,30,30,0,0,0-5.7,8.79l-1.32,2.93A5.81,5.81,0,0,1,540.82,533.28Z" transform="translate(-23.87 -50.87)"/><path class="cls-15" d="M497.19,543.68A16.1,16.1,0,0,1,497,541c-.09-1.66-.18-4-.19-6.49A64.84,64.84,0,0,1,497,528a11.65,11.65,0,0,1,.44-2.66,21.89,21.89,0,0,1-.12,2.68c-.09,1.65-.14,3.94-.13,6.47s.05,4.69.06,6.49A16,16,0,0,1,497.19,543.68Z" transform="translate(-23.87 -50.87)"/><path class="cls-15" d="M502,526.71a13.19,13.19,0,0,1,.14,2.19c0,1.35.09,3.22.2,5.28s.24,3.92.34,5.27a12.07,12.07,0,0,1,.09,2.19,9.36,9.36,0,0,1-.41-2.16c-.18-1.34-.37-3.21-.48-5.28s-.11-3.94-.07-5.3A9.35,9.35,0,0,1,502,526.71Z" transform="translate(-23.87 -50.87)"/><path class="cls-6" d="M175.61,425.12c-1.17-7.81-3.1-16.34-8.25-22.32a49.29,49.29,0,0,0-12.24-10.57c-5.2-3.15-9.8-4.18-15.39-4.78l-3.66,3.25c11.72,2.84,21.92,11,27.91,21.45a53.55,53.55,0,0,1,5.92,35c-1.27,7.8-4.1,15.24-6.26,22.84S160,485.6,161.5,493.36c6.44-2.5,4.62,1.73,7.34-4.63s4.13-20.34,5.71-27.08C177.15,450.56,177.22,435.82,175.61,425.12Z" transform="translate(-23.87 -50.87)"/><path class="cls-4" d="M169.3,407.74c-9.88-15.36-32.94-20.09-32.94-20.09-33.77-2.42-39.8,23.53-43.21,47.16-2.12,14.69,5.68,60.6,5.68,60.6l8.27,3,54.33,0c0-1,3.85-9.31,4.8-12C171.22,461.8,175.11,416.77,169.3,407.74Z" transform="translate(-23.87 -50.87)"/><polygon class="cls-4" points="146.94 437.86 146.94 437.86 146.94 437.86 146.94 437.86"/><path class="cls-14" d="M141.16,396.45l-2.11-2-22.83,9.2a6.39,6.39,0,0,0-6,6.17l.2,74.38c0,5,1,9.41,4,13.43l3.21,4.24c7.31,9.65,22.34,8.85,28.13-1.78a7.9,7.9,0,0,0,.81-1.92,16.54,16.54,0,0,0,.34-1.67c.68-6,.72-11.17.72-11.17.4-6.57.54-9.27.54-9.21s14-1.6,17.76-19.55c1.88-8.93,1.53-21.2,1-33.29C166.21,406.53,154.6,396.43,141.16,396.45Z" transform="translate(-23.87 -50.87)"/><path class="cls-4" d="M137,434.41a2.32,2.32,0,0,1-2.35,2.23,2.22,2.22,0,0,1-2.29-2.21,2.32,2.32,0,0,1,2.35-2.23A2.21,2.21,0,0,1,137,434.41Z" transform="translate(-23.87 -50.87)"/><path class="cls-4" d="M160,435.19a2.32,2.32,0,0,1-2.36,2.23,2.21,2.21,0,0,1-2.28-2.21,2.31,2.31,0,0,1,2.35-2.23A2.22,2.22,0,0,1,160,435.19Z" transform="translate(-23.87 -50.87)"/><path class="cls-4" d="M164.55,428c-.3.29-2-1.1-4.49-1.22s-4.39,1-4.65.72c-.12-.14.2-.67,1-1.22a6.51,6.51,0,0,1,3.74-.95,6.16,6.16,0,0,1,3.56,1.35C164.47,427.35,164.7,427.91,164.55,428Z" transform="translate(-23.87 -50.87)"/><path class="cls-4" d="M139.21,428.3c-.33.25-1.87-1.3-4.34-1.68s-4.47.59-4.7.24c-.11-.15.26-.65,1.15-1.1a6.32,6.32,0,0,1,3.81-.56,6.12,6.12,0,0,1,3.4,1.7C139.2,427.6,139.37,428.19,139.21,428.3Z" transform="translate(-23.87 -50.87)"/><path class="cls-4" d="M147.94,446.47c0-.14,1.56-.33,4.09-.53.64,0,1.25-.13,1.38-.56a3.29,3.29,0,0,0-.33-1.91c-.53-1.57-1.07-3.22-1.65-5-2.27-7-3.88-12.82-3.59-12.91s2.35,5.55,4.62,12.59l1.57,5a3.75,3.75,0,0,1,.2,2.52,1.59,1.59,0,0,1-1.09.88,4.39,4.39,0,0,1-1.09.09C149.51,446.68,147.94,446.62,147.94,446.47Z" transform="translate(-23.87 -50.87)"/><path class="cls-17" d="M148.18,476.1a46.08,46.08,0,0,1-23.91-7.67s5.47,12.83,23.66,12Z" transform="translate(-23.87 -50.87)"/><path class="cls-17" d="M146.58,452.44a4.52,4.52,0,0,0-4-1.88,4.13,4.13,0,0,0-2.91,1.38,2.59,2.59,0,0,0-.35,3,3,3,0,0,0,3.23,1,9.58,9.58,0,0,0,3.29-1.74,3,3,0,0,0,.75-.71.83.83,0,0,0,0-.93" transform="translate(-23.87 -50.87)"/><path class="cls-4" d="M140.5,447.83c.41,0,.28,2.71,2.5,4.75s5.12,1.89,5.13,2.26c0,.18-.67.5-1.89.47a6.76,6.76,0,0,1-4.29-1.74,5.82,5.82,0,0,1-1.92-4C140,448.46,140.32,447.81,140.5,447.83Z" transform="translate(-23.87 -50.87)"/><path class="cls-4" d="M141.6,418.57c-.34.63-2.76-.07-5.71-.16s-5.42.33-5.72-.33c-.12-.31.38-.88,1.43-1.39a9.93,9.93,0,0,1,8.7.37C141.3,417.65,141.76,418.26,141.6,418.57Z" transform="translate(-23.87 -50.87)"/><path class="cls-4" d="M164.19,417.31c-.47.55-2.16-.13-4.22-.26s-3.84.19-4.22-.42c-.16-.3.15-.85.94-1.35a6.12,6.12,0,0,1,6.8.55C164.19,416.45,164.4,417.05,164.19,417.31Z" transform="translate(-23.87 -50.87)"/><path class="cls-4" d="M110.66,441.54s12.79,4,20-27.58c2.48-10.79,12.48-19.53,12.48-19.53l-4.06-1.22s-25.21,7.11-25.64,7.42-6.36,13.05-6.36,13.05Z" transform="translate(-23.87 -50.87)"/><path class="cls-14" d="M113.81,440.37c.06-1.35-1.33-4.6-2.65-4.88-3.53-.73-10-.76-10.46,8.26-.7,12.33,11.83,10.49,11.87,10.13S113.59,445,113.81,440.37Z" transform="translate(-23.87 -50.87)"/><path class="cls-17" d="M109.07,449c-.06,0-.23.14-.6.28a2.15,2.15,0,0,1-1.61-.06c-1.27-.55-2.25-2.68-2.19-4.9a7.23,7.23,0,0,1,.78-3.05,2.49,2.49,0,0,1,1.71-1.55,1.08,1.08,0,0,1,1.23.66c.15.35.06.59.12.62s.28-.19.21-.71a1.37,1.37,0,0,0-.45-.8,1.62,1.62,0,0,0-1.17-.38,3,3,0,0,0-2.35,1.78,7.44,7.44,0,0,0-.94,3.4c-.06,2.49,1.08,4.89,2.83,5.5a2.3,2.3,0,0,0,2-.21C109,449.29,109.11,449,109.07,449Z" transform="translate(-23.87 -50.87)"/><path class="cls-4" d="M119.33,435.51s.68-.05,1.85-.37a11.29,11.29,0,0,0,4.39-2.55,14.76,14.76,0,0,0,2.29-2.69,19.94,19.94,0,0,0,1.86-3.6,74.92,74.92,0,0,0,2.66-9c.87-3.21,1.81-6.25,2.84-8.95a50.28,50.28,0,0,1,3.21-7,37.83,37.83,0,0,1,2.82-4.33c.37-.49.69-.84.89-1.09a3.67,3.67,0,0,1,.33-.37,2.62,2.62,0,0,1-.28.41c-.19.26-.49.63-.83,1.13a40.48,40.48,0,0,0-2.73,4.36,55.9,55.9,0,0,0-3.13,7c-1,2.69-1.94,5.72-2.8,8.93a74.39,74.39,0,0,1-2.7,9,20.79,20.79,0,0,1-1.91,3.64,15.48,15.48,0,0,1-2.36,2.7,10.92,10.92,0,0,1-4.52,2.5A7.09,7.09,0,0,1,119.33,435.51Z" transform="translate(-23.87 -50.87)"/><path class="cls-9" d="M100.25,486.94a31.06,31.06,0,0,0,.27-4.31,67.8,67.8,0,0,0-1.2-11.72c-.44-2.44-.92-5.12-1.43-8a76.67,76.67,0,0,1-1.11-9.24,37.57,37.57,0,0,1,.75-10.2,25.53,25.53,0,0,1,1.73-5.12,24.3,24.3,0,0,1,2.92-4.74,56.83,56.83,0,0,1,7.76-7.82c2.71-2.34,5.3-4.64,7.6-7a96.14,96.14,0,0,0,11.08-13.49,92.39,92.39,0,0,0,6-10.13c.63-1.24,1.1-2.21,1.4-2.88l.35-.76a1.42,1.42,0,0,0,.1-.26l-.14.25-.37.74c-.32.66-.81,1.62-1.45,2.85a101.15,101.15,0,0,1-6.09,10.05,98,98,0,0,1-11.12,13.41c-2.3,2.34-4.88,4.62-7.58,7a57,57,0,0,0-7.82,7.86,25.44,25.44,0,0,0-3,4.8,26.44,26.44,0,0,0-1.75,5.19,37.91,37.91,0,0,0-.73,10.3A75,75,0,0,0,97.61,463c.53,2.87,1,5.55,1.48,8a70.31,70.31,0,0,1,1.3,11.67c0,1.38,0,2.46-.08,3.19,0,.35,0,.63-.06.83A1.07,1.07,0,0,0,100.25,486.94Z" transform="translate(-23.87 -50.87)"/><path class="cls-9" d="M96.28,488.1a31.06,31.06,0,0,0,.27-4.31,65.85,65.85,0,0,0-1.2-11.72c-.44-2.44-.92-5.12-1.43-8a76.67,76.67,0,0,1-1.11-9.24,37.57,37.57,0,0,1,.75-10.2,25.53,25.53,0,0,1,1.73-5.12,24.3,24.3,0,0,1,2.92-4.74A56.34,56.34,0,0,1,106,427c2.7-2.34,5.29-4.64,7.59-7a97,97,0,0,0,11.09-13.49,93.65,93.65,0,0,0,6-10.13c.64-1.24,1.1-2.21,1.4-2.88l.35-.76a1.42,1.42,0,0,0,.1-.26l-.14.25-.37.74c-.32.66-.8,1.62-1.45,2.85a99.25,99.25,0,0,1-6.09,10.05,97.27,97.27,0,0,1-11.12,13.41c-2.3,2.34-4.88,4.62-7.58,7a57,57,0,0,0-7.82,7.86,24.89,24.89,0,0,0-3,4.8,25.83,25.83,0,0,0-1.76,5.19,37.91,37.91,0,0,0-.73,10.3,75,75,0,0,0,1.14,9.27c.53,2.87,1,5.55,1.48,8a70.31,70.31,0,0,1,1.3,11.67c0,1.38,0,2.46-.08,3.19l-.06.83A1.07,1.07,0,0,0,96.28,488.1Z" transform="translate(-23.87 -50.87)"/><path class="cls-4" d="M78.44,649.34s-1.15-10.26,5.42-27.41c5.38-14.06,11.69-21.81,11.69-21.81l85-5.6,6.55,54.82Z" transform="translate(-23.87 -50.87)"/><path class="cls-2" d="M179.62,562.63c1.25-18.94,0-47.64,0-47.64l-14.05-23.56-18.5-2.91s0,13-9.72,15.09C120.8,507.27,110,487.37,110,487.37c-1.56,0-25.11,4.94-32.57,12-7.67,7.3-20.36,26.65-23.93,32.2h0s-24.8,36.2-28.43,46.13a18,18,0,0,0,1.22,15.62c.75,2.24,23.7,35.15,41.45,48.29L69.15,639l9.22-15.81L54.49,584l27.7-29.17,5.44-5.12,1.56,6.89L95.91,589s-13.38,26.75-15.26,40.66c0,0,65.8,22.68,106.4,11.48C187.05,641.11,178.37,581.57,179.62,562.63Z" transform="translate(-23.87 -50.87)"/><path class="cls-14" d="M110.41,616.12s-11.13-3-12.25-2.37-9.44,5-9.44,5A42.48,42.48,0,0,1,84.8,623s-2.86,2.7-4.82,2.79a8.83,8.83,0,0,1-3.13-.33L69.15,639s4.57,4.35,7,4.31S92,637.66,92,637.66l3.24-.71s12.17,1.76,13.17-1.9l.11-1-12-2.34-4.55.27,8.06-2.08s11.4.55,12.48.37,2.44-1.7,2.09-2.64l-2.35-.56s2.76-1.5,2.85-3.15L104.57,621S111.37,618.48,110.41,616.12Z" transform="translate(-23.87 -50.87)"/><path class="cls-17" d="M113.51,627a3.72,3.72,0,0,1-1-.24c-.61-.18-1.5-.42-2.61-.71-2.21-.58-5.29-1.3-8.69-2.06a10.36,10.36,0,0,0-1.24-.24,4.15,4.15,0,0,0-1.17.08c-.76.21-1.53.48-2.24.71-1.43.49-2.69,1-3.74,1.43a26.66,26.66,0,0,0-2.42,1.18,6.88,6.88,0,0,1-.87.48,2.68,2.68,0,0,1,.77-.64,18.26,18.26,0,0,1,2.37-1.34c1-.5,2.31-1,3.74-1.54.72-.25,1.45-.52,2.28-.75a4.14,4.14,0,0,1,1.32-.1,10.84,10.84,0,0,1,1.31.25c3.41.75,6.48,1.54,8.68,2.2,1.09.33,2,.63,2.57.87A4,4,0,0,1,113.51,627Z" transform="translate(-23.87 -50.87)"/><path class="cls-17" d="M104.83,621.53c0,.08-.84-.39-2.24-.82a13,13,0,0,0-5.64-.44,12.85,12.85,0,0,0-5.26,2.05c-1.22.82-1.86,1.49-1.92,1.43A6.08,6.08,0,0,1,91.48,622a11.81,11.81,0,0,1,5.4-2.26,12,12,0,0,1,5.82.6A6.13,6.13,0,0,1,104.83,621.53Z" transform="translate(-23.87 -50.87)"/><polygon class="cls-2" points="212.9 485.98 169.49 453.66 153.28 442.99 141.3 440.55 146.39 491.16 157.64 491.16 206.04 512.2 265.33 517.24 266.21 498.86 212.9 485.98"/><path class="cls-4" d="M180.41,584.81a3.91,3.91,0,0,1-.07-.75c0-.53-.05-1.25-.09-2.15-.07-1.87-.15-4.58-.21-7.93s-.11-7.33-.11-11.76,0-9.29,0-14.39A114,114,0,0,0,176.43,522c-.77-3.25-1.43-5.88-1.88-7.7-.22-.87-.39-1.57-.51-2.09a3.33,3.33,0,0,1-.15-.74,5.13,5.13,0,0,1,.24.72c.14.51.34,1.2.59,2.07.5,1.8,1.22,4.42,2,7.67a108.43,108.43,0,0,1,3.61,25.89c.08,5.11,0,10,0,14.4s0,8.41,0,11.76,0,6,.07,7.93v2.15A6.2,6.2,0,0,1,180.41,584.81Z" transform="translate(-23.87 -50.87)"/><g class="cls-16"><path d="M180.13,543a40.43,40.43,0,0,0-9.32-37.78,131.77,131.77,0,0,1,9.43,37" transform="translate(-23.87 -50.87)"/></g><path class="cls-6" d="M144.34,388c-27.18,2.44-28.25,35.67-31.87,61.88-5.16,37.45,22.24,45.49,22.24,45.49l-34-6.38s-18.62-7.54-18.48-28.21,3.38-46,25-65.2C126,379,142.63,386.91,144.34,388Z" transform="translate(-23.87 -50.87)"/><path class="cls-6" d="M170.81,487.37c-2.05-1.86-1.26-2.57-7.13-3.11-6.64-.61-14.05,3.64-20.66,4.51s-13.66,0-19.2-3.69c-6.5-4.33-10-11.81-13.29-18.91l-16,13.13a12.87,12.87,0,0,0-4.79,10.38,4.43,4.43,0,0,0,.37,2c.94,1.41,7.79-1.91,9.17-.94,7.31,5.11,10.42,13.23,17.12,19.13,7.83,6.89,15.08,12.36,20.59,12.17s15.7-6,19.35-12.8c3.38-6.25,6.33-10.81,9-15.59,1.39-2.51,6.26,1,6.85-2A4.64,4.64,0,0,0,170.81,487.37Z" transform="translate(-23.87 -50.87)"/><path class="cls-4" d="M82.19,526.41a3.85,3.85,0,0,1,.19.62l.48,1.81,1.65,6.66c1.36,5.63,3.19,13.43,5.13,22.06s3.61,16.46,4.73,22.15c.55,2.85,1,5.16,1.22,6.76.11.77.2,1.38.26,1.85a2.64,2.64,0,0,1,.06.65,6.12,6.12,0,0,1-.15-.64c-.09-.46-.2-1.07-.34-1.83-.34-1.64-.8-3.92-1.37-6.72-1.19-5.67-2.91-13.49-4.85-22.12l-5-22.09-1.51-6.69c-.16-.76-.3-1.37-.4-1.83A3.11,3.11,0,0,1,82.19,526.41Z" transform="translate(-23.87 -50.87)"/><path class="cls-4" d="M170.81,490.8l-.18.12-.55.32a23.5,23.5,0,0,1-2.14,1.12,38.82,38.82,0,0,1-8.46,2.83,66.73,66.73,0,0,1-13.15,1.49c-5,.16-10.46-.1-16.18-.47-2.87-.19-5.67-.47-8.35-.88s-5.25-1-7.67-1.59a67.53,67.53,0,0,1-12.42-4.55,54.53,54.53,0,0,1-7.7-4.51c-.88-.58-1.5-1.11-2-1.44l-.49-.39a.75.75,0,0,1-.16-.15.9.9,0,0,1,.19.11l.52.36c.46.3,1.1.81,2,1.37a60.57,60.57,0,0,0,7.74,4.36,68.87,68.87,0,0,0,12.39,4.43c2.41.6,5,1.13,7.62,1.55s5.45.69,8.32.87c5.72.37,11.18.64,16.14.51a69.11,69.11,0,0,0,13.09-1.38,41.69,41.69,0,0,0,8.45-2.68c1-.38,1.67-.82,2.18-1.05l.57-.27Z" transform="translate(-23.87 -50.87)"/><path class="cls-4" d="M118.65,494.36s-.07,0-.18-.1l-.48-.35-1.83-1.37c-.79-.6-1.72-1.39-2.81-2.28-.55-.45-1.1-1-1.7-1.49s-1.23-1.1-1.86-1.73a49.19,49.19,0,0,1-7.92-9.63,29.93,29.93,0,0,1-4.44-14.54,52.56,52.56,0,0,1,2.07-15.13c1.21-4.55,2.52-8.57,3.57-11.95s1.89-6.09,2.49-8l.66-2.18c.08-.23.14-.42.19-.57a1.38,1.38,0,0,1,.07-.19s0,.07,0,.2l-.14.58c-.14.54-.33,1.28-.58,2.21-.52,1.92-1.32,4.68-2.35,8.07s-2.29,7.43-3.47,12a52.85,52.85,0,0,0-2,15,29.76,29.76,0,0,0,4.34,14.34,49.66,49.66,0,0,0,7.79,9.62c.62.63,1.23,1.21,1.82,1.74s1.14,1.06,1.67,1.52c1.08.9,2,1.71,2.76,2.33l1.78,1.44.45.38Z" transform="translate(-23.87 -50.87)"/><path class="cls-4" d="M144.34,388c0,.1-1.41.17-3.6.8a24.5,24.5,0,0,0-3.71,1.43,32.65,32.65,0,0,0-4.21,2.48,49.7,49.7,0,0,0-6.75,5.78c-1.6,1.63-2.53,2.69-2.59,2.65a4.57,4.57,0,0,1,.58-.82c.4-.5,1-1.21,1.78-2.05a42,42,0,0,1,6.72-5.94,31.57,31.57,0,0,1,4.29-2.48,21.63,21.63,0,0,1,3.81-1.36,11.9,11.9,0,0,1,1.52-.32,8.59,8.59,0,0,1,1.16-.15A4.47,4.47,0,0,1,144.34,388Z" transform="translate(-23.87 -50.87)"/><g class="cls-16"><path d="M109.59,416.44a22.77,22.77,0,0,0,.52-2.51,1.37,1.37,0,0,0-2.64-.64l-5.39,14.28c-3.54,9.42-7.14,19.06-7.33,29.11s3,21.25,11.53,26.62l-2.47-4.4c-6.41-8.8-6.59-20.77-4.14-31.38S106.88,427,109.59,416.44Z" transform="translate(-23.87 -50.87)"/></g><path class="cls-4" d="M171.3,493.21s.21-.4.4-1.16a5.38,5.38,0,0,0-.29-3.24,6.38,6.38,0,0,0-3.36-3.38,11.39,11.39,0,0,0-5.9-.89,44.68,44.68,0,0,0-6,1c-1.84.42-3.48.87-4.84,1.28s-2.46.79-3.22,1a7.33,7.33,0,0,1-1.19.37,5.44,5.44,0,0,1,1.13-.53c.74-.31,1.82-.73,3.18-1.18s3-.95,4.84-1.39a42.83,42.83,0,0,1,6.09-1.09,11.63,11.63,0,0,1,6.12,1,6.71,6.71,0,0,1,3.49,3.64,5.41,5.41,0,0,1,.15,3.41,3.69,3.69,0,0,1-.38.85C171.38,493.13,171.31,493.22,171.3,493.21Z" transform="translate(-23.87 -50.87)"/><g class="cls-16"><path d="M162.26,494.81a62.49,62.49,0,0,1-33.35,4.88c-11.28-1.46-20.69-4.73-29.55-11.86,0,0,14.13,8.16,36.06,8.33C153.65,496.31,162.26,494.81,162.26,494.81Z" transform="translate(-23.87 -50.87)"/></g><path class="cls-18" d="M94.26,181.89V120.75H114a29,29,0,0,1,14.57,3.68,25.86,25.86,0,0,1,10.1,10.37,31.37,31.37,0,0,1,3.68,15v2.82a31.55,31.55,0,0,1-3.55,15.05,25.9,25.9,0,0,1-10,10.41,28.18,28.18,0,0,1-14.38,3.8ZM109,132.13v38.43h5.12q6.34,0,9.74-4.52t3.4-13.41V150q0-8.86-3.4-13.35t-9.91-4.5Z" transform="translate(-23.87 -50.87)"/><path class="cls-18" d="M165.56,181.89h-14.7V120.75h14.7Z" transform="translate(-23.87 -50.87)"/><path class="cls-18" d="M214.31,157.54H190.55v24.35H175.81V120.75h40.9v11.38H190.55V146.2h23.76Z" transform="translate(-23.87 -50.87)"/><path class="cls-18" d="M260.76,155.94H237.58v14.62H265v11.33H222.84V120.75H265v11.38H237.58V145h23.18Z" transform="translate(-23.87 -50.87)"/><path class="cls-18" d="M293.68,160.27h-8v21.62H271V120.75H295q10.88,0,17,4.83t6.13,13.63a19.85,19.85,0,0,1-2.58,10.57,18.35,18.35,0,0,1-8.09,6.8l12.77,24.68v.63H304.47Zm-8-11.34H295q4.2,0,6.32-2.21a8.56,8.56,0,0,0,2.12-6.17,8.66,8.66,0,0,0-2.14-6.21q-2.15-2.25-6.3-2.25H285.7Z" transform="translate(-23.87 -50.87)"/><path class="cls-18" d="M365,155.94H341.8v14.62h27.38v11.33H327.06V120.75h42.2v11.38H341.8V145H365Z" transform="translate(-23.87 -50.87)"/><path class="cls-18" d="M426.25,181.89H411.59l-21.67-38v38H375.18V120.75h14.74l21.63,38.05V120.75h14.7Z" transform="translate(-23.87 -50.87)"/><path class="cls-18" d="M485,161.19a22.37,22.37,0,0,1-3.45,11.28,20.75,20.75,0,0,1-8.84,7.58,30.07,30.07,0,0,1-13,2.68q-12.06,0-19-7.85t-6.93-22.17v-3A37,37,0,0,1,437,134a23.66,23.66,0,0,1,9-10.41,25.15,25.15,0,0,1,13.61-3.68q11.13,0,17.89,5.86t7.68,16.15H470.47c-.12-3.73-1.05-6.4-2.82-8s-4.45-2.44-8.06-2.44-6.36,1.37-8.06,4.12-2.61,7.12-2.69,13.14V153q0,9.8,2.46,14t8.46,4.2q5.07,0,7.77-2.4c1.79-1.59,2.74-4.13,2.85-7.6ZM465.3,181.47l-.42,2.57q6.3,1.17,6.3,7.26a8.7,8.7,0,0,1-4.16,7.64q-4.15,2.77-11.55,2.77l-.29-7.81c2.46,0,3.7-1.07,3.7-3.23a2.26,2.26,0,0,0-1.33-2.22,12.81,12.81,0,0,0-4.3-.84l1.3-6.14Z" transform="translate(-23.87 -50.87)"/><path class="cls-18" d="M526.73,170.47H506.54L503,181.89H487.26l22.43-61.14h13.85l22.6,61.14H530.3Zm-16.67-11.38h13.15l-6.6-21.2Z" transform="translate(-23.87 -50.87)"/><path class="cls-19" d="M132.76,88.54H109v24.35H94.26V51.75h40.9V63.13H109V77.2h23.76Z" transform="translate(-23.87 -50.87)"/><path class="cls-19" d="M168,101.47H147.76l-3.53,11.42H128.48L150.9,51.75h13.86l22.59,61.14H171.52ZM151.28,90.09h13.15l-6.6-21.2Z" transform="translate(-23.87 -50.87)"/><path class="cls-19" d="M240.39,92.19A22.36,22.36,0,0,1,237,103.47a20.8,20.8,0,0,1-8.84,7.58,30.15,30.15,0,0,1-13,2.68q-12,0-19-7.85T189.2,83.71v-3A37,37,0,0,1,192.33,65a23.68,23.68,0,0,1,9-10.41,25.12,25.12,0,0,1,13.6-3.68q11.13,0,17.89,5.86t7.69,16.15h-14.7q-.16-5.59-2.81-8t-8.07-2.44q-5.5,0-8.06,4.12t-2.69,13.14V84q0,9.8,2.46,14t8.46,4.2q5.08,0,7.77-2.4c1.79-1.59,2.74-4.13,2.85-7.6Zm-19.74,20.28-.42,2.57q6.3,1.17,6.3,7.26a8.69,8.69,0,0,1-4.15,7.64q-4.17,2.77-11.55,2.77l-.3-7.81c2.47,0,3.7-1.07,3.7-3.23a2.25,2.25,0,0,0-1.32-2.22,12.93,12.93,0,0,0-4.31-.84l1.3-6.14Z" transform="translate(-23.87 -50.87)"/><path class="cls-19" d="M282.09,101.47h-20.2l-3.53,11.42H242.62L265,51.75H278.9l22.59,61.14H285.66ZM265.42,90.09h13.14L272,68.89Z" transform="translate(-23.87 -50.87)"/><path class="cls-19" d="M362.08,101.47H341.89l-3.53,11.42H322.61L345,51.75h13.86l22.59,61.14H365.65ZM345.41,90.09h13.15L352,68.89Z" transform="translate(-23.87 -50.87)"/></svg>