<svg xmlns="http://www.w3.org/2000/svg" xmlns:xlink="http://www.w3.org/1999/xlink" viewBox="0 0 1137 259"><defs><style>.cls-1{fill:none;}.cls-2{clip-path:url(#clip-path);}.cls-3{fill:#0063bf;}</style><clipPath id="clip-path"><rect class="cls-1" width="1137" height="259"/></clipPath></defs><title>logoAzul</title><g id="Camada_2" data-name="Camada 2"><g id="Camada_1-2" data-name="Camada 1"><g class="cls-2"><path class="cls-3" d="M64,62.65c0-6.67,1.67-8.34,8.35-8.34H89c6.69,0,8.36,1.67,8.36,8.34V205.52c0,26.91-18.91,45.78-48.68,45.78S0,232.45,0,205.52V62.65C0,56,1.67,54.31,8.35,54.31h25c6.68,0,8.35,1.67,8.35,8.34V206.9A10.81,10.81,0,0,0,52.88,218,10.8,10.8,0,0,0,64,206.9V62.65Z"/><path class="cls-3" d="M190.55,144.5l17.81-82.4c1.68-6.38,4.45-7.77,11.13-7.77h30.87c6.68,0,8.35,1.67,8.35,8.34V240.23c0,6.67-1.67,8.33-8.35,8.33h-25c-6.69,0-8.36-1.66-8.36-8.33V158.36h-2.79l-17.24,82.4c-1.67,6.38-4.44,7.76-11.12,7.76h-1.68c-6.68,0-9.45-1.38-11.12-7.76l-17.24-82.4H153v81.85c0,6.66-1.67,8.33-8.35,8.33H128c-6.68,0-8.35-1.67-8.35-8.33V62.65c0-6.67,1.67-8.34,8.35-8.34h31.16c6.68,0,9.45,1.38,11.12,7.77l17.52,82.4h2.79Z"/><path class="cls-3" d="M344.94,248.52c-6.68,0-8.35-1.67-8.35-8.33V184.71c0-4.43-1.12-5.55-5.56-5.55H319.9c-4.44,0-5.56,1.12-5.56,5.55v55.5c0,6.66-1.67,8.33-8.36,8.33H289.3c-6.69,0-8.36-1.67-8.36-8.33V97.33c0-26.9,18.91-45.78,48.68-45.78S378.3,70.41,378.3,97.33V240.21c0,6.66-1.67,8.33-8.36,8.33h-25Zm-30.6-108.19c0,4.43,1.12,5.55,5.56,5.55H331c4.44,0,5.56-1.12,5.56-5.55V95.93a11.13,11.13,0,0,0-22.25,0Z"/><path class="cls-3" d="M458.88,201.44a14.42,14.42,0,0,0,28.84,0V179.87c0-8.64,2.16-10.79,10.82-10.79h21.63c8.67,0,10.82,2.15,10.82,10.79v19.77c0,34.89-24.54,59.36-63.12,59.36s-63.12-24.47-63.12-59.36V59.36C404.79,24.47,429.3,0,467.91,0S531,24.47,531,59.36V79.13c0,8.64-2.15,10.79-10.81,10.79H498.58c-8.66,0-10.81-2.15-10.81-10.79V57.56a14.43,14.43,0,0,0-28.85,0V201.44Z"/><path class="cls-3" d="M794.34,14.38c0-8.64,2.16-10.78,10.82-10.78h21.63c8.67,0,10.82,2.14,10.82,10.78V199.64c0,34.89-24.53,59.36-63.12,59.36s-63.12-24.47-63.12-59.36V14.38c0-8.64,2.15-10.78,10.81-10.78h32.46c8.66,0,10.81,2.14,10.81,10.78V201.44a14.43,14.43,0,0,0,28.85,0V14.38Z"/><path class="cls-3" d="M862.88,59.36C862.88,24.47,887.39,0,926,0c38.23,0,63.12,24.47,63.12,59.36v9c0,8.64-2.15,10.78-10.82,10.78H956.67c-8.66,0-10.82-2.14-10.82-10.78V57.56a14.42,14.42,0,0,0-28.84,0c0,54,72.13,64.75,72.13,140.29,0,36.68-24.54,61.15-64.92,61.15s-64.93-24.47-64.93-61.15V187.06c0-8.64,2.16-10.79,10.82-10.79h21.63c8.67,0,10.82,2.15,10.82,10.79v12.58c0,9.37,6.86,16.19,16.23,16.19S935,209,935,199.64C935,145.68,862.88,134.89,862.88,59.36Z"/><path class="cls-3" d="M1093.71,255.4c-8.66,0-10.82-2.14-10.82-10.78v-72c0-5.74-1.45-7.19-7.21-7.19h-14.42c-5.76,0-7.21,1.45-7.21,7.19v72c0,8.64-2.16,10.78-10.82,10.78h-21.64c-8.66,0-10.81-2.14-10.81-10.78V59.36c0-34.89,24.49-59.36,63.1-59.36S1137,24.47,1137,59.36V244.62c0,8.64-2.15,10.78-10.82,10.78Zm-39.66-140.28c0,5.74,1.45,7.19,7.21,7.19h14.42c5.76,0,7.21-1.45,7.21-7.19V57.56a14.42,14.42,0,0,0-28.84,0Z"/><path class="cls-3" d="M619.4,0c-38.59,0-63.12,24.47-63.12,59.36V244.62c0,8.64,2.15,10.78,10.81,10.78h21.64c8.66,0,10.81-2.14,10.81-10.78v-72c0-5.74,1.46-7.19,7.22-7.19h14.42c5.76,0,7.21,1.45,7.21,7.19v72c0,8.64,2.15,10.78,10.82,10.78h32.45c8.66,0,10.82-2.14,10.82-10.78V59.36C682.52,24.47,658,0,619.4,0Zm37.13,86.11q-11.67,11.7-23.39,23.35l-9.94,9.89a4.39,4.39,0,0,1-6.07.06l3-3.2-3.1,3.12-.35-.36L583.74,86.13a24.25,24.25,0,0,1-7-13.42,24.58,24.58,0,0,1,18-27.83,23.9,23.9,0,0,1,7.61-.79,24.5,24.5,0,0,1,16,7c.57.55,1.14,1.12,1.69,1.69l1.76-1.73a24.41,24.41,0,0,1,12.88-6.62,23.19,23.19,0,0,1,5.63-.35,24.53,24.53,0,0,1,22.89,19.73A23.81,23.81,0,0,1,656.53,86.11Z"/></g></g></g></svg>