<svg id="Camada_1" data-name="Camada 1" xmlns="http://www.w3.org/2000/svg" xmlns:xlink="http://www.w3.org/1999/xlink" viewBox="0 0 1275 300"><defs><style>.cls-1,.cls-7{fill:none;}.cls-2{fill:#1d7cd4;}.cls-3{fill:#f17e7e;}.cls-4{fill:url(#Gradiente_sem_nome_2);}.cls-5{fill:#efad71;}.cls-6{clip-path:url(#clip-path);}.cls-7{stroke:#f17e7e;stroke-width:4px;}.cls-8{fill:url(#Gradiente_sem_nome_2-2);}.cls-9{font-size:29px;font-family:Roboto-Black, Roboto;font-weight:800;letter-spacing:0.12em;}.cls-13,.cls-9{fill:#fff;}.cls-10{letter-spacing:0.11em;}.cls-11{letter-spacing:0.11em;}.cls-12{letter-spacing:0.12em;}.cls-13{font-size:26.56px;font-family:Lato-Light, Lato;font-weight:300;}.cls-14{letter-spacing:-0.06em;}.cls-15{letter-spacing:-0.01em;}.cls-16{letter-spacing:-0.01em;}.cls-17{letter-spacing:-0.04em;}.cls-18{letter-spacing:-0.03em;}.cls-19{letter-spacing:-0.11em;}</style><linearGradient id="Gradiente_sem_nome_2" x1="897.04" y1="1118.33" x2="1036.34" y2="1112.57" gradientTransform="matrix(1, 0, 0, -1, 0, 1114)" gradientUnits="userSpaceOnUse"><stop offset="0.2" stop-color="#ffa32d"/><stop offset="0.74" stop-color="#ffb12d"/></linearGradient><clipPath id="clip-path"><rect id="SVGID" class="cls-1" x="87.92" y="-39.88" width="106.44" height="164.03" transform="translate(10.24 109.67) rotate(-43.91)"/></clipPath><linearGradient id="Gradiente_sem_nome_2-2" x1="256.49" y1="756.47" x2="468.68" y2="876.6" gradientTransform="matrix(0.93, -0.37, -0.37, -0.93, 227.64, 1182.6)" xlink:href="#Gradiente_sem_nome_2"/></defs><title>02</title><rect class="cls-2" x="-8" y="-1.52" width="1300" height="345.52"/><rect class="cls-1" x="338.24" y="-1.52" width="600" height="300"/><circle class="cls-3" cx="764.32" cy="305.02" r="59.33"/><path class="cls-3" d="M37,146.56a20.51,20.51,0,0,0-7.26,7c-4,6.42-5.25,14.54-4.18,22a32.93,32.93,0,0,0,19,25.29c5.63,2.59,11.87,3.52,17.78,5.39s11.86,5,14.9,10.41c3.39,6.07,2.47,13.77,5.42,20.06,3.08,6.58,9.89,10.57,16.68,13.08,12.24,4.52,26.67,5.31,37.72-1.63,8.87-5.59,14.4-15.46,16.77-25.7,2-8.61,2-17.83-1.06-26.14-3.48-9.57-10.69-17.42-19-23.26-15.15-10.62-32.74-15.43-50.15-20.83-3.29-1-6.55-2.11-9.82-3.23a132.83,132.83,0,0,0-15-4.69C51.47,142.69,43.6,142.75,37,146.56Z"/><path class="cls-4" d="M901.68,32.88A20.61,20.61,0,0,1,897,24c-1.78-7.36-.43-15.48,2.9-22.2a32.31,32.31,0,0,1,1.94-3.39,33.65,33.65,0,0,1,24-14.66c6.16-.68,12.38.39,18.59.48s12.83-1,17.4-5.2c5.13-4.7,6.65-12.3,11.43-17.35,5-5.29,12.7-6.93,20-7.19,13-.44,27,3.36,35.34,13.44,6.68,8.1,8.85,19.24,7.9,29.71-.8,8.82-3.71,17.57-9.17,24.51-6.29,8-15.61,13.19-25.33,16.12-17.71,5.34-36,4.35-54.17,4-3.44-.06-6.89-.08-10.33,0a131.69,131.69,0,0,1-15.77-.28C914.25,41.12,906.78,38.59,901.68,32.88Z"/><path class="cls-5" d="M1108.07,180.64a20.24,20.24,0,0,0-.18-10c-2-7.27-7.1-13.67-13.29-17.92a32.35,32.35,0,0,0-3.35-2,33.92,33.92,0,0,0-28.18-1.15c-5.75,2.38-10.69,6.31-16.1,9.4s-11.75,5.32-17.81,3.88c-6.77-1.61-11.78-7.5-18.43-9.59-6.93-2.18-14.51.1-21,3.39-11.66,5.9-22.11,15.95-24.54,28.75-2,10.27,1.53,21,7.42,29.66,5,7.28,11.76,13.48,19.92,16.89,9.4,3.92,20.08,3.94,30,1.8,18.13-3.92,33.68-13.57,49.52-22.66q4.49-2.57,9.05-5a131,131,0,0,0,13.71-7.86C1101,193.88,1106.35,188.07,1108.07,180.64Z"/><g class="cls-6"><path class="cls-5" d="M120.6-41.85A24.22,24.22,0,0,0,109.07-39c-7.86,4.16-13.93,11.67-17.24,19.83a39.67,39.67,0,0,0-1.46,4.35,39.56,39.56,0,0,0,5.86,32.56c4.22,6,10,10.61,14.92,16s9.12,12.09,9,19.39c-.14,8.16-5.62,15.43-6.34,23.57-.76,8.51,3.81,16.58,9.25,23.16,9.77,11.83,24,21.18,39.38,20.67,12.32-.42,23.8-7.17,32.26-16.17,7.13-7.56,12.54-17,14.38-27.16,2.12-11.78-.57-24-5.59-34.86-9.14-19.75-24.22-35-38.73-50.83q-4.11-4.48-8.07-9.08a153.31,153.31,0,0,0-12.55-13.67C137.65-37.2,129.6-41.8,120.6-41.85Z"/></g><path class="cls-5" d="M512.34,275c0-4.51,1.12-5.64,5.61-5.64h11.22c4.49,0,5.61,1.13,5.61,5.64v21.85c0,18.2-12.7,31-32.71,31s-32.73-12.75-32.73-31V275c0-4.51,1.13-5.64,5.62-5.64h16.83c4.49,0,5.61,1.13,5.61,5.64v22.79a7.48,7.48,0,1,0,15,0V275Z"/><path class="cls-7" d="M1140-26.94c7.08-6.82,15.45-10,23.88-9.62s17.18,4.44,24.95,12.5,11.4,16.85,11.52,25.33S1197,18,1190,24.84l-3.84,3.7c-1.85,1.78-2.68,2.06-3.14,2.05s-1.32-.36-3.14-2.25l-9-9.37c-1.82-1.89-2.14-2.75-2.14-3.22s.32-1.28,2.17-3.07l4.6-4.43a10.5,10.5,0,0,0,.17-15,10.49,10.49,0,0,0-15-.38c-11.13,10.73-11.51,24.46-11.9,38.3v.32c-.42,15.43-1.57,32.2-15.22,47.51a2.71,2.71,0,0,1-4-.05l-15.65-16.22a3.66,3.66,0,0,1,0-4.72c7.69-10.05,8-22.19,8.36-34.36v-.31C1122.68,6.7,1123.21-10.72,1140-26.94Z"/><path class="cls-8" d="M292.13,276.14a49.94,49.94,0,0,1-8.53,10.46c-5.94,5.47-13.27,9.26-20.9,11.93-13.36,4.68-27.55,6.13-41.18,9.76l-.72.19A210.65,210.65,0,0,0,194.73,317c-16,6.66-32.61,18.59-33.21,37.56-.3,9.18,3.92,17.61,12.07,22.14,6.16,3.41,13.34,4.47,20.36,4.85,12.05.67,24.47-.51,35.7-5.14,12.45-5.13,21.95-15,29.83-25.63,6.55-8.86,12.27-18.3,19-27.06,18.72-24.5,45-42.66,62.37-68.15,6.68-9.82,12-21,12.44-32.86.28-8.2-2.41-17.21-9.39-21.53a18.93,18.93,0,0,0-13.69-2.14c-9.29,1.91-16.45,9.69-20.37,18.32-7.14,15.77-6.51,33.68-13.06,49.64A61.85,61.85,0,0,1,292.13,276.14Z"/><text class="cls-9" transform="translate(402.36 81.51)">Descub<tspan class="cls-10" x="118.02" y="0">r</tspan><tspan x="132.06" y="0">a mais sob</tspan><tspan class="cls-11" x="307.36" y="0">r</tspan><tspan class="cls-12" x="321.56" y="0">e nós:</tspan></text><text class="cls-13" transform="translate(402.58 116.68)">Lançado desde 2023 por um grupo de <tspan class="cls-14" x="0" y="31.87">T</tspan><tspan x="13.93" y="31.87">CC do curso de Dese</tspan><tspan class="cls-15" x="250.28" y="31.87">n</tspan><tspan class="cls-16" x="264.31" y="31.87">v</tspan><tspan x="277.01" y="31.87">olvimento de </tspan><tspan x="0" y="63.74">sistemas da escola técnica Etec </tspan><tspan x="0" y="95.61">Aristóteles </tspan><tspan class="cls-17" x="128.69" y="95.61">F</tspan><tspan x="142.89" y="95.61">errei</tspan><tspan class="cls-18" x="197.42" y="95.61">r</tspan><tspan x="207.3" y="95.61">a da cidade de </tspan><tspan x="0" y="127.48">Santos/S</tspan><tspan class="cls-19" x="99.77" y="127.48">P</tspan><tspan x="112.5" y="127.48">. </tspan></text><path class="cls-3" d="M291.88-51.92a20.62,20.62,0,0,0-7.26,7c-4,6.42-5.25,14.54-4.18,22a33.35,33.35,0,0,0,.79,3.83A33.68,33.68,0,0,0,299.44,2.32c5.63,2.59,11.87,3.52,17.78,5.4s11.86,5,14.9,10.41c3.39,6.06,2.47,13.76,5.42,20.06,3.08,6.57,9.89,10.56,16.68,13.07,12.24,4.53,26.67,5.32,37.72-1.63,8.87-5.58,14.4-15.46,16.77-25.69,2-8.62,2-17.83-1.06-26.14-3.48-9.57-10.69-17.42-19-23.26C373.49-36.09,355.9-40.89,338.49-46.3c-3.29-1-6.55-2.1-9.82-3.22a132.83,132.83,0,0,0-15-4.69C306.38-55.78,298.51-55.73,291.88-51.92Z"/></svg>