<svg width="1387" height="316" viewBox="0 0 1387 316" fill="none" xmlns="http://www.w3.org/2000/svg">
<path d="M78.0479 76.4318C78.0479 68.2991 80.0863 66.2659 88.2397 66.2659H108.597C116.75 66.2659 118.788 68.2991 118.788 76.4318V250.751C118.788 283.576 95.7227 306.61 59.4076 306.61C23.0925 306.61 0 283.603 0 250.751V76.4318C0 68.2991 2.03836 66.2659 10.1918 66.2659H40.7405C48.8939 66.2659 50.9323 68.2991 50.9323 76.4318V252.436C50.9323 260.221 56.6987 265.973 64.5035 265.973C72.3083 265.973 78.0747 260.221 78.0747 252.436V76.4318H78.0479Z" fill="#F6FAFE"/>
<path d="M232.454 176.299L254.179 75.763C256.217 67.978 259.596 66.2926 267.75 66.2926H305.406C313.559 66.2926 315.598 68.3258 315.598 76.4586V293.1C315.598 301.233 313.559 303.266 305.406 303.266H274.857C266.704 303.266 264.665 301.233 264.665 293.1V193.206H261.259L240.232 293.742C238.193 301.527 234.814 303.212 226.661 303.212C236.852 303.212 214.43 303.212 224.622 303.212C216.469 303.212 213.089 301.527 211.051 293.742L190.024 193.206H186.617V293.073C186.617 301.206 184.579 303.239 176.426 303.239H156.096C147.942 303.239 145.904 301.206 145.904 293.073V76.4318C145.904 68.2991 147.942 66.2659 156.096 66.2659H194.1C202.254 66.2659 205.633 67.9513 207.672 75.7362L229.048 176.272H232.454V176.299Z" fill="#F6FAFE"/>
<path d="M420.788 303.212C412.635 303.212 410.596 301.179 410.596 293.046V225.363C410.596 219.959 409.228 218.594 403.811 218.594H390.239C384.822 218.594 383.454 219.959 383.454 225.363V293.073C383.454 301.206 381.415 303.239 373.262 303.239H352.905C344.752 303.239 342.713 301.206 342.713 293.073V118.754C342.713 85.9289 365.779 62.895 402.094 62.895C438.409 62.895 461.475 85.9021 461.475 118.754V293.073C461.475 301.206 459.437 303.239 451.283 303.239H420.788V303.212ZM383.454 171.216C383.454 176.62 384.822 177.984 390.239 177.984H403.811C409.228 177.984 410.596 176.62 410.596 171.216V117.042C410.596 109.257 404.83 103.505 397.025 103.505C389.22 103.505 383.454 109.257 383.454 117.042V171.216Z" fill="#F6FAFE"/>
<path d="M559.773 245.775C559.773 255.86 567.255 263.324 577.367 263.324C587.478 263.324 594.961 255.86 594.961 245.775V219.45C594.961 208.91 597.59 206.288 608.157 206.288C594.961 206.288 647.744 206.288 634.548 206.288C645.116 206.288 647.744 208.91 647.744 219.45V243.581C647.744 286.144 617.812 316 570.742 316C523.672 316 493.74 286.144 493.74 243.581V72.4189C493.794 29.8557 523.699 0 570.796 0C617.893 0 647.798 29.8557 647.798 72.4189V96.5496C647.798 107.09 645.169 109.712 634.602 109.712C647.798 109.712 595.015 109.712 608.211 109.712C597.643 109.712 595.015 107.09 595.015 96.5496V70.2252C595.015 60.1395 587.532 52.6756 577.42 52.6756C567.309 52.6756 559.826 60.1395 559.826 70.2252V245.775H559.773Z" fill="#F6FAFE"/>
<path d="M969.001 17.5497C969.001 7.00919 971.63 4.38745 982.197 4.38745H1008.59C1019.16 4.38745 1021.78 7.00919 1021.78 17.5497V243.581C1021.78 286.144 991.852 316 944.782 316C897.712 316 867.78 286.144 867.78 243.581V17.5497C867.78 7.00919 870.409 4.38745 880.976 4.38745H920.563C931.131 4.38745 933.759 7.00919 933.759 17.5497V245.775C933.759 255.861 941.242 263.324 951.353 263.324C961.465 263.324 968.948 255.861 968.948 245.775V17.5497H969.001Z" fill="#F6FAFE"/>
<path d="M1052.6 72.4189C1052.6 29.8557 1082.51 0 1129.6 0C1176.24 0 1206.6 29.8557 1206.6 72.4189V83.3874C1206.6 93.9279 1203.98 96.5496 1193.41 96.5496C1206.6 96.5496 1153.79 96.5496 1167.02 96.5496C1156.45 96.5496 1153.82 93.9279 1153.82 83.3874V70.2252C1153.82 60.5676 1146.34 52.6756 1136.23 52.6756C1126.12 52.6756 1118.63 60.5676 1118.63 70.2252C1118.63 136.063 1206.63 149.225 1206.63 241.387C1206.63 286.144 1176.7 316 1127.43 316C1078.16 316 1048.23 286.144 1048.23 241.387V228.225C1048.23 217.685 1050.86 215.063 1061.42 215.063C1048.23 215.063 1101.04 215.063 1087.82 215.063C1098.38 215.063 1101.01 217.685 1101.01 228.225V243.581C1101.01 255.004 1109.38 263.324 1120.81 263.324C1132.23 263.324 1140.6 254.978 1140.6 243.581C1140.6 177.743 1052.6 164.581 1052.6 72.4189Z" fill="#F6FAFE"/>
<path d="M1334.19 311.613C1323.62 311.613 1320.99 308.991 1320.99 298.45V210.676C1320.99 203.666 1319.22 201.901 1312.2 201.901H1294.6C1287.58 201.901 1285.81 203.666 1285.81 210.676V298.45C1285.81 308.991 1283.18 311.613 1272.61 311.613H1246.22C1235.65 311.613 1233.02 308.991 1233.02 298.45V72.4189C1233 29.8557 1262.9 0 1310 0C1357.07 0 1387 29.8557 1387 72.4189V298.45C1387 308.991 1384.37 311.613 1373.8 311.613H1334.19ZM1285.81 140.45C1285.81 147.46 1287.58 149.225 1294.6 149.225H1312.2C1319.22 149.225 1320.99 147.46 1320.99 140.45V70.2252C1320.99 60.1395 1313.51 52.6756 1303.4 52.6756C1293.29 52.6756 1285.81 60.1395 1285.81 70.2252V140.45Z" fill="#F6FAFE"/>
<path d="M755.59 0C708.52 0 678.588 29.8557 678.588 72.4189V298.45C678.588 308.991 681.216 311.613 691.784 311.613H718.175C728.742 311.613 731.371 308.991 731.371 298.45V210.676C731.371 203.666 733.141 201.901 740.168 201.901H757.762C764.789 201.901 766.559 203.666 766.559 210.676V298.45C766.559 308.991 769.188 311.613 779.755 311.613H819.342C829.91 311.613 832.538 308.991 832.538 298.45V72.4189C832.592 29.8557 802.66 0 755.59 0ZM800.89 105.057C791.395 114.581 781.874 124.078 772.353 133.548L760.23 145.614C759.184 146.63 757.843 147.138 756.475 147.138C755.161 147.138 753.846 146.657 752.827 145.694L756.475 141.788L752.693 145.587L752.264 145.159L712.087 105.084C707.501 100.509 704.658 94.998 703.612 88.7111C701.09 73.3552 710.531 58.7751 725.551 54.7623C728.662 53.9329 731.773 53.6119 734.831 53.7992C742.421 54.254 749.019 57.1432 754.383 62.3867C755.08 63.0555 755.778 63.7511 756.448 64.4467C757.172 63.7243 757.87 63.0288 758.594 62.3332C762.965 58.0796 768.249 55.3508 774.311 54.254C776.59 53.8259 778.897 53.6922 781.177 53.8259C795.07 54.6285 806.549 64.5269 809.097 77.9031C811.135 88.2563 808.265 97.6465 800.89 105.057Z" fill="#F6FAFE"/>
</svg>
