<svg xmlns="http://www.w3.org/2000/svg" viewBox="0 0 577.75 725.57"><defs><style>.cls-1{fill:#0063bf;}.cls-2{fill:#d5e9ed;}.cls-3{fill:#d4bfae;}.cls-4{fill:#a89a92;}.cls-5{fill:#e7dfd1;}.cls-6{fill:#baa497;}.cls-7{fill:#303242;}.cls-8{fill:#434473;}.cls-9{fill:#222047;}.cls-10{fill:#c9072b;}.cls-11{fill:#e60e34;}.cls-12{fill:#330312;opacity:0.7;isolation:isolate;}.cls-13{fill:#c9fff7;}.cls-14{fill:#9c1234;}.cls-15{fill:#ff245b;}.cls-16{fill:#f5f1e6;}.cls-17{fill:#c9b5a5;}.cls-18{fill:#8f847b;}.cls-19{fill:#b8a395;}.cls-20{fill:#f05800;}</style></defs><title>Ativo 1</title><g id="Camada_2" data-name="Camada 2"><g id="Camada_1-2" data-name="Camada 1"><polygon class="cls-1" points="461.69 638.88 155.21 595.6 51.34 295.36 491.1 259.89 461.69 638.88"/><ellipse class="cls-2" cx="307.24" cy="701.96" rx="212.51" ry="23.61"/><path class="cls-3" d="M339.27,362.4c4.16,5.46-12.89,21.54-38.36,21.54s-47.14-6.19-47.14-13.06,21.76-9.77,47.14-11.79C326.65,357,336.6,358.9,339.27,362.4Z"/><path class="cls-4" d="M333.94,364.65c3.63,4.78-11.27,18.83-33.54,18.83s-41.21-5.41-41.21-11.41,19-8.55,41.21-10.32C322.9,360,331.6,361.6,333.94,364.65Z"/><path class="cls-5" d="M339.27,362.4c-22.84,20.73-49.22,23.09-85.5,8.48-14.13,25-34.39,61.71-43.81,148.39,28,28,59.47,45.61,83.38,58.41,24.73,5.54,38.51,4.83,59-3.65,19.17-16.08,42.05-48.4,52.18-78.31C404.52,457.8,363.3,390.67,339.27,362.4Z"/><path class="cls-3" d="M210,519.27c23.77,23.79,50.07,40.07,72.12,52.29,12.62-69.25-1.79-137.61-40.85-176.94C229.43,419.52,216.82,456.15,210,519.27Z"/><path class="cls-6" d="M232.19,464.43c8.94-41,11.71-63.45,10.55-72.94-12.22,24.94-25.62,62-32.78,127.78,28,28,59.47,45.61,83.38,58.41a146.54,146.54,0,0,0,19.51,3.22C301.9,507.68,260.91,477.53,232.19,464.43Z"/><path class="cls-3" d="M367.83,402.65h0c-15.34,53-3.83,92.59,8.48,144.94l.26-.11c11.51-15.53,22-34.06,28-51.76C404.52,470.86,386.8,433.44,367.83,402.65Z"/><path class="cls-4" d="M241.86,393.31c-.41.86-.83,1.73-1.24,2.62,37.95,37.9,51.94,98.59,40.13,174.89l2.64,1.46c6.8-43.13,5.45-81.46-4.09-114.14C271.79,432.41,259,410.38,241.86,393.31Z"/><path class="cls-4" d="M352.3,379.26c-3.08,21.68-13.57,38.58-28.23,43.7-20.81,7.26-47-8.72-74.23-45l-1.49,2.72c28.67,37.94,51.07,46.8,65.72,46.8a32.94,32.94,0,0,0,10.93-1.8c15-5.23,25.87-21.76,29.63-43.08Z"/><path class="cls-6" d="M369.73,405.78c1.48,21.77,8.26,55.29,16.31,90-10.2,10.06-31.38,47.55-37.53,79.76,1.26-.48,2.53-1,3.83-1.53,19.17-16.08,42.05-48.4,52.18-78.31C404.52,471.69,388,435.94,369.73,405.78Z"/><path class="cls-4" d="M377.62,546c-14-46.58-22.09-98.89-8.88-141.87l-2-3.19c-14.64,44.67-6,99.51,8.76,147.89C376.23,547.92,376.93,547,377.62,546Z"/><path class="cls-7" d="M148,106.82c-1.76,11.83-9.53,24.49-26,22.73C97.39,101.39,80.74,69.11,70,42.16c.8-5.74,5.83-11.74,11.41-13C104.69,69.41,128.44,91.45,148,106.82Z"/><path class="cls-8" d="M430.33,254.81c-81.26-12-178.77-2.78-280.17,22.85-35-8.67-68.18-36.94-88.91-78.39,83.85-106.94,265-190.79,429.85-27.8C482.62,209,456.12,237.54,430.33,254.81Z"/><path class="cls-9" d="M419.84,253.4c-75.44-9.29-164-1.11-256.23,21-4.26-1.37-56.9-35.05-89.11-90.89,86.87-96.93,253.21-164.16,407.3-20.92C477.68,190,431.75,248.32,419.84,253.4Z"/><path class="cls-5" d="M334.23,346c-21.19,6.75-41.68,6.63-65.81,3.48-41.45-17.9-158.18-113-190.68-194.27,66.42-82.91,251.55-174.53,399.94-20.49C469.9,207.51,387,301.73,334.23,346Z"/><path class="cls-10" d="M333.88,329.4c-17.92,4.44-33.57,4.59-53.53,2.71-37.06-16-115.35-89.62-146.79-156.75,55.11-64,214.81-102.1,320.38-19.19C444.08,219.8,381.05,289.81,333.88,329.4Z"/><path class="cls-11" d="M194.39,261.86c-24.33-26.49-47.07-57.12-60.83-86.5,55.11-64,214.81-102.11,320.38-19.19-4.27,27.57-18.52,56.33-37.14,83.3C314.21,221,308.56,279.16,194.39,261.86Z"/><path class="cls-12" d="M333.88,329.4c-17.92,4.44-33.57,4.59-53.53,2.71,20.41.27,38.87-1.41,52.12-6.18,46.23-36,107.85-113.8,111.21-166.15-34.87-39.42-183.31-85.67-310.12,15.58,55.11-64,214.81-102.1,320.38-19.19C444.08,219.8,381.05,289.81,333.88,329.4Z"/><polygon class="cls-13" points="367.64 217 342.29 182.49 308.79 212.38 276.67 180.48 251.89 207.64 284.52 234.03 256.59 258.96 276.14 276.16 309.75 254.43 336.61 276.16 357.87 261.12 334.81 238.22 367.64 217"/><path class="cls-5" d="M202.13,707.24c3.12,2.77,8.3,4.07,14.12,3,37.29-40.05,75.6-71.36,91-123.94-1-33.93-35.29-87.8-89.82-114.45C158.82,585.37,190.91,678.94,202.13,707.24Z"/><path class="cls-14" d="M192.62,678.58c6.84-3.71,18.21-13.45,22.48-23.67-8.92,1.16-21.58-.67-28.15-2.43C188.56,662.16,190.55,670.9,192.62,678.58Z"/><path class="cls-15" d="M187.38,655c1.35,7.65,2.92,14.68,4.57,21,6.05-3.12,15.69-10.12,19.44-19.09C203.51,658,193.08,656.52,187.38,655Z"/><path class="cls-16" d="M195.9,689.77c44.25-47.53,58.75-83.72,70.78-116.21,14-33.16-31.71-63.86-59.43-80.17,0,.1-.08.21-.13.31,27.95,22.85,63.8,50.66,56.09,76.91C255.34,597.39,234.1,645.38,195.9,689.77Z"/><path class="cls-17" d="M233.2,692.5c31.43-32.32,61-61.62,74-106.23-.3-10.31-3.69-22.46-9.77-35.12C291.15,610.85,249.66,667.92,233.2,692.5Z"/><path class="cls-18" d="M228.53,697.31,234.7,691c29-41.62,55.65-82.39,63.29-138.69-.37-.79-.73-1.58-1.12-2.36C289.26,610.25,259.74,652.75,228.53,697.31Z"/><path class="cls-4" d="M207.79,492.14c-.38.87-.74,1.74-1.11,2.6,27.23,14.51,61.26,46.09,61.47,61.67.38,29.06-44.22,106.33-71.85,131.14l-.86.75c.31,1,.62,2,.92,2.92.6-.5,1.2-1,1.83-1.57,28.42-25.52,73.18-102.8,72.78-133.28C270.73,538.45,234,506.11,207.79,492.14Z"/><path class="cls-6" d="M228.35,569.86c-32.18-21.36-13.63-60.17,2.23-90.84-4.25-2.56-8.63-5-13.16-7.2-27.48,53.26-35,102.12-34.11,141.91C187,591.06,189.19,577,193.48,569c3.86,3.33,9.48,6.62,18.38,8.95C219.82,578.81,223.6,576.57,228.35,569.86Z"/><path class="cls-5" d="M384.26,701.62c19.16-16.08,120.36-136.85,37-237.19-20.41,17.79-46.71,53.68-71.37,115.89,9.89,38.15,16,85.73,20,120C373.31,702.74,378.61,703.41,384.26,701.62Z"/><path class="cls-17" d="M369.88,700.36a11.81,11.81,0,0,0,3,1.49c11.46-56.76,1.92-103.51-12.73-145.81-3.45,7.61-6.89,15.68-10.3,24.27C359.76,618.47,365.89,666.05,369.88,700.36Z"/><path class="cls-14" d="M425.13,648.13c-5.6,1.64-11.92,1.75-18.35,1.7A171,171,0,0,1,405.36,678,279.36,279.36,0,0,0,425.13,648.13Z"/><path class="cls-15" d="M422.53,652.56a87.42,87.42,0,0,1-13.28.62,163.92,163.92,0,0,1-.58,20.32C413.2,667.29,417.92,660.27,422.53,652.56Z"/><path class="cls-16" d="M395.59,690c12.86-45.36,3.22-91.59-1-115C393,565.8,391.29,559,395,549.7c10-25.19,34.07-56.17,41.66-63-.54-1-1.08-1.92-1.65-2.87C418,498,397.67,532,389.39,551.18c-2.85,6.6-3.26,13.36.94,26.88,13,50.13,8.14,84.64,5.26,111.92Z"/><path class="cls-6" d="M394.2,495.29q-4.27,6-8.67,13c.85,15.7,3.79,37.41-3.3,55.29,10.66,17.69,25,13.37,43.32-2.49,6.08,19.13,5.69,39.46,3.93,48.73A115.22,115.22,0,0,0,442.2,612a183.4,183.4,0,0,0,10.59-43.44C437.4,544.92,412.11,516.42,394.2,495.29Z"/><path class="cls-18" d="M372.24,701.59a12,12,0,0,0,1.36.45c9.46-48.56,5.24-95.37-13-146.92l-.84,1.86C377.47,607.66,381.52,653.78,372.24,701.59Z"/><path class="cls-4" d="M388.7,563.37c-2.53-11.77,22.32-53.9,47-78.35q-.72-1.25-1.47-2.49c-25.57,25-51.06,68.46-48.26,81.43,12.43,57.67,14.2,84.72,8.25,125.82a6,6,0,0,0,0,1.8c1-1.12,2-2.32,3.1-3.58C402.92,647.72,401,620.4,388.7,563.37Z"/><path class="cls-8" d="M147.34,537.17c-7.34-6.78-19.57-11-28-10.62-6.06,21.12,3.48,60.21,7.84,77.09a28,28,0,0,0,16.71,1.79C139.53,572.15,140.45,552.06,147.34,537.17Z"/><path class="cls-9" d="M127.14,603.64a28,28,0,0,0,16.71,1.79c-4.32-33.28-3.4-53.37,3.49-68.26-7.34-6.78-19.57-11-28-10.62-1.56,5.42-2.08,12-1.93,19.13A88.16,88.16,0,0,0,136,568.08a139.16,139.16,0,0,0,5,34.19C136.82,604,134.33,603.65,127.14,603.64Z"/><path class="cls-8" d="M165.64,545.14c-7.34-6.79-19.57-11-28-10.62-6,21.12,3.49,60.2,7.84,77.08a27.83,27.83,0,0,0,16.71,1.79C157.84,580.11,158.76,560,165.64,545.14Z"/><path class="cls-9" d="M145.44,611.6a27.83,27.83,0,0,0,16.71,1.79c-4.31-33.28-3.39-53.36,3.49-68.25-7.34-6.79-19.57-11-28-10.62-2.35,8.22-2.34,19.16-1.2,30.45,6.71,6.21,14.65,8.33,17.87,11.07a138.72,138.72,0,0,0,5,34.19C155.13,612,152.63,611.61,145.44,611.6Z"/><path class="cls-8" d="M184.08,549.73c-7.34-6.78-19.57-11-28-10.62-6.06,21.12,3.49,60.2,7.84,77.09A28,28,0,0,0,180.59,618C176.27,584.71,177.19,564.62,184.08,549.73Z"/><path class="cls-9" d="M163.88,616.2A28,28,0,0,0,180.59,618c-4.32-33.28-3.4-53.37,3.49-68.26-7.34-6.78-19.57-11-28-10.62-2.53,8.82-2.33,20.77-.94,32.93,7,4.51,14.76,6.18,17.61,8.6a138.21,138.21,0,0,0,5,34.19C173.56,616.56,171.07,616.2,163.88,616.2Z"/><path class="cls-8" d="M177.08,543.83c8.58,12.75,20.25,24,38,33.1,7.14-.94,10.38-2.52,13.25-7.07-8.39-12-17.86-32.53-22.71-47.46C196.87,525.26,179.54,535,177.08,543.83Z"/><path class="cls-9" d="M196.72,555.87c1.38-4.26,5.84-10.3,15.92-15.29-2.77-6.35-5.2-12.65-7-18.18-8.77,2.86-26.1,12.63-28.56,21.43,8.58,12.75,20.25,24,38,33.1,7.14-.94,10.38-2.52,13.25-7.07-4.19,3.83-7.77,4.81-12.78,5.27C210.81,572.27,201.29,565.57,196.72,555.87Z"/><path class="cls-5" d="M211.73,382.25C191.35,398,121.49,461.84,112,523.72c5.7,20.48,33.5,44.38,50.35,46.63,23.13-28.94,41.38-31.94,54.59-31.87-.84-17.41,1.4-75.82,18.38-143.3C238.54,382.29,222,374.33,211.73,382.25Z"/><path class="cls-3" d="M208.85,538.93a62.17,62.17,0,0,1,8.06-.45c-.62-12.86.44-48.07,7.88-92.77-4.4,13-15.63,48.7-19.46,62.18C203.59,516.67,205.81,528.5,208.85,538.93Z"/><path class="cls-16" d="M189.35,510.37c10.17-19.93,26.36-65.1,24.57-105.27-.22,49.82-36.54,137.19-53.24,137-22.35-.26-40-25.8-42.93-40.41-.36,1-.69,2-1,2.95,4.74,16.76,18.5,38.15,44.16,40.73C174.66,539.92,184.67,520.69,189.35,510.37Z"/><path class="cls-19" d="M162.32,570.35c23.13-28.94,41.38-31.94,54.59-31.87-.06-1.16-.1-2.52-.12-4-14.61-1.45-29.76-.05-56.39,31.81-21.85-9.2-35.79-23.38-48.43-42.53C117.67,544.2,145.47,568.1,162.32,570.35Z"/><path class="cls-14" d="M139.08,528.08c10.93,8.36,20.69,4.43,20.69,4.43l-37.24-29.1S128.15,519.72,139.08,528.08Z"/><path class="cls-15" d="M140.79,528.29c8.79,6.73,16.64,3.56,16.64,3.56l-29.94-23.39S132,521.57,140.79,528.29Z"/><path class="cls-18" d="M204.64,507.74c-2.23,10.22,1.06,23.57,3.49,31.29l1.44-.18c-2.37-7.57-5.71-20.91-3.55-30.8,2-9.22,13.35-43.56,18-57.41.45-2.88.94-5.81,1.45-8.78l-.83,2.48C224.43,444.85,207.19,496.1,204.64,507.74Z"/><path class="cls-4" d="M183.36,524.65c21.74-36.54,42.54-111.92,27.11-135.79a18,18,0,0,0-2.8-3.36c-.69.57-1.43,1.19-2.18,1.83a15.22,15.22,0,0,1,2.61,3.06c13.65,21.13-4,93.91-27.17,132.81-8.3,14-16.18,21.38-22.31,20.92-8.43-.64-22.45-8.26-31.8-21.12a53.31,53.31,0,0,1-9.21-20.91c-.6,1.66-1.17,3.32-1.69,5a56.3,56.3,0,0,0,8.62,17.58c10,13.69,24.57,21.58,33.87,22.28l.75,0C168.17,547,177.25,534.92,183.36,524.65Z"/><path class="cls-14" d="M338.19,396.64s-2.65,19.51-20.17,21c-18.19,1.6-27-16.38-27-16.38Z"/><path class="cls-15" d="M329.61,399.25s-2,14.68-15.17,15.84c-13.69,1.2-20.34-12.32-20.34-12.32Z"/><path class="cls-8" d="M461.69,527.25c7.55,14.57,9.37,34.59,6.56,68a28,28,0,0,0,16.62-2.54c3.58-17.06,11.36-56.54,4.35-77.36C480.74,515.35,468.72,520.15,461.69,527.25Z"/><path class="cls-9" d="M471,592a138.11,138.11,0,0,0,3.48-34.37A88,88,0,0,0,492,534.4c-.17-7.11-1-13.68-2.79-19-8.48,0-20.5,4.77-27.53,11.87,7.55,14.57,9.37,34.59,6.56,68a28,28,0,0,0,16.62-2.54C477.68,593.07,475.21,593.54,471,592Z"/><path class="cls-8" d="M443.76,536c7.55,14.57,9.38,34.59,6.57,68a27.92,27.92,0,0,0,16.61-2.54c3.59-17.07,11.36-56.54,4.36-77.36C462.82,524.13,450.79,528.93,443.76,536Z"/><path class="cls-9" d="M453.05,600.77a138.66,138.66,0,0,0,3.47-34.38c3.09-2.88,10.93-5.36,17.35-11.87.63-11.33.15-22.26-2.57-30.36-8.48,0-20.51,4.77-27.54,11.87,7.55,14.57,9.38,34.59,6.57,68a27.92,27.92,0,0,0,16.61-2.54C459.76,601.85,457.28,602.32,453.05,600.77Z"/><path class="cls-8" d="M425.55,541.45c7.55,14.57,9.38,34.59,6.57,68a27.94,27.94,0,0,0,16.61-2.54c3.58-17.06,11.36-56.54,4.35-77.36C444.61,529.55,432.58,534.35,425.55,541.45Z"/><path class="cls-9" d="M434.83,606.19a138.11,138.11,0,0,0,3.48-34.37c2.73-2.55,10.41-4.57,17.19-9.38.85-12.21.51-24.16-2.42-32.86-8.47,0-20.5,4.77-27.53,11.87,7.55,14.57,9.38,34.59,6.57,68a27.94,27.94,0,0,0,16.61-2.54C441.54,607.27,439.07,607.74,434.83,606.19Z"/><path class="cls-8" d="M432.28,535.24c-2.86-8.67-20.61-17.66-29.5-20.12-4.16,15.13-12.71,36.07-20.55,48.43,3.08,4.43,6.39,5.85,13.56,6.47C413.13,560.09,424.28,548.36,432.28,535.24Z"/><path class="cls-9" d="M395.79,570c17.34-9.93,28.49-21.66,36.49-34.78-2.86-8.67-20.61-17.66-29.5-20.12-1.54,5.61-3.69,12-6.17,18.48,10.3,4.52,15,10.36,16.59,14.55-4.13,9.9-13.34,17-18,20.09-5-.23-8.65-1-13-4.69C385.31,568,388.62,569.4,395.79,570Z"/><path class="cls-5" d="M496.42,512.22c-12.3-61.39-85-122-106-136.83-10.57-7.45-26.78,1.24-23,14,20,66.64,24.88,124.89,24.83,142.32,13.19-.66,31.56,1.51,56,29.38C465,558.06,491.64,532.93,496.42,512.22Z"/><path class="cls-3" d="M402.43,500.62c-4.47-13.41-16.73-45.82-21.5-57.76,8.85,42.68,11.36,76.3,11.32,88.83a61,61,0,0,1,8.07.09h0C402.89,521.22,404.57,509.3,402.43,500.62Z"/><path class="cls-16" d="M489.65,490.47c-2.23,14.73-18.75,41-41.06,42.3-16.68,1-56.89-84.69-59.37-134.46,0,40.22,18.24,84.61,29.3,104.06,5.13,10.1,16,28.86,30,33.68,25.52-3.74,38.3-25.72,42.29-42.68C490.43,492.4,490.05,491.44,489.65,490.47Z"/><path class="cls-19" d="M450,556.89c-28-30.62-43.25-31.34-57.77-29.24,0,1.52.06,2.88.06,4,13.19-.66,31.56,1.51,56,29.38,16.73-3,43.42-28.14,48.2-48.85C484.66,531.91,471.36,546.71,450,556.89Z"/><path class="cls-14" d="M449.06,523.15s9.93,3.49,20.47-5.36S485,492.4,485,492.4Z"/><path class="cls-15" d="M451.37,522.39s8,2.81,16.46-4.3,12.4-20.42,12.4-20.42Z"/><path class="cls-18" d="M401.05,531.85c2.07-7.82,4.77-21.31,2.07-31.41-3.08-11.53-22.55-60.22-22.75-60.71l-.21-.53q.85,4.05,1.65,8c5.51,13.94,17.59,44.8,19.94,53.62,2.61,9.78-.12,23.26-2.15,30.93Z"/><path class="cls-4" d="M491.72,495.78c-.6-1.65-1.24-3.28-1.91-4.92a53.5,53.5,0,0,1-8.26,21.31c-8.77,13.26-22.42,21.51-30.82,22.54-6.06.75-14.31-6.33-23.23-19.9C402.62,477,381.69,405.08,394.38,383.36a14.6,14.6,0,0,1,2.46-3.18l-2.26-1.73a17.6,17.6,0,0,0-2.65,3.49c-14.33,24.54,9.84,98.9,33.2,134.42,6.46,9.82,15.87,21.23,24.73,21.23a9.83,9.83,0,0,0,1.21-.08c9.26-1.13,23.5-9.66,32.83-23.78A56.5,56.5,0,0,0,491.72,495.78Z"/><polygon class="cls-20" points="436.19 318.51 491.92 353.64 389.54 315.64 436.19 318.51"/><polygon class="cls-20" points="137.28 28.04 136.25 72.54 122.76 0 137.28 28.04"/><polygon class="cls-20" points="61.25 83.99 0 71.14 88.86 104.9 56.05 65.69 61.25 83.99"/><polygon class="cls-20" points="540.6 234.87 517.5 222.25 577.75 180.52 478.8 225.84 503.33 236.91 417.23 282.67 540.6 234.87"/></g></g></svg>