<svg id="Camada_1" data-name="Camada 1" xmlns="http://www.w3.org/2000/svg" xmlns:xlink="http://www.w3.org/1999/xlink" viewBox="0 0 1275 300"><defs><style>.cls-1,.cls-29,.cls-31,.cls-33,.cls-34,.cls-39,.cls-7{fill:none;}.cls-2{fill:#1d7cd4;}.cls-3{fill:#f17e7e;}.cls-4{fill:url(#Gradiente_sem_nome_2);}.cls-5{fill:#efad71;}.cls-6{clip-path:url(#clip-path);}.cls-7{stroke:#f17e7e;stroke-width:4px;}.cls-8{fill:url(#Gradiente_sem_nome_2-2);}.cls-9{font-size:29px;font-family:Roboto-Black, Roboto;font-weight:800;letter-spacing:0.12em;}.cls-11,.cls-35,.cls-9{fill:#fff;}.cls-10{letter-spacing:0.11em;}.cls-11{font-size:26.56px;font-family:Lato-Light, Lato;font-weight:300;}.cls-12{letter-spacing:-0.03em;}.cls-13{fill:#c15538;}.cls-14{fill:#a64930;}.cls-15{fill:#495fa8;}.cls-16{fill:#3e508f;}.cls-17{fill:#1b141c;}.cls-18{fill:#d06c54;}.cls-19{fill:#f06795;}.cls-20{fill:#f99746;}.cls-21{fill:#536cc0;}.cls-22{fill:#ad5b37;}.cls-23{fill:#d67145;}.cls-24{fill:#d69376;}.cls-25{fill:#d98764;}.cls-26{fill:#f2f2f2;}.cls-27{font-size:2.61px;fill:#333;font-family:Montserrat-Bold, Montserrat Bold;font-weight:700;}.cls-28{letter-spacing:-0.08em;}.cls-29{stroke:#c15538;stroke-width:0.69px;}.cls-29,.cls-34{stroke-linecap:round;stroke-linejoin:round;}.cls-30{fill:#d5d5d1;}.cls-31{stroke:#3e508f;}.cls-31,.cls-33,.cls-39{stroke-miterlimit:10;}.cls-32{fill:#d9843c;}.cls-33{stroke:#d9843c;}.cls-34{stroke:#1b141c;stroke-width:0.75px;}.cls-36{fill:#f78d7d;}.cls-37{fill:#b54e71;}.cls-38{fill:#d2675d;}.cls-39{stroke:#b54e71;}</style><linearGradient id="Gradiente_sem_nome_2" x1="1120.8" y1="35.81" x2="1260.1" y2="30.05" gradientTransform="matrix(1, 0, 0, -1, 0, 302)" gradientUnits="userSpaceOnUse"><stop offset="0.2" stop-color="#ffa32d"/><stop offset="0.74" stop-color="#ffb12d"/></linearGradient><clipPath id="clip-path"><rect id="SVGID" class="cls-1" x="126.89" y="-35.57" width="164.03" height="106.44"/></clipPath><linearGradient id="Gradiente_sem_nome_2-2" x1="186.38" y1="93.56" x2="398.57" y2="213.69" gradientTransform="matrix(0.93, -0.37, -0.37, -0.93, 76.22, 399.89)" xlink:href="#Gradiente_sem_nome_2"/></defs><title>01</title><rect class="cls-2" x="-17" width="1303" height="329"/><rect class="cls-1" x="338" width="600" height="300"/><circle class="cls-3" cx="1157.08" cy="17.54" r="59.33"/><path class="cls-3" d="M56.73,240.08a20.51,20.51,0,0,0-7.26,7c-4,6.42-5.25,14.54-4.18,22a32.93,32.93,0,0,0,19,25.29c5.63,2.59,11.87,3.52,17.78,5.39s11.86,5,14.9,10.41c3.39,6.07,2.47,13.77,5.42,20.06,3.08,6.58,9.89,10.57,16.68,13.08,12.24,4.52,26.67,5.31,37.72-1.63,8.87-5.59,14.4-15.46,16.77-25.7,2-8.61,2-17.83-1.06-26.14-3.48-9.57-10.69-17.42-19-23.26-15.15-10.62-32.74-15.43-50.15-20.83-3.29-1-6.55-2.11-9.82-3.23a132.83,132.83,0,0,0-15-4.69C71.23,236.21,63.36,236.27,56.73,240.08Z"/><path class="cls-4" d="M1125.44,303.4a20.61,20.61,0,0,1-4.71-8.93c-1.78-7.36-.43-15.48,2.9-22.2a32.31,32.31,0,0,1,1.94-3.39,33.65,33.65,0,0,1,24-14.66c6.16-.68,12.38.39,18.59.48s12.83-1,17.4-5.2c5.13-4.7,6.65-12.3,11.43-17.35,5-5.29,12.7-6.93,20-7.19,13-.44,27,3.36,35.34,13.44,6.68,8.1,8.85,19.24,7.9,29.71-.8,8.82-3.71,17.57-9.17,24.51-6.29,8-15.61,13.19-25.33,16.12-17.71,5.34-36,4.35-54.17,4-3.44-.06-6.89-.08-10.33,0a131.69,131.69,0,0,1-15.77-.28C1138,311.64,1130.54,309.11,1125.44,303.4Z"/><path class="cls-5" d="M970.83,7.16a20.24,20.24,0,0,0-.18-10c-2-7.27-7.1-13.67-13.29-17.92a32.35,32.35,0,0,0-3.35-2A33.92,33.92,0,0,0,925.83-24c-5.75,2.38-10.69,6.31-16.1,9.4S898-9.25,891.92-10.69c-6.77-1.61-11.78-7.5-18.43-9.59-6.93-2.18-14.51.1-21,3.39C840.84-11,830.39-.94,828,11.86c-2,10.27,1.53,21,7.42,29.66,5,7.28,11.76,13.48,19.92,16.89,9.4,3.92,20.08,3.94,30,1.8,18.13-3.92,33.68-13.57,49.52-22.66q4.49-2.56,9-5a131,131,0,0,0,13.71-7.86C963.78,20.4,969.11,14.59,970.83,7.16Z"/><g class="cls-6"><path class="cls-5" d="M134.15-25.79a24.29,24.29,0,0,0-6,10.24c-2.45,8.55-1.25,18.14,2.34,26.18a36.53,36.53,0,0,0,2.12,4.07,39.57,39.57,0,0,0,27.52,18.36c7.22,1.09,14.57.15,21.87.35s15,1.81,20.21,7c5.78,5.76,7.22,14.75,12.59,20.92,5.6,6.44,14.59,8.75,23.09,9.39,15.31,1.17,31.92-2.61,42.2-14,8.25-9.17,11.35-22.12,10.74-34.46-.51-10.38-3.52-20.79-9.6-29.19-7-9.7-17.7-16.25-29-20.16-20.57-7.11-42-6.85-63.48-7.35-4.05-.09-8.11-.25-12.14-.48-6.18-.34-12.38-.84-18.55-.43C149.33-34.85,140.43-32.25,134.15-25.79Z"/></g><path class="cls-5" d="M512.1,276.52c0-4.51,1.12-5.64,5.61-5.64h11.22c4.49,0,5.61,1.13,5.61,5.64v21.85c0,18.2-12.7,31-32.71,31s-32.73-12.75-32.73-31V276.52c0-4.51,1.13-5.64,5.62-5.64h16.83c4.49,0,5.61,1.13,5.61,5.64v22.79a7.48,7.48,0,1,0,14.95,0V276.52Z"/><path class="cls-7" d="M640.79,278.58c7.08-6.82,15.45-10,23.88-9.62s17.18,4.44,25,12.5,11.4,16.85,11.52,25.33-3.36,16.75-10.43,23.57l-3.84,3.7c-1.85,1.78-2.68,2.06-3.14,2.05s-1.32-.36-3.14-2.25l-9-9.37c-1.82-1.89-2.14-2.75-2.14-3.22s.32-1.28,2.17-3.07l4.6-4.43a10.67,10.67,0,0,0-14.81-15.37c-11.13,10.73-11.51,24.46-11.9,38.3V337c-.42,15.43-1.57,32.2-15.22,47.51a2.71,2.71,0,0,1-4,0L614.6,368.26a3.66,3.66,0,0,1,0-4.72c7.69-10.05,8-22.19,8.36-34.36v-.31C623.44,312.22,624,294.8,640.79,278.58Z"/><path class="cls-8" d="M322.89,134.66a49.94,49.94,0,0,1-8.53,10.46c-5.94,5.47-13.27,9.26-20.9,11.93-13.36,4.68-27.55,6.13-41.18,9.76l-.72.19a210.65,210.65,0,0,0-26.07,8.54c-16,6.66-32.61,18.59-33.21,37.56-.3,9.18,3.92,17.61,12.07,22.14,6.16,3.41,13.34,4.47,20.36,4.85,12,.67,24.47-.51,35.7-5.14,12.45-5.13,21.95-15,29.83-25.63,6.55-8.86,12.27-18.3,19-27.06,18.72-24.5,45-42.66,62.37-68.15,6.68-9.82,12-21,12.44-32.86.28-8.2-2.41-17.21-9.39-21.53a18.93,18.93,0,0,0-13.69-2.14c-9.29,1.91-16.45,9.69-20.37,18.32-7.14,15.77-6.51,33.68-13.06,49.64A61.85,61.85,0,0,1,322.89,134.66Z"/><text class="cls-9" transform="translate(402.12 83.03)">Doar é um a<tspan class="cls-10" x="193.87" y="0">t</tspan><tspan x="206.88" y="0">o de gentileza</tspan></text><text class="cls-11" transform="translate(402.34 118.2)">Cadastre-se hoje e doe pa<tspan class="cls-12" x="290.06" y="0">r</tspan><tspan x="299.94" y="0">a </tspan><tspan x="0" y="31.87">uma instituição de sua escolha</tspan></text><path class="cls-13" d="M751,283.21,769,257.64l-1.11,2.26a70,70,0,0,1,.93-7.83c.41-2.59,1-5.15,1.52-7.7s1.24-5.07,2-7.57a68.94,68.94,0,0,1,2.61-7.43,6.1,6.1,0,0,1,11.69,2.8,67.37,67.37,0,0,1-1,7.8c-.45,2.58-1,5.13-1.65,7.66s-1.32,5.06-2.12,7.55a70.21,70.21,0,0,1-2.73,7.41l-.77,1.75a2.23,2.23,0,0,1-.33.51l-21.05,23.07a3.77,3.77,0,0,1-5.87-4.71Z"/><polygon class="cls-14" points="768.5 257.22 777.67 259.32 778.48 262.56 768.34 258.78 768.5 257.22"/><path class="cls-15" d="M786.06,237.44s-2.65,13-5.06,22.06l-13.35-3L771,235.77l8.59-2.49Z"/><polygon class="cls-16" points="767.14 255.04 781.72 258.37 781.28 260.12 767 256.87 767.14 255.04"/><path class="cls-17" d="M779.52,166.48a3.52,3.52,0,0,0,2,.18,1.84,1.84,0,0,0,1.38-1.36,2.19,2.19,0,0,0-.7-1.82A2.17,2.17,0,0,0,784,163a1.71,1.71,0,0,0,.21-1.62A4.09,4.09,0,0,0,782,159a5.21,5.21,0,0,0-3.2-.47,5.59,5.59,0,0,0,1-1.54,2,2,0,0,0-.1-1.78,2.19,2.19,0,0,0-1.52-.83,5.19,5.19,0,0,0-3,.5,11.92,11.92,0,0,0-2.45,1.67,3.16,3.16,0,0,0-1-2.27,2,2,0,0,0-1.6-.18,4,4,0,0,0-1.41.82,7.6,7.6,0,0,0-2.66,5.89c-.35-.56-.77-1.17-1.42-1.26a1.4,1.4,0,0,0-1.11.39,2.8,2.8,0,0,0-.67,1,6.66,6.66,0,0,0,.21,6.08,1.08,1.08,0,0,0-1.41-.64,1.62,1.62,0,0,0-.93,1.36,3.43,3.43,0,0,0,.35,1.69,7.72,7.72,0,0,0,5.16,4.32,6.27,6.27,0,0,0,3.84-.37,16.44,16.44,0,0,0,3.54-2A57.07,57.07,0,0,0,779.52,166.48Z"/><path class="cls-18" d="M804.88,162.37l-10.49-21.12a3.26,3.26,0,0,0-6,2.53l7.17,20.38c-1.19,1.17-2.35,2.37-3.5,3.57-.87.92-1.74,1.85-2.59,2.79s-1.71,1.87-2.55,2.82c-1.7,1.89-3.34,3.82-5,5.78s-3.17,4-4.61,6.06a5.14,5.14,0,0,0,7.74,6.66c1.86-1.74,3.6-3.59,5.31-5.46s3.36-3.8,5-5.76c.81-1,1.62-2,2.41-3s1.59-2,2.37-3c1.47-1.89,2.92-3.8,4.3-5.78A7.32,7.32,0,0,1,804.88,162.37Z"/><path class="cls-13" d="M805.18,167.88a4.26,4.26,0,0,0,.31-4.3l-.61-1.21a7.32,7.32,0,0,0-.42,6.54l.24-.34Z"/><path class="cls-19" d="M785.13,116A5,5,0,0,0,784,112.3a4.54,4.54,0,0,0-3.77-1.27,8,8,0,0,0-3.77,1.57,5.46,5.46,0,0,1-2.52,1.35,7.06,7.06,0,0,1-2.69-.7,6.37,6.37,0,0,0-8.33,6.3l21.38.22A14.42,14.42,0,0,0,785.13,116Z"/><path class="cls-20" d="M794.91,122.07a2.93,2.93,0,0,0,.58-3.12,4,4,0,0,0-2.42-2.18,6.67,6.67,0,0,0-3.32-.18,12,12,0,0,1-3.64.51c-2.3-.3-3.84-2.64-6.08-3.28a5.52,5.52,0,0,0-4.93,1.26,10.27,10.27,0,0,0-2.85,4.4c3.68,2,7.63,4,11.82,4.36C787.59,124.2,792.37,124.52,794.91,122.07Z"/><path class="cls-21" d="M777.1,122.75a7.54,7.54,0,0,0-.43-3.68,4.47,4.47,0,0,0-2.57-2.56,5.58,5.58,0,0,0-3.62.23c-1.16.42-2.25,1-3.42,1.42a5.31,5.31,0,0,1-3.62.13c-1.23-.48-2.1-1.59-3.24-2.26a4.94,4.94,0,0,0-7.3,5.35c7.09.46,14,2.61,21.14,2.71A4,4,0,0,0,777.1,122.75Z"/><rect class="cls-22" x="753.01" y="119.5" width="33.8" height="29.22"/><rect class="cls-23" x="771.1" y="119.5" width="24.6" height="29.22"/><rect class="cls-24" x="782.11" y="119.5" width="2.58" height="29.22"/><rect class="cls-25" x="759.97" y="119.5" width="2.58" height="29.22"/><polygon class="cls-22" points="799.86 129.39 775.26 129.39 771.1 119.5 795.7 119.5 799.86 129.39"/><polygon class="cls-23" points="748.85 129.39 766.94 129.39 771.1 119.5 753.01 119.5 748.85 129.39"/><rect class="cls-26" x="774.52" y="135.24" width="18.27" height="3.94" transform="translate(-10.97 98.37) rotate(-7.13)"/><text class="cls-27" transform="translate(776.15 138.95) rotate(-7.13)">DON<tspan class="cls-28" x="5.25" y="0">A</tspan><tspan x="6.65" y="0">TION</tspan></text><rect class="cls-18" x="769.66" y="176.33" width="8.08" height="10.89"/><path class="cls-13" d="M777.74,176.33v3.36c-1.84.08-6.06-.11-7.78-3.35h7.78Z"/><path class="cls-18" d="M785.26,219.45H763.15l-.88-30a5.84,5.84,0,0,1,3.62-5.86l8-2.7,8.61,2.75a5.82,5.82,0,0,1,3.69,5.88Z"/><path class="cls-18" d="M782.87,237.28H765.54c-2.37,0-4.12-3.08-3.76-6.53l1.43-13.4h22l1.43,13.4C787,234.2,785.24,237.28,782.87,237.28Z"/><path class="cls-13" d="M744.71,165.37,744,167a4.1,4.1,0,0,0,.41,3.81l.54.79.33.48C746.34,169.88,745.71,167.44,744.71,165.37Z"/><path class="cls-18" d="M770.29,185.73c-1.28-1.9-2.68-3.68-4.11-5.45s-2.92-3.47-4.46-5.15c-.75-.84-1.52-1.68-2.3-2.51s-1.55-1.65-2.34-2.47q-1.58-1.64-3.21-3.21l5.92-24.63a2.67,2.67,0,0,0-5.08-1.63l-10,24.69c1,2.07,1.63,4.51.6,6.75,1.19,1.72,2.44,3.38,3.71,5,.7.9,1.4,1.79,2.12,2.67s1.43,1.76,2.16,2.63c1.44,1.75,3,3.46,4.47,5.14s3.12,3.31,4.81,4.84a5.14,5.14,0,0,0,7.71-6.69Z"/><path class="cls-18" d="M784.61,257.54a10.63,10.63,0,0,1,.82-1.73c-.68-1.93-1.46-3.82-2.26-5.69-1-2.4-2.16-4.76-3.33-7.09s-2.42-4.63-3.73-6.89a73.68,73.68,0,0,0-4.26-6.62,5.65,5.65,0,0,0-9.93,5.11c.83,2.51,1.85,4.92,2.91,7.31s2.23,4.73,3.45,7,2.49,4.59,3.83,6.84c1.24,2,2.51,4,3.92,6l2.8,29.41a3.5,3.5,0,0,0,7-.24l.68-27.64C784.53,262.15,784.15,259.85,784.61,257.54Z"/><path class="cls-13" d="M786.49,263.32l.09-3.57a2.48,2.48,0,0,0-.1-.71l-.49-1.55c-.18-.57-.37-1.12-.56-1.68a10.63,10.63,0,0,0-.82,1.73C784.15,259.85,784.53,262.15,786.49,263.32Z"/><path class="cls-18" d="M781.81,168.61c0-5.34-3.57-9.66-8-9.66s-8,4.32-8,9.66a11.29,11.29,0,0,0,1.07,4.85,9.15,9.15,0,0,0,2.84,3.45,6.8,6.8,0,0,0,2.57,1.16,10,10,0,0,0,1.89.12c.68,0,1.36,0,2,0a8.36,8.36,0,0,0,2.39-.33,4.45,4.45,0,0,0,1.77-1.15,4.89,4.89,0,0,0,1.28-3.31V170A12.44,12.44,0,0,0,781.81,168.61Z"/><path class="cls-18" d="M767.64,168.54a1.74,1.74,0,0,0-1.63-.75,2.27,2.27,0,0,0-1.6.87,2.53,2.53,0,0,0-.48,1.62,2.64,2.64,0,0,0,.63,1.64,2.38,2.38,0,0,0,1.74.78,1.75,1.75,0,0,0,1.59-.91Z"/><path class="cls-29" d="M766.1,171.68a2.89,2.89,0,0,0-.2-3"/><path class="cls-29" d="M766.29,170a2.09,2.09,0,0,0-1.15,1.13"/><path class="cls-17" d="M778.15,291.67a1,1,0,0,0,0,.17c0,.36,0,.75,0,1.14l.06.83c0,.4.06.8.1,1.19.07.85.16,1.65.23,2.3.1.91.18,1.52.18,1.52l19.94,0a1.23,1.23,0,0,0,0-1.5,9.35,9.35,0,0,0-4.89-3.87,12.75,12.75,0,0,1-5.6-3.39l-.1-.12a8.61,8.61,0,0,1-.88-1.12.57.57,0,0,1-.08-.13c-.13-.19-.25-.38-.37-.57-.42-.69-1.06-.38-1.71.25a4.78,4.78,0,0,1-5.2,1,2.25,2.25,0,0,0-1.36-.29c-.2.08-.32.55-.36,1.24C778.15,290.66,778.14,291.14,778.15,291.67Z"/><path class="cls-30" d="M778.59,297.3c-.06.91-.05,1.52-.05,1.52l20.18,0a1.24,1.24,0,0,0,0-1.5Z"/><path class="cls-30" d="M785.68,290.21l.61.78a.29.29,0,0,0,.41.05l1.43-1.12a8.61,8.61,0,0,1-.88-1.12.57.57,0,0,1-.08-.13l-1.44,1.13A.29.29,0,0,0,785.68,290.21Z"/><path class="cls-30" d="M778.15,291.67a1,1,0,0,0,0,.17l.45.06a.3.3,0,0,0,.33-.26l.12-1a.3.3,0,0,0-.26-.33l-.63-.07C778.15,290.66,778.14,291.14,778.15,291.67Z"/><path class="cls-30" d="M784.29,293.77a1.52,1.52,0,1,1-1.51-1.51A1.51,1.51,0,0,1,784.29,293.77Z"/><path class="cls-17" d="M764.41,297.75a.61.61,0,0,0-.07-.1,9.25,9.25,0,0,0-4.89-3c-.42-.11-.8-.22-1.17-.34h0a11.71,11.71,0,0,1-.6-4c0-.05,0-.1,0-.15a8.78,8.78,0,0,1,.17-1.41.4.4,0,0,1,0-.15c.05-.23.1-.44.14-.66.2-.78-.48-1-1.38-1a4.77,4.77,0,0,1-4.36-3,2.14,2.14,0,0,0-.76-1.16c-.2-.09-.6.16-1.12.62-.3.27-.65.6-1,1a.74.74,0,0,0-.12.13l-.78.83-.55.63c-.25.31-.51.61-.76.91-.55.66-1.06,1.29-1.46,1.8-.58.71-1,1.2-1,1.2l9,9,1-1,.74.16,1.58.26v.58h7.21A.78.78,0,0,0,764.41,297.75Z"/><path class="cls-30" d="M755.76,288.63l-.12,1a.29.29,0,0,0,.26.33l1.79.22c0-.5.1-1,.17-1.41,0-.05,0-.1,0-.15l-1.81-.22A.3.3,0,0,0,755.76,288.63Z"/><path class="cls-30" d="M749.41,284.33a.74.74,0,0,0-.12.13l.28.36a.29.29,0,0,0,.41.05l.78-.61a.29.29,0,0,0,0-.41l-.39-.5C750.12,283.62,749.77,284,749.41,284.33Z"/><circle class="cls-30" cx="751.19" cy="289.09" r="1.51"/><path class="cls-30" d="M764.41,297.75h-9.55l-9.12-9.12c-.69.59-1.12,1-1.12,1l9.17,9.16h10.54A.78.78,0,0,0,764.41,297.75Z"/><path class="cls-18" d="M758.14,145.85s3.6-6.55,4.61-8a9.28,9.28,0,0,0,1.61-3.21c0-.46-1.35,0-2.76,2.19,0,0,1.57-2.76,1.56-4.32s-2.29,2.26-2.85,3.63c0,0,1.45-3.61,1.26-5.22s-2.32,2.82-2.84,4.7c0,0,.77-3.88.36-5s-1.62,3.11-1.88,4.87-1,2.06-1.15,1.74a15.41,15.41,0,0,1-.86-2.35c-.11-.45-.93-1.41-1.17-.76a6.93,6.93,0,0,0,.22,2.31c.4,1.92.7,5.25.3,6.66s-.63,1.95-.63,1.95Z"/><path class="cls-17" d="M763.35,169.83a6,6,0,0,0,3.28,1.34,3,3,0,0,0,2-.42,2,2,0,0,0,0-3.22A6.76,6.76,0,0,0,771,168a2.84,2.84,0,0,0,2.22-.9,1.78,1.78,0,0,0,.06-2.26,7,7,0,0,0,1.83,1.26,2.35,2.35,0,0,0,2.16,0,1.76,1.76,0,0,0,.8-1.9,5.88,5.88,0,0,0,2.65,2.12,1.72,1.72,0,0,0,1.31.1,1.27,1.27,0,0,0,.66-1.13,3.1,3.1,0,0,0-.32-1.33,10.72,10.72,0,0,0-5.88-5.78,8.81,8.81,0,0,0-8.08.94c-2.42,1.73-3.66,4.64-4.73,7.41C763.28,167.57,762.52,169.15,763.35,169.83Z"/><path class="cls-21" d="M785.54,218a65.8,65.8,0,0,1-22.7.07l-1.92,13.37a14.42,14.42,0,0,0,1,7.05c2.23,5.31,6.79,15.42,11.4,21l12.11-6.65-7-15.41h7.56a28.58,28.58,0,0,0,.55-9.31Z"/><polygon class="cls-16" points="772.12 258.86 785.22 251.64 786.06 253.24 773.24 260.33 772.12 258.86"/><path class="cls-31" d="M774,258.56c0-.2-7.53-15.13-10.57-21.15a9,9,0,0,1-.88-5.22l1.21-8.93"/><path class="cls-31" d="M762.58,223s3.26,1.77,6.32-2.53"/><path class="cls-31" d="M785.64,223.43c-1.18-.13-2.7-.79-4.18-2.87"/><line class="cls-31" x1="776.59" y1="220.22" x2="776.59" y2="231.64"/><path class="cls-31" d="M774.21,220.61l.25,5a2.87,2.87,0,0,0,2.87,2.72h0"/><path class="cls-31" d="M784.71,237.44h-6.45l4.78,10"/><path class="cls-20" d="M786.71,220.49c-.06-9.33.16-19.93.1-29.25l11.81-13.05-9.76-8.07L779.38,182l-.46-.2a5.65,5.65,0,0,1-10.14.29l-.58.28-8.21-10-9.61,7.38,11.43,12.87c.12,8.75-.23,19-.1,27.71A175.29,175.29,0,0,0,786.71,220.49Z"/><polygon class="cls-32" points="761.16 172.7 750.81 181.5 749.04 179.11 759.8 171.1 761.16 172.7"/><polyline class="cls-32" points="787.02 170.24 798.62 179.71 799.88 177.62 788.72 168.57 787.02 170.24"/><rect class="cls-32" x="766.45" y="193.4" width="16.11" height="5.56" rx="2.46"/><path class="cls-33" d="M761.88,192.44a9.27,9.27,0,0,0,4.27-3.5"/><path class="cls-33" d="M786.56,191.48a7.1,7.1,0,0,1-3.58-2.85"/><path class="cls-33" d="M767.71,214.36a26.13,26.13,0,0,0,12.54-10"/><path class="cls-33" d="M772.27,217.31a18.33,18.33,0,0,0,5.37-6.08"/><polygon class="cls-13" points="758.74 171.89 750 178.4 748.46 176.41 757.87 170.97 758.74 171.89"/><polygon class="cls-13" points="790.18 169.75 798.62 176.59 800.41 174.37 790.96 168.91 790.18 169.75"/><polygon class="cls-13" points="784.75 253.97 774.43 259.67 775.61 261.2 785.04 254.75 784.75 253.97"/><ellipse class="cls-17" cx="779.89" cy="169.69" rx="0.6" ry="0.77"/><ellipse class="cls-17" cx="774.5" cy="169.69" rx="0.6" ry="0.77"/><path class="cls-34" d="M777.35,169.14a2.41,2.41,0,0,0,.23,1.58c.16.28.37.53.53.81a1.39,1.39,0,0,1,.24.92c-.08.53-.58.87-1,1.14"/><path class="cls-17" d="M780.94,168.47a.87.87,0,0,0,.32-.11.31.31,0,0,0,.15-.29c0-.17-.23-.25-.4-.29a4.8,4.8,0,0,0-2-.07c-.17,0-.46.11-.41.34s.3.23.45.27A5,5,0,0,0,780.94,168.47Z"/><path class="cls-17" d="M773.43,168.47a.87.87,0,0,1-.32-.11.3.3,0,0,1-.14-.29c0-.17.22-.25.39-.29a4.8,4.8,0,0,1,2-.07c.18,0,.46.11.41.34s-.3.23-.45.27A5,5,0,0,1,773.43,168.47Z"/><path class="cls-35" d="M779.19,174.29a14.93,14.93,0,0,1-4,0,2,2,0,0,0,.8,2,2.13,2.13,0,0,0,2.19,0A2.42,2.42,0,0,0,779.19,174.29Z"/><path class="cls-36" d="M836.55,182.3a18,18,0,0,0-.36-3,3.7,3.7,0,0,0-1.47-2.43,1.81,1.81,0,0,0-1.36-.32,1.08,1.08,0,0,0-.65.45,38.67,38.67,0,0,1-3.3-3.78,5.7,5.7,0,0,0-.76-.71,1.15,1.15,0,0,0-.36-.2.47.47,0,0,0-.43.08.47.47,0,0,0-.13.43,1.3,1.3,0,0,0,.18.42c.77,1.37,1.68,2.53,2.55,4h0c-1-.64-1.76-1.43-2.71-2.12a9.94,9.94,0,0,0-.83-.62,1.08,1.08,0,0,0-.38-.17.43.43,0,0,0-.5.57,1,1,0,0,0,.22.4,25.07,25.07,0,0,0,2.91,2.79h0a1.58,1.58,0,0,0-.88.69,1.13,1.13,0,0,0,0,1,1.64,1.64,0,0,0-.54.54c-.17,1.12.69,2,1.55,2.74a7.83,7.83,0,0,0,2.75,1.38.67.67,0,0,0,.06.12l3.87,6.21,3.31-1.44c.85-.37,1.7-.76,2.54-1.16Z"/><path class="cls-37" d="M845.21,206.72l.24.38a4.59,4.59,0,0,0,6.59,1.29l.19-.14A8.17,8.17,0,0,0,845.21,206.72Z"/><path class="cls-36" d="M862,276.86c-1.79-.13-3.57-.31-5.35-.5l1.53,19.79a3.17,3.17,0,0,0,6.33,0L866,277.07Q864,277,862,276.86Z"/><path class="cls-17" d="M865.2,293.74c0,.38,0,.78-.05,1.19,0,.25,0,.51,0,.76s-.06.73-.09,1.08c-.07.78-.15,1.5-.21,2.09-.1.83-.16,1.39-.16,1.39l-18.14,0a1.13,1.13,0,0,1,0-1.37,8.57,8.57,0,0,1,4.45-3.51,11.65,11.65,0,0,0,5.1-3.09l.09-.11a10.09,10.09,0,0,0,.8-1L857,291l.33-.52c1-1.62,3.39,2.8,3.39,2.8s3.23-2.29,4.14-2C865.15,291.45,865.23,292.45,865.2,293.74Z"/><path class="cls-30" d="M864.8,298.86c.05.83.05,1.39.05,1.39l-18.35,0a1.12,1.12,0,0,1,0-1.37Z"/><path class="cls-30" d="M858.35,292.42l-.55.7a.27.27,0,0,1-.38.05l-1.29-1a10.09,10.09,0,0,0,.8-1L857,291l1.3,1A.27.27,0,0,1,858.35,292.42Z"/><path class="cls-30" d="M865.15,294.93c0,.25,0,.51,0,.76a6.88,6.88,0,0,1-2.26.91,6.37,6.37,0,0,1-1.69.14c-.56,0-1.09-.08-1.59-.1a3.87,3.87,0,0,0-1.35.14,3.43,3.43,0,0,0-1.14.62,3.8,3.8,0,0,0-1.31,2.17L854,299.1a5.54,5.54,0,0,1,2.22-3,4.72,4.72,0,0,1,3.5-.72c.56.08,1.07.2,1.56.26a5.57,5.57,0,0,0,1.47,0A6.17,6.17,0,0,0,865.15,294.93Z"/><path class="cls-16" d="M856.06,252l-1.2,4.1a6.13,6.13,0,0,0-.24,2.13l.12,2.25C857.51,258.25,856.73,255.1,856.06,252Z"/><path class="cls-15" d="M872.27,226.9l-9.54,2.31L856.06,252c.67,3.06,1.45,6.21-1.32,8.48l1.39,24.05H866l2.08-24.91L879.36,232Z"/><polygon class="cls-16" points="855.42 283.22 866.96 282.97 866.8 285.95 855.74 285.65 855.42 283.22"/><polyline class="cls-31" points="864.53 284.46 866 259.39 872.61 245.31"/><path class="cls-17" d="M864.34,162a3.71,3.71,0,0,1,1.73,3.34,14.77,14.77,0,0,1-.77,3.87,7.21,7.21,0,0,0-.23,3.9c.54,1.85,2.28,3.1,3,4.88a6.29,6.29,0,0,1,.07,4.26,13,13,0,0,1-2.09,3.79,10.52,10.52,0,0,0,6.94-3.41,10.39,10.39,0,0,0,1.84-6.74,17.44,17.44,0,0,0-2.68-9.38C870.35,163.74,867.61,162.45,864.34,162Z"/><path class="cls-17" d="M869.33,165.38a9.27,9.27,0,0,1-6.61-5.92,8.5,8.5,0,0,1,2-8.57,7.83,7.83,0,0,1,8.57-1.5c2.26,1.07,3.88,3.24,6.19,4.19a25.74,25.74,0,0,0,5,1c1.67.33,3.42,1.09,4.15,2.62,1.25,2.62-1.13,5.57-1,8.47.08,2.1,1.45,3.89,2.67,5.61s2.38,3.73,2,5.8c-.42,2.23-2.54,3.81-3.11,6a7.13,7.13,0,0,0,1,5.14c.87,1.56,2,2.95,2.85,4.53a13,13,0,0,1-10.56,19.07C880.42,195.55,873,181.37,869.33,165.38Z"/><rect class="cls-36" x="871.55" y="173.82" width="8.83" height="11.9"/><path class="cls-38" d="M871.55,173.82v3.68c2,.09,6.62-.12,8.5-3.66l-1.29,0Z"/><path class="cls-36" d="M867.1,165.39c0-5.83,3.9-10.56,8.71-10.56s8.71,4.73,8.71,10.56a12.17,12.17,0,0,1-1.18,5.3,9.85,9.85,0,0,1-3.09,3.77,7.53,7.53,0,0,1-2.81,1.27,10.24,10.24,0,0,1-2.07.12c-.74,0-1.49,0-2.23,0a9.56,9.56,0,0,1-2.61-.36,4.82,4.82,0,0,1-1.93-1.27,5.29,5.29,0,0,1-1.41-3.6v-3.71A14.74,14.74,0,0,1,867.1,165.39Z"/><path class="cls-18" d="M882.58,165.31a1.93,1.93,0,0,1,1.78-.82,2.47,2.47,0,0,1,1.76,1,2.7,2.7,0,0,1,.51,1.77A2.81,2.81,0,0,1,886,169a2.62,2.62,0,0,1-1.9.85,1.9,1.9,0,0,1-1.74-1Z"/><path class="cls-29" d="M884.27,168.75a3.17,3.17,0,0,1,.21-3.31"/><path class="cls-29" d="M884.06,166.88a2.3,2.3,0,0,1,1.26,1.23"/><path class="cls-36" d="M873.85,281.91c.22,1.62.43,3.24.65,4.86.47,3.37.94,6.74,1.47,10.11a3.18,3.18,0,0,0,6.32-.34c.16-3.41.25-6.81.35-10.22,0-1.64.08-3.29.11-4.93C879.79,281.6,876.82,281.79,873.85,281.91Z"/><path class="cls-36" d="M866.73,220.36h18l3.89-29.23c.48-3.59-.83-7-3.29-8.08l-9.16-4.1-9.94,4.17c-2.5,1.06-3.86,4.47-3.37,8.11Z"/><path class="cls-18" d="M866.48,232.6H885c2.53,0,3.79-3.62,2.81-7.31l-3.06-11.5h-18l-3.05,11.5C862.7,229,864,232.6,866.48,232.6Z"/><path class="cls-17" d="M883,293.74c0,.38,0,.78,0,1.19,0,.25,0,.51-.05.76s0,.73-.09,1.08c-.07.78-.14,1.5-.21,2.09-.09.83-.16,1.39-.16,1.39l-18.14,0a1.14,1.14,0,0,1,0-1.37,8.5,8.5,0,0,1,4.44-3.51,11.65,11.65,0,0,0,5.1-3.09l.09-.11a8.83,8.83,0,0,0,.8-1,.75.75,0,0,0,.07-.12c.12-.18.23-.35.33-.52,1-1.62,3.39,2.8,3.39,2.8s3.23-2.29,4.14-2C883,291.45,883.05,292.45,883,293.74Z"/><path class="cls-30" d="M882.62,298.86c.06.83,0,1.39,0,1.39l-18.35,0a1.12,1.12,0,0,1,0-1.37Z"/><path class="cls-30" d="M876.17,292.42l-.55.7a.27.27,0,0,1-.38.05l-1.29-1a8.83,8.83,0,0,0,.8-1,.75.75,0,0,0,.07-.12l1.3,1A.26.26,0,0,1,876.17,292.42Z"/><path class="cls-30" d="M883,294.93c0,.25,0,.51-.05.76a6.88,6.88,0,0,1-2.26.91,6.37,6.37,0,0,1-1.69.14c-.56,0-1.09-.08-1.59-.1a3.9,3.9,0,0,0-1.35.14,3.43,3.43,0,0,0-1.14.62,3.8,3.8,0,0,0-1.31,2.17l-1.81-.47a5.54,5.54,0,0,1,2.22-3,4.85,4.85,0,0,1,1.71-.71,5,5,0,0,1,1.8,0c.55.08,1.07.2,1.55.26a5.57,5.57,0,0,0,1.47,0A6.17,6.17,0,0,0,883,294.93Z"/><path class="cls-36" d="M932.88,220.59c1.09-.39-3.08-1.68-4.84-2s-2.06-1-1.73-1.18a17.28,17.28,0,0,1,2.38-.82c.44-.1,1.42-.9.78-1.16a6.88,6.88,0,0,0-2.33.18,23.11,23.11,0,0,1-5.76.34l-7.88-4.09a8.1,8.1,0,0,1-1.07,1.12l-.38.58c-.75,1.14-1.52,2.27-2.22,3.44-.09.15-.21.37-.34.61l11,3.38c1.94,1.14,4.29,2.54,5.09,3.12a9.15,9.15,0,0,0,3.19,1.67c.47,0,0-1.36-2.14-2.8,0,0,2.74,1.62,4.3,1.64s-2.22-2.34-3.59-2.93c0,0,3.59,1.52,5.21,1.36s-2.78-2.38-4.66-2.93C927.91,220.14,931.79,221,932.88,220.59Z"/><path class="cls-17" d="M866.07,163.24a11.33,11.33,0,0,0,13.26-.65,5.2,5.2,0,0,0,.44,3.35c.47,1,1.1,1.89,1.58,2.87a10.24,10.24,0,0,1,1,5.25,11.87,11.87,0,0,0,3.28-2.7,8.14,8.14,0,0,0,1.56-4.16,12.37,12.37,0,0,0-5-11.19A12.15,12.15,0,0,0,870,155a8.91,8.91,0,0,0-3.68,3.22A6.41,6.41,0,0,0,866.07,163.24Z"/><path class="cls-16" d="M870.55,251.79l-.39,3.77a6.54,6.54,0,0,0,0,1.4l.53,4C873,258,871.94,254.38,870.55,251.79Z"/><path class="cls-21" d="M887.81,223.2l-1.92-7.1H865.5l-2.77,13.11.57,1.15a6.24,6.24,0,0,0,5.59,3.45h3.5l-1.84,18c1.39,2.59,2.48,6.22.16,9.18L874,285.65l9.38-.42.33-28.09L888.18,235A25.66,25.66,0,0,0,887.81,223.2Z"/><polygon class="cls-16" points="872.73 283.97 884.23 282.97 884.26 285.96 873.2 286.38 872.73 283.97"/><path class="cls-31" d="M882.27,284.46l.05-27.66,4.94-24.75a9.85,9.85,0,0,0-.19-4.61l-1.74-6.12"/><path class="cls-31" d="M880.23,217.17s1.08,5.53,6.58,3.83"/><path class="cls-31" d="M866.63,217.17a6.16,6.16,0,0,1-1.85,3.19"/><path class="cls-31" d="M863.06,229.87s.92,5,9.33,3.94l-.39,3.81"/><line class="cls-31" x1="872.61" y1="218.23" x2="871.79" y2="226.48"/><path class="cls-31" d="M870.34,218.39l-.22,2.35a3.18,3.18,0,0,0,2.49,3.4h0"/><path class="cls-19" d="M868.14,182.08a30.53,30.53,0,0,0-7.41,4.79l-10.85,9.46-9.6-10.61-5.77,3.89,10.7,17.11a8.17,8.17,0,0,1,7,1.53l10.53-7.61L867.1,188l3-6.85Z"/><path class="cls-19" d="M886.77,218.51a96.74,96.74,0,0,1-22.11,0c.22-4.07.18-10.54-1.31-14.33-.92-2.33-2.43-4.59-2.24-7.08.17-2.19,1.63-4.08,2-6.24.36-1.91-.13-4,.69-5.75.52-1.13,1.71-1.43,2.81-2a21.41,21.41,0,0,0,3.44-1.9,12.82,12.82,0,0,0,5.44,6.36A16.47,16.47,0,0,0,882,181c3.13,1.47,4.83,2.31,5.82,4.53s.45,4.79.25,7.27C887.4,200.53,887.39,210.73,886.77,218.51Z"/><path class="cls-37" d="M893.46,212l.15.17a10.23,10.23,0,0,0,4.84,3.05l.7.2A6.83,6.83,0,0,0,893.46,212Z"/><path class="cls-19" d="M916.41,212.55l-13.66-7.09-12.1-17.93a15.46,15.46,0,0,0-6-5.22L882,181l.65,11.76L886,203.6l7.45,8.39a6.83,6.83,0,0,1,5.69,3.42l14.76,4.23Z"/><polygon class="cls-37" points="917.45 212.21 913.99 220.02 912.28 219.62 915.82 211.72 917.45 212.21"/><path class="cls-39" d="M862,201a7.56,7.56,0,0,1-.89-5.87,26.93,26.93,0,0,1,1.43-3.49,6.71,6.71,0,0,0,.64-3.67"/><path class="cls-39" d="M902,206.63a33.51,33.51,0,0,1-3.25,3.69"/><path class="cls-37" d="M883.08,181.49a20.1,20.1,0,0,1-7.68,7.71,15.56,15.56,0,0,1-6.43-7.29,8.39,8.39,0,0,0,1.1-.73,12.75,12.75,0,0,0,5.44,6.37A16.47,16.47,0,0,0,882,181Z"/><path class="cls-39" d="M887.25,205a19.84,19.84,0,0,1-1.23-7.16"/><path class="cls-39" d="M867.63,214.67a30,30,0,0,0,7.93-8.76"/><path class="cls-39" d="M871.58,214.81l4.2-3.79"/><polygon class="cls-38" points="916.83 213.61 914.39 219.13 916.04 219.64 917.45 213.93 916.83 213.61"/><polygon class="cls-38" points="857.33 285.69 865.26 285.91 865.08 288.3 857.41 286.74 857.33 285.69"/><polygon class="cls-38" points="874.44 286.33 882.65 286.02 882.57 288.71 874.58 287.37 874.44 286.33"/><path class="cls-17" d="M867.48,166a.86.86,0,0,1-.35-.12.32.32,0,0,1-.16-.31c0-.19.25-.28.43-.32a5.56,5.56,0,0,1,2.15-.08c.19,0,.5.13.45.38s-.33.25-.5.29A5.5,5.5,0,0,1,867.48,166Z"/><path class="cls-17" d="M875.69,166a.86.86,0,0,0,.35-.12.34.34,0,0,0,.16-.31c0-.19-.25-.28-.43-.32a5.56,5.56,0,0,0-2.15-.08c-.19,0-.5.13-.45.38s.33.25.5.29A5.5,5.5,0,0,0,875.69,166Z"/><path class="cls-34" d="M867.75,167.87a1.12,1.12,0,0,1,.94-.89,1.1,1.1,0,0,1,1.12.65"/><path class="cls-34" d="M875.63,167.87a1.09,1.09,0,0,0-2.07-.24"/><path class="cls-34" d="M871.49,167.45a1.61,1.61,0,0,1-.57,1.12,1.68,1.68,0,0,0-.61,1.11c0,.48.42.85.82,1.13"/><path class="cls-34" d="M869.85,172.48a3.9,3.9,0,0,0,3.23-.57"/></svg>