<svg xmlns="http://www.w3.org/2000/svg" viewBox="0 0 1105 160"><defs><style>.cls-1{isolation:isolate;}.cls-2{fill:#f4a640;}.cls-3{fill:#adcfd8;}.cls-13,.cls-4{fill:#55769f;}.cls-11,.cls-5{fill:#daeef7;}.cls-6{fill:#feb546;}.cls-7{fill:#ff5b7e;}.cls-8{fill:#e03268;}.cls-9{fill:#02ccc0;}.cls-10{fill:#06bfad;}.cls-11,.cls-29,.cls-33,.cls-35,.cls-37,.cls-40,.cls-50{mix-blend-mode:multiply;}.cls-12{fill:#284c7a;}.cls-13,.cls-45{opacity:0.5;}.cls-14{fill:#c4dfe8;}.cls-15{fill:#ffc0bb;}.cls-16{fill:#f50;}.cls-17{fill:#07085b;}.cls-18,.cls-29{fill:#f99893;}.cls-19{fill:#333;}.cls-20{fill:#fc8d84;opacity:0.6;}.cls-21{fill:#050645;}.cls-22{fill:#fff;}.cls-23{fill:#070852;}.cls-24{fill:#10116b;}.cls-25{fill:#ededed;}.cls-26{fill:#26426e;}.cls-27{fill:#e0e0e0;}.cls-28{fill:#3a5782;}.cls-29,.cls-37,.cls-50{opacity:0.3;}.cls-30{fill:#f5577a;}.cls-31{fill:#de4b6c;}.cls-32,.cls-52{fill:none;stroke-linecap:round;stroke-linejoin:round;}.cls-32{stroke:#7dc4fd;stroke-width:3px;}.cls-33,.cls-42{fill:#2eceb7;}.cls-33{opacity:0.1;}.cls-34{fill:#ffd141;}.cls-35,.cls-36,.cls-37,.cls-45{fill:#f0a90f;}.cls-38,.cls-44{fill:#84e2d5;}.cls-39{fill:#24a08b;}.cls-40{fill:#1b899a;}.cls-40,.cls-48{opacity:0.4;}.cls-41{fill:#1f9999;}.cls-43{fill:#72cace;}.cls-44{opacity:0.2;}.cls-46,.cls-48{fill:#27ad97;}.cls-47{fill:#80e1d3;}.cls-49,.cls-50{fill:#e6605d;}.cls-51{fill:#ff5c42;}.cls-52{stroke:#2e1814;stroke-width:4px;}</style></defs><title>sobre</title><g class="cls-1"><g id="Layer_1" data-name="Layer 1"><path class="cls-2" d="M111.6,117.6l-22.93,9.2L60.28,56.13l19.39-7.79a3.83,3.83,0,0,1,5,2.13Z"/><rect class="cls-3" x="64.58" y="56.64" width="44.59" height="62.69" transform="translate(-14.03 16.52) rotate(-10.05)"/><rect class="cls-4" x="72.54" y="63.25" width="19.91" height="0.45" transform="translate(-9.81 15.38) rotate(-10.05)"/><rect class="cls-4" x="68.16" y="62.14" width="28.28" height="0.45" transform="translate(-9.62 15.32) rotate(-10.05)"/><rect class="cls-4" x="66.16" y="67.88" width="34.31" height="0.45" transform="translate(-10.61 15.59) rotate(-10.05)"/><rect class="cls-4" x="66.54" y="69.99" width="34.31" height="0.45" transform="translate(-10.97 15.69) rotate(-10.05)"/><rect class="cls-4" x="67.29" y="74.23" width="34.31" height="0.45" transform="translate(-11.7 15.88) rotate(-10.05)"/><rect class="cls-4" x="67.67" y="76.34" width="34.31" height="0.45" transform="translate(-12.06 15.98) rotate(-10.05)"/><rect class="cls-4" x="68.04" y="78.46" width="34.31" height="0.45" transform="translate(-12.43 16.08) rotate(-10.05)"/><rect class="cls-4" x="69.69" y="87.77" width="34.31" height="0.45" transform="translate(-14.03 16.51) rotate(-10.05)"/><rect class="cls-4" x="70.08" y="89.97" width="34.31" height="0.45" transform="translate(-14.4 16.61) rotate(-10.05)"/><rect class="cls-4" x="70.47" y="92.16" width="34.31" height="0.45" transform="translate(-14.78 16.71) rotate(-10.05)"/><rect class="cls-4" x="70.86" y="94.36" width="34.31" height="0.45" transform="translate(-15.16 16.82) rotate(-10.05)"/><rect class="cls-4" x="71.25" y="96.55" width="34.31" height="0.45" transform="translate(-15.54 16.92) rotate(-10.05)"/><rect class="cls-4" x="71.64" y="98.75" width="34.31" height="0.45" transform="translate(-15.91 17.02) rotate(-10.05)"/><rect class="cls-4" x="72.03" y="100.94" width="34.31" height="0.45" transform="translate(-16.29 17.12) rotate(-10.05)"/><rect class="cls-5" x="61.15" y="56.33" width="44.59" height="62.69" transform="translate(-19.57 24.12) rotate(-14.74)"/><rect class="cls-4" x="67.12" y="63.38" width="19.91" height="0.45" transform="translate(-13.65 21.71) rotate(-14.74)"/><rect class="cls-4" x="62.65" y="62.29" width="28.28" height="0.45" transform="translate(-13.38 21.6) rotate(-14.74)"/><rect class="cls-4" x="61.12" y="67.92" width="34.31" height="0.45" transform="matrix(0.97, -0.25, 0.25, 0.97, -14.77, 22.17)"/><rect class="cls-4" x="61.67" y="70" width="34.31" height="0.45" transform="matrix(0.97, -0.25, 0.25, 0.97, -15.28, 22.37)"/><rect class="cls-4" x="62.76" y="74.16" width="34.31" height="0.45" transform="matrix(0.97, -0.25, 0.25, 0.97, -16.3, 22.79)"/><rect class="cls-4" x="63.31" y="76.24" width="34.31" height="0.45" transform="matrix(0.97, -0.25, 0.25, 0.97, -16.81, 23)"/><rect class="cls-4" x="63.86" y="78.32" width="34.31" height="0.45" transform="translate(-17.32 23.2) rotate(-14.74)"/><rect class="cls-4" x="66.26" y="87.46" width="34.31" height="0.45" transform="translate(-19.57 24.12) rotate(-14.74)"/><rect class="cls-4" x="66.83" y="89.62" width="34.31" height="0.45" transform="matrix(0.97, -0.25, 0.25, 0.97, -20.1, 24.33)"/><rect class="cls-4" x="67.4" y="91.78" width="34.31" height="0.45" transform="translate(-20.63 24.55) rotate(-14.74)"/><rect class="cls-4" x="67.97" y="93.93" width="34.31" height="0.45" transform="translate(-21.16 24.76) rotate(-14.74)"/><rect class="cls-4" x="68.53" y="96.09" width="34.31" height="0.45" transform="matrix(0.97, -0.25, 0.25, 0.97, -21.69, 24.98)"/><rect class="cls-4" x="69.1" y="98.25" width="34.31" height="0.45" transform="translate(-22.22 25.2) rotate(-14.74)"/><rect class="cls-4" x="69.67" y="100.4" width="34.31" height="0.45" transform="translate(-22.75 25.41) rotate(-14.74)"/><path class="cls-6" d="M102.9,121.09,56.73,139.63l-26.92-67L68.6,48.66a4.12,4.12,0,0,1,6,2Z"/><path class="cls-7" d="M41.84,128.78l-6.59-.12c-2.29-4.14-4-7.75-4-7.75a31.83,31.83,0,0,1,18.94,1l2.88,7,.62-5.39c13,7,18.3,21.8,18.3,21.8s-22.9-2.44-27.76-4.69c-1.88-.88-4.24-4-6.43-7.54C39.59,131.42,41.84,128.78,41.84,128.78Z"/><path class="cls-8" d="M31.29,120.91S60.7,133.29,72,145.32c0,0-22.9-2.44-27.76-4.69-1.88-.88-4.24-4-6.43-7.54,1.75-1.67,4-4.31,4-4.31l-6.59-.12C33,124.52,31.29,120.91,31.29,120.91Z"/><path class="cls-7" d="M32.23,140.69a30.1,30.1,0,0,1,11.82-4.21c1.13,1.41,2.52,3.06,2.52,3.06l.15-3.3c14.83-.67,27.12,9.26,27.12,9.26-8.59,5.42-15.92,6.91-21.92,6.43-.36-1.16-.86-2.88-.86-2.88L50,151.7a25.77,25.77,0,0,1-7.61-2.44c.56-1.38,1.15-2.95,1.15-2.95l-3.2,1.81A27.94,27.94,0,0,1,32.23,140.69Z"/><path class="cls-8" d="M51.92,151.93c-.36-1.16-.86-2.88-.86-2.88L50,151.7a25.77,25.77,0,0,1-7.61-2.44c.56-1.38,1.15-2.95,1.15-2.95l-3.2,1.81a27.94,27.94,0,0,1-8.11-7.43c17.28-2,41.61,4.81,41.61,4.81C65.25,150.92,57.92,152.41,51.92,151.93Z"/><path class="cls-9" d="M118.78,51.59l5.31-3.9c-.53-4.7-1.24-8.61-1.24-8.61A31.79,31.79,0,0,0,108,50.83l1.69,7.38L106,54.16c-6.55,13.19-2.36,28.37-2.36,28.37s17.3-15.22,20-19.86c1-1.8,1.15-5.72.9-9.87C122.13,52.45,118.78,51.59,118.78,51.59Z"/><path class="cls-10" d="M122.85,39.08S106,66.16,103.67,82.53c0,0,17.3-15.22,20-19.86,1-1.8,1.15-5.72.9-9.87-2.4-.35-5.75-1.21-5.75-1.21l5.31-3.9C123.56,43,122.85,39.08,122.85,39.08Z"/><path class="cls-9" d="M133.5,55.77a30.24,30.24,0,0,0-12.08,3.38c-.11,1.8-.29,4-.29,4l-2-2.61c-12.5,8-16.8,23.22-16.8,23.22,10.14-.54,17-3.55,21.61-7.41-.38-1.15-1-2.85-1-2.85L125.34,75a26.07,26.07,0,0,0,4.81-6.39c-1.26-.8-2.65-1.74-2.65-1.74l3.66-.37A27.84,27.84,0,0,0,133.5,55.77Z"/><path class="cls-10" d="M123.91,76.31c-.38-1.15-1-2.85-1-2.85L125.34,75a26.07,26.07,0,0,0,4.81-6.39c-1.26-.8-2.65-1.74-2.65-1.74l3.66-.37a27.84,27.84,0,0,0,2.34-10.75c-15.26,8.35-31.2,27.95-31.2,27.95C112.44,83.18,119.28,80.17,123.91,76.31Z"/><path class="cls-8" d="M175.94,75.06h3.16a3.33,3.33,0,0,0-1.87-.56H98.15c-4.14,0-7.49,3-7.49,6.64v4.22C90.66,89,94,92,98.15,92l78.2,0Z"/><path class="cls-6" d="M97.29,85.36V81.14c0-3.67,3.35-6.64,7.49-6.64h-1.7c-4.13,0-7.49,3-7.49,6.64v4.22C95.59,89,99,92,103.08,92h1.68C100.63,92,97.29,89,97.29,85.36Z"/><path class="cls-6" d="M115.81,85.36V81.14c0-3.67,3.36-6.64,7.49-6.64h-1.69c-4.14,0-7.5,3-7.5,6.64v4.22c0,3.66,3.36,6.64,7.5,6.64h1.67C119.15,92,115.81,89,115.81,85.36Z"/><path class="cls-7" d="M131,74.51c-3.95,0-7.16,2.85-7.16,6.35v4.77c0,3.51,3.21,6.35,7.16,6.35h49.24V90.92h-.21l-12.51-1.06L165,81.07s4.88-4.86,5.2-5,9.84-.51,9.84-.51h.21V74.51Z"/><path class="cls-5" d="M177.08,83.22a10.15,10.15,0,0,1,3-7.64h-48c-3.63,0-6.58,2.61-6.58,5.83v3.67c0,3.22,2.95,5.84,6.58,5.84h48S177.08,89.69,177.08,83.22Z"/><path class="cls-11" d="M125.47,81.41v3.67a5.43,5.43,0,0,0,.19,1.4,13.76,13.76,0,0,1,10.64-8c13.8-2.54,43.78-2.92,43.78-2.92h-48C128.42,75.58,125.47,78.19,125.47,81.41Z"/><path class="cls-12" d="M174.64,110h3.57a3.48,3.48,0,0,0-2.11-.71H86.59a8.41,8.41,0,0,0-8.48,8.32v5.28a8.4,8.4,0,0,0,8.48,8.31l88.51,0Z"/><path class="cls-4" d="M123.82,109.35a8,8,0,0,0-8.11,8v6a8,8,0,0,0,8.11,8h55.73v-1.33h-.23l-14.17-1.32-2.86-11s5.52-6.09,5.88-6.24,11.15-.64,11.15-.64h.23v-1.33Z"/><path class="cls-5" d="M175.93,120.25c0-6.44,3.39-9.56,3.39-9.56H125a7.37,7.37,0,0,0-7.44,7.3v4.59a7.37,7.37,0,0,0,7.44,7.31h54.36S175.93,128.36,175.93,120.25Z"/><path class="cls-11" d="M117.52,118v4.59a7.31,7.31,0,0,0,.21,1.76,15.94,15.94,0,0,1,12-10c15.62-3.18,49.55-3.65,49.55-3.65H125A7.37,7.37,0,0,0,117.52,118Z"/><path class="cls-9" d="M75.16,92.51H71.59A4.09,4.09,0,0,1,73.7,92h89.54c4.69,0,8.49,3,8.49,6.6v4.19c0,3.64-3.8,6.59-8.49,6.59l-88.54,0Z"/><path class="cls-10" d="M126,92c4.48,0,8.11,2.82,8.11,6.31V103c0,3.49-3.63,6.31-8.11,6.31H70.25v-1.06h.23l14.18-1,2.86-8.74s-5.53-4.83-5.89-5S70.48,93,70.48,93h-.23V92Z"/><path class="cls-5" d="M73.87,100.61A9.6,9.6,0,0,0,70.47,93h54.39c4.11,0,7.45,2.59,7.45,5.79v3.65c0,3.2-3.34,5.79-7.45,5.79H70.47S73.87,107.05,73.87,100.61Z"/><path class="cls-11" d="M132.31,98.82v3.65a4.64,4.64,0,0,1-.22,1.39c-1.83-3.49-5.35-6.85-12-7.94C104.43,93.4,70.47,93,70.47,93h54.39C129,93,132.31,95.62,132.31,98.82Z"/><path class="cls-13" d="M155.32,102.74V98.55c0-3.64-3.79-6.6-8.48-6.6h8.5c4.69,0,8.49,3,8.49,6.6v4.19c0,3.64-3.8,6.59-8.49,6.59H147C151.59,109.29,155.32,106.35,155.32,102.74Z"/><path class="cls-6" d="M68.4,131.91H64.55a4.33,4.33,0,0,1,2.27-.62h96.54c5,0,9.14,3.29,9.14,7.37v4.68c0,4.07-4.09,7.37-9.14,7.37l-95.46,0Z"/><path class="cls-2" d="M123.2,131.3c4.83,0,8.75,3.16,8.75,7v5.29c0,3.89-3.92,7.05-8.75,7.05H63.11v-1.18h.25l15.28-1.17,3.08-9.76s-6-5.4-6.34-5.54-12-.56-12-.56h-.25V131.3Z"/><path class="cls-5" d="M67,141a10.86,10.86,0,0,0-3.66-8.47H122c4.44,0,8,2.89,8,6.47V143c0,3.58-3.6,6.48-8,6.48H63.35S67,148.15,67,141Z"/><path class="cls-11" d="M130,139V143a5.29,5.29,0,0,1-.24,1.55c-2-3.89-5.76-7.65-13-8.86-16.84-2.82-53.44-3.23-53.44-3.23H122C126.41,132.49,130,135.38,130,139Z"/><rect class="cls-14" x="38.99" y="150.57" width="164.55" height="2.14" rx="1.07"/><polygon class="cls-2" points="37.99 79.99 69.42 62.01 73.67 70.43 41.51 87.44 37.99 79.99"/><path class="cls-9" d="M97.22,28.78S97,31.23,95,31.39C97,31.56,97.22,34,97.22,34s.24-2.45,2.17-2.62C97.46,31.23,97.22,28.78,97.22,28.78Z"/><path class="cls-6" d="M63.89,10s-.33,3.26-2.9,3.48c2.57.23,2.9,3.49,2.9,3.49s.33-3.26,2.9-3.49C64.22,13.26,63.89,10,63.89,10Z"/><path class="cls-7" d="M50.43,39.12s-.22,2.19-2,2.34c1.73.15,2,2.34,2,2.34s.22-2.19,1.94-2.34C50.65,41.31,50.43,39.12,50.43,39.12Z"/><path class="cls-7" d="M203.3,91.29s-.33,3.26-2.9,3.48c2.57.23,2.9,3.48,2.9,3.48s.33-3.25,2.9-3.48C203.63,94.55,203.3,91.29,203.3,91.29Z"/><path class="cls-9" d="M21.11,62.62s-.33,3.26-2.9,3.48c2.57.23,2.9,3.48,2.9,3.48s.33-3.25,2.9-3.48C21.44,65.88,21.11,62.62,21.11,62.62Z"/><path class="cls-9" d="M210.17,59.14s-.33,3.26-2.9,3.48c2.57.23,2.9,3.48,2.9,3.48s.33-3.25,2.9-3.48C210.5,62.4,210.17,59.14,210.17,59.14Z"/><path class="cls-7" d="M130,8s-.33,3.26-2.9,3.48c2.57.23,2.9,3.48,2.9,3.48s.33-3.25,2.9-3.48C130.34,11.26,130,8,130,8Z"/><path class="cls-6" d="M185.05,35.19s-.18,2.06-1.57,2.2c1.39.14,1.57,2.2,1.57,2.2s.18-2.06,1.58-2.2C185.23,37.25,185.05,35.19,185.05,35.19Z"/><path class="cls-15" d="M72.3,135.39l-4.34.22-.54,12.87-2.22,1.07.1.47.83.19,2.75,0a4.61,4.61,0,0,0,.63-.61l-.09-.11.45-.3Z"/><path class="cls-15" d="M84.06,149.55s-2.17-1.09-2.22-1.07l.49-13.11-5.38,0,2.43,13.76.27.18c-.06.23-.12.43-.13.49s.92.19,1.25.24a18.39,18.39,0,0,1,1.91.34,2.1,2.1,0,0,0,1.4-.34Z"/><path class="cls-16" d="M84.2,100c-.62-1.63-1.23-1-2.36-3a4.29,4.29,0,0,1-.4-1.09,5.5,5.5,0,0,0-1.73-2.89,6.1,6.1,0,0,0-5.65-1.27s.78,4.42.93,5.32c-.67.9-1.33,1.82-1.33,1.82s-1.4,7.28.79,7.89,2.59-.37,3.66-.88,2.11.88,3.71-.09c1.22-.74.6-2.6,1.24-3A2.13,2.13,0,0,0,84.2,100Z"/><path class="cls-16" d="M72.92,95.47l-2-1.11,5.84-6.5L74.9,87.5c-.11,0-2.64.78-2.64.78L69.64,89c-2,7.28-4.48,8.6-4.48,8.6a2.82,2.82,0,0,0-.87.93,2.13,2.13,0,0,0,.58,3.06c.57.47-.38,2.17.68,3.13,1.39,1.25,2.67.07,3.63.77s1.16,1.75,3.43,1.55,2.24-7.6,2.24-7.6S73,95.5,72.92,95.47Z"/><path class="cls-7" d="M82.83,108.74s1.93,9.2,1.37,10.19-7.89,1.31-7.89,1.31L76,108.43l2.79-4.22Z"/><path class="cls-17" d="M80.51,119.39l-1.37-3.75S74.63,114,74.34,114s-4.1,1.67-4.1,1.67-1.17,2.36-1.4,2.78a11.29,11.29,0,0,0,.45,2.93l-1.61.07L66.6,145.15a6,6,0,0,0,4.84.18L73.5,124.6l1.79-.27L78,144.89a5.31,5.31,0,0,0,5.2.26l-2-22.87A11.51,11.51,0,0,0,80.51,119.39Z"/><path class="cls-15" d="M71.74,101.42a23,23,0,0,1,5.72-.16c3.72.27-1.72,2.36-1.72,2.36l-2-.07C73.66,103.53,71.74,101.42,71.74,101.42Z"/><rect class="cls-15" x="73.17" y="99.32" width="3.3" height="5.8"/><path class="cls-18" d="M76.47,100.31v-2h-3.3V100A4.87,4.87,0,0,0,76.47,100.31Z"/><path class="cls-15" d="M81.09,92.86a1.1,1.1,0,0,0-1,0,5.39,5.39,0,1,0-10.78,0,1.12,1.12,0,0,0-1,0,1.57,1.57,0,0,0,1.35,2.74.91.91,0,0,0,.23-.15,4.86,4.86,0,0,0,9.65,0,1.14,1.14,0,0,0,.23.15,1.57,1.57,0,0,0,1.35-2.74Z"/><path class="cls-19" d="M73.33,94a.46.46,0,1,1-.48-.43A.46.46,0,0,1,73.33,94Z"/><path class="cls-19" d="M77.23,94a.45.45,0,0,1-.43.48.46.46,0,1,1,0-.91A.46.46,0,0,1,77.23,94Z"/><path class="cls-16" d="M73.82,93a4,4,0,0,0-.66-.18,2.66,2.66,0,0,0-.63,0,1.88,1.88,0,0,0-.61.15l-.08,0-.07,0-.16.07c-.1,0-.19.12-.3.17a2.61,2.61,0,0,1,.2-.3,3.22,3.22,0,0,1,.28-.24,1.64,1.64,0,0,1,.71-.25,1.55,1.55,0,0,1,.74.1A1.47,1.47,0,0,1,73.82,93Z"/><path class="cls-16" d="M75.65,93a1.47,1.47,0,0,1,.58-.44,1.69,1.69,0,0,1,.74-.11,1.55,1.55,0,0,1,.71.25A1.61,1.61,0,0,1,78,93a1.94,1.94,0,0,1,.21.29l-.31-.16L77.71,93l-.08,0-.07,0a1.94,1.94,0,0,0-.62-.15,2.24,2.24,0,0,0-.63,0A3.48,3.48,0,0,0,75.65,93Z"/><path class="cls-18" d="M74.91,93.34a2.8,2.8,0,0,0,0,.71,1.61,1.61,0,0,0,.1.36,1.08,1.08,0,0,0,.21.33c.12.09.18.12.21.2a.3.3,0,0,1,0,.26.93.93,0,0,1-.49.42.82.82,0,0,0,.65-.33.5.5,0,0,0,.06-.42.54.54,0,0,0-.23-.28.77.77,0,0,1-.19-.27c0-.1-.09-.21-.13-.31Z"/><path class="cls-18" d="M73.42,96.19l.39.23a3.79,3.79,0,0,0,.42.18,3.26,3.26,0,0,0,.87.16,2.19,2.19,0,0,0,.87-.18,2.8,2.8,0,0,0,.77-.47,3.28,3.28,0,0,1-.34.31,2.65,2.65,0,0,1-.4.24,2.07,2.07,0,0,1-.44.15,2.2,2.2,0,0,1-1.36-.14A2.83,2.83,0,0,1,73.42,96.19Z"/><path class="cls-9" d="M81.24,102.58A5.45,5.45,0,0,0,77,101.21a4.52,4.52,0,0,1-.83.64,3.43,3.43,0,0,1-1.43.39h-.06a3.52,3.52,0,0,1-1.44-.39,4.17,4.17,0,0,1-.82-.64,5.47,5.47,0,0,0-4.27,1.37,23.81,23.81,0,0,0-3.58,5.57A10,10,0,0,0,69,110.48s1.06,4.84,1.27,5.16a11,11,0,0,0,2.66.77,9,9,0,0,0,1.69.16h.2a8.92,8.92,0,0,0,1.68-.16,11.22,11.22,0,0,0,2.67-.77c.21-.32,1.26-5.16,1.26-5.16a10,10,0,0,0,4.42-2.33A23.81,23.81,0,0,0,81.24,102.58Z"/><path class="cls-8" d="M74.88,114.33a1.13,1.13,0,0,1,1,.38l0,1.26-.82.37a8.67,8.67,0,0,1-.93-.87A12.12,12.12,0,0,0,74.88,114.33Z"/><polygon class="cls-8" points="76.95 122.55 66.24 125.64 65.2 117.81 75.91 114.71 76.95 122.55"/><polygon class="cls-5" points="65.36 124.38 66.3 125.18 76.55 122.24 75.63 114.85 74.9 114.55 65.36 124.38"/><polygon class="cls-11" points="76.55 122.24 75.82 121.6 74.48 120.14 74.56 116.09 74.9 114.55 75.63 114.84 76.55 122.24"/><polygon class="cls-7" points="75.82 121.6 65.11 124.7 64.17 117.43 74.88 114.33 75.82 121.6"/><path class="cls-5" d="M70.56,106.27a10.17,10.17,0,0,0-.68.94,8.38,8.38,0,0,0-.55,1,5.26,5.26,0,0,0-.33,1.09,4.5,4.5,0,0,0,0,1.16,2.94,2.94,0,0,1-.11-1.18,3.79,3.79,0,0,1,.31-1.14,5,5,0,0,1,.59-1A5.44,5.44,0,0,1,70.56,106.27Z"/><path class="cls-15" d="M68.34,119.49c-1.89-3.19-1-7.07-.27-9.22a10.89,10.89,0,0,1-3.33-2c-3,6.79,2.08,12.61,2.08,12.61h0c.1.22.17.41.17.41,1.2,2.17,1.26,2.14,1.34,2.11s-.15-1.06,0-1.06.86,1.25.92,1.13-.51-1.35-.43-1.37.8,1.19,1,1.08-.67-1.4-.51-1.44,1,1.33,1.1,1.21a10.61,10.61,0,0,0-1-2.12.09.09,0,0,1,.08-.14c1.12.06,1.21,0,1.19-.12A19.38,19.38,0,0,0,68.34,119.49Z"/><path class="cls-8" d="M81,101.55c-2.31,8.32.48,10.77.49,10.83L81,114.32s-5.7-3.7-2.09-13.56a.5.5,0,0,1,.67-.3l1.08.5A.49.49,0,0,1,81,101.55Z"/><path class="cls-15" d="M86,121.86a4,4,0,0,1-.14-.4h0l-.11-.8c-.07-1.83-.37-8.31-1.37-12.13a9.09,9.09,0,0,1-3.94,2,35.5,35.5,0,0,1,3.39,11.09,15.7,15.7,0,0,0-.81,2c.07.1.17.09.92-.66a.08.08,0,0,1,.14,0,9.73,9.73,0,0,0,.6,2.16c.16,0-.11-1.47,0-1.55s.36,1.37.54,1.34-.08-1.33,0-1.36.45,1.19.56,1.23-.13-1.31-.05-1.38.55.82.63.79S86.51,124.15,86,121.86Z"/><path class="cls-16" d="M68.35,92.83s-.34-6.19,6.55-6.6c0,0-.21,6.08-5.6,6.67l-.42-.81Z"/><path class="cls-16" d="M74.9,86.23s5.59-.31,5.89,6.54a1.51,1.51,0,0,0-.71.13s-4.43-1.11-5.53-5.4Z"/><path class="cls-17" d="M67.08,150c-1.13.11-1.66-.13-1.88-.47l-.77.5a.36.36,0,0,0,.2.66h4.94a.32.32,0,0,0,.32-.32v-1.34A4.49,4.49,0,0,1,67.08,150Z"/><path class="cls-17" d="M82.18,150c1.12.11,1.65-.13,1.88-.47l.76.5a.36.36,0,0,1-.19.66H79.68a.32.32,0,0,1-.31-.32v-1.34A4.43,4.43,0,0,0,82.18,150Z"/><path class="cls-11" d="M185.62,105.75l5.72.46-1.85,4.62-2.88-.23-1.2,3.85a5.26,5.26,0,0,1-.55-.26,34.26,34.26,0,0,1-.69-3.77Z"/><path class="cls-8" d="M188.88,148.26v2a.3.3,0,0,0,.3.3h4.71a.34.34,0,0,0,.18-.63l-2.64-1.68A2.49,2.49,0,0,1,188.88,148.26Z"/><path class="cls-15" d="M179.65,62.88a.09.09,0,0,1-.12-.1,11.34,11.34,0,0,0,.34-2.39c-.16-.07-.52,1.5-.69,1.51s.23-1.5,0-1.55-.5,1.35-.58,1.35.06-1.36,0-1.46-.43,1.35-.53,1.39-.2-1-.29-1-.16,0-.63,2.46a3.45,3.45,0,0,1-.19,1.12l.36.73,1.1,0a32.34,32.34,0,0,0,2.39-2.32C180.82,62.5,180.71,62.47,179.65,62.88Z"/><path class="cls-15" d="M191.07,63.43a.09.09,0,0,0,.16,0,10.3,10.3,0,0,1,.78-2.27c.18,0-.21,1.56-.08,1.65s.49-1.43.67-1.4-.17,1.43-.1,1.47.57-1.24.69-1.29S193,63,193,63s.65-.84.74-.8.14.06-.56,2.48a3.55,3.55,0,0,0-.35,1.09l-.65.48-1-.47a33.21,33.21,0,0,1-1.07-3.15C190.21,62.56,190.32,62.58,191.07,63.43Z"/><polygon class="cls-15" points="182.25 83.29 182.27 87.53 178.15 86.9 178.84 82.13 182.25 83.29"/><path class="cls-20" d="M178.52,84.32l.32-2.19,3.42,1.56v.84A6.23,6.23,0,0,1,178.52,84.32Z"/><path class="cls-8" d="M174.81,148v2.21a.33.33,0,0,1-.33.33h-5.17a.37.37,0,0,1-.2-.69L172,148A2.75,2.75,0,0,0,174.81,148Z"/><path class="cls-17" d="M170.09,110.5c0-.47-1.22.92-1.2.54.48-7.84,15.81-1.26,15.81-1.26l3.74,2.74,4.23,36.36a7.67,7.67,0,0,1-3.81.12l-9.35-31.16-1.15-.44A65.42,65.42,0,0,1,170.09,110.5Z"/><path class="cls-10" d="M168.87,111.36c0,.09,0,.19,0,.29C168.87,111.55,168.87,111.45,168.87,111.36Z"/><path class="cls-10" d="M168.86,111.65c0,.1,0,.2,0,.3C168.85,111.85,168.86,111.75,168.86,111.65Z"/><path class="cls-10" d="M168.85,112c0,.11,0,.22,0,.33C168.84,112.21,168.85,112.1,168.85,112Z"/><path class="cls-10" d="M168.89,111c0,.09,0,.18,0,.27C168.88,111.22,168.89,111.13,168.89,111Z"/><path class="cls-17" d="M168.89,109.26a103.37,103.37,0,0,0,9.47,8.14l1.15.44-1.15-.44-3.56,31.48s-2.53.48-4-.3C170.82,148.58,168.69,118.61,168.89,109.26Z"/><path class="cls-10" d="M192.67,148.88a10.43,10.43,0,0,1-2.1.33,10.43,10.43,0,0,0,2.1-.33Z"/><path class="cls-10" d="M189.31,149.12l.31,0Z"/><path class="cls-10" d="M190.57,149.21a7,7,0,0,1-.79,0A7,7,0,0,0,190.57,149.21Z"/><path class="cls-21" d="M188.44,112.52l.6,5.19c-1.59.62-5.48,1.28-8.41-5.13a8.21,8.21,0,0,1-1-4.52,40.93,40.93,0,0,1,5.06,1.72Z"/><path class="cls-5" d="M174.38,91.34c.18,0,2.83-6,2.83-6,2.27,1.59,5.35.48,5.35.48s12.41,22.7,4.09,26.24-16.16-.77-16.16-.77-1.77-4.6-1.77-4.78S174.2,91.34,174.38,91.34Z"/><path class="cls-4" d="M190.54,65.86s.54,10.77-.47,12.74c-3.35,6.55-7.51,7.21-7.51,7.21s-1.43,22.91-.25,28.39c0,0,3.93,1.21,9.71-1.5,0,0-4.43-17.76-4.19-20,0,0,7.08-6.31,7.31-13.75a50.06,50.06,0,0,0-1.71-14Z"/><path class="cls-4" d="M171.46,113.38a104.16,104.16,0,0,1,2.39-16.61,83.09,83.09,0,0,1,3.36-11.44c-2.61-2.88-2.18-5.48-2-8.85.27-3.9,4.07-11.68,4.07-11.68l-2.56-1.68c-12.3,14.77-5.49,26.54-5.49,26.54s-4.6,16.28-5.22,21.24A38.46,38.46,0,0,0,171.46,113.38Z"/><path class="cls-22" d="M187.71,92.67a2.33,2.33,0,0,1-.49-.47,4.73,4.73,0,0,1-1-2.13,6.07,6.07,0,0,0,1,2.07,2.57,2.57,0,0,0,.57.53l0,0v0a1.39,1.39,0,0,1-.94-.22,4.54,4.54,0,0,1-.79-.57,5.72,5.72,0,0,0,.82.51A1.68,1.68,0,0,0,187.71,92.67Z"/><path class="cls-22" d="M171.38,89.61a3.06,3.06,0,0,0,.56-.52A6,6,0,0,0,173,87a5,5,0,0,1-1,2.13,2.33,2.33,0,0,1-.49.47.94.94,0,0,0,.34,0,2.18,2.18,0,0,0,.45-.16,5.63,5.63,0,0,0,.81-.51,4,4,0,0,1-.78.56,2.16,2.16,0,0,1-.45.19,1,1,0,0,1-.51,0l-.09,0Z"/><polygon class="cls-17" points="176.34 74.64 176.1 77.55 176.56 77.84 177.41 74.29 176.34 74.64"/><path class="cls-18" d="M177,77.25a1.1,1.1,0,0,1-.72,1.37,1.24,1.24,0,1,1,.72-1.37Z"/><path class="cls-15" d="M176.21,79.94a9.2,9.2,0,0,1,0-2.45l0-.47A5.18,5.18,0,0,1,182,72a5.19,5.19,0,0,1,4.47,6.17,1.1,1.1,0,0,1,1,.12,1.57,1.57,0,0,1-1.77,2.49.86.86,0,0,1-.19-.19A4.88,4.88,0,0,1,179.89,84,4.79,4.79,0,0,1,176.21,79.94Z"/><path class="cls-19" d="M181.84,77.61a.45.45,0,0,0,.43.62.44.44,0,0,0,.41-.28.45.45,0,0,0-.43-.62A.44.44,0,0,0,181.84,77.61Z"/><path class="cls-19" d="M178,77a.46.46,0,0,0,.43.63.44.44,0,0,0,.41-.29.45.45,0,0,0-.42-.62A.47.47,0,0,0,178,77Z"/><path class="cls-18" d="M181.24,80.78a2.88,2.88,0,0,1-.73.25,2.43,2.43,0,0,1-.76,0,2,2,0,0,1-.71-.25,2.53,2.53,0,0,1-.59-.49,2.21,2.21,0,0,0,.55.55,1.78,1.78,0,0,0,.74.28,2.34,2.34,0,0,0,.79-.05A2.28,2.28,0,0,0,181.24,80.78Z"/><path class="cls-17" d="M181.47,76.69a4.13,4.13,0,0,1,.68-.07,2.18,2.18,0,0,1,.63.07,2.12,2.12,0,0,1,.58.25c.25.15.43.32.55.4a1.49,1.49,0,0,0-.39-.6,1.38,1.38,0,0,0-.66-.36,1.55,1.55,0,0,0-.74,0A1.44,1.44,0,0,0,181.47,76.69Z"/><path class="cls-17" d="M179.67,76.39a1.44,1.44,0,0,0-.5-.51,1.61,1.61,0,0,0-.71-.23,1.42,1.42,0,0,0-.74.14,1.44,1.44,0,0,0-.57.44c.16,0,.37-.14.65-.2a1.94,1.94,0,0,1,.63,0,1.91,1.91,0,0,1,.62.13A4.24,4.24,0,0,1,179.67,76.39Z"/><path class="cls-18" d="M180.46,77a4.48,4.48,0,0,0-.59.64,5.11,5.11,0,0,0-.51.71,1.48,1.48,0,0,0-.22.52c0,.1,0,.19.15.35a1.81,1.81,0,0,0,.34.28,2.88,2.88,0,0,0,.38.22,5.81,5.81,0,0,1-.62-.59l-.1-.16a.36.36,0,0,1,0-.16,2.58,2.58,0,0,1,.19-.37c.15-.25.31-.48.47-.72Z"/><path class="cls-17" d="M176.89,71.53s-1.53-.29.35-1.22,6.5-1.46,8.91.61c0,0,.81-1,1.54-.58s-.76,1-.76,1,1,.2,1.22.76-.48.3-.81.2c.55.23,2.18,1.77.06,6a36.73,36.73,0,0,1-2.79-3.63s-4.87,1.6-4,.28c0,0-5.67,1.42-4.29-1.15C176.34,73.73,174.25,73.42,176.89,71.53Z"/><path class="cls-17" d="M187.4,78.23a1,1,0,0,0-.92-.07c-.56.21-.92,1.46-.92,1.46s-1.84,1.51-.94-5.05,2.1,1.08,2.1,1.08Z"/><path class="cls-8" d="M174.83,57.88l-.8-.08a.88.88,0,0,1,.49-.09l19.89,1.95a1.81,1.81,0,0,1,1.72,1.86l-.1,1.06A1.8,1.8,0,0,1,194,64.07l-19.67-1.94Z"/><path class="cls-6" d="M194.36,62.42l.1-1.06a1.79,1.79,0,0,0-1.72-1.86l.43,0a1.8,1.8,0,0,1,1.72,1.86l-.1,1.06a1.79,1.79,0,0,1-2,1.48l-.42,0A1.79,1.79,0,0,0,194.36,62.42Z"/><path class="cls-6" d="M189.7,62l.1-1.06A1.79,1.79,0,0,0,188.08,59l.43,0a1.81,1.81,0,0,1,1.72,1.86l-.1,1.06a1.8,1.8,0,0,1-2,1.49l-.42,0A1.8,1.8,0,0,0,189.7,62Z"/><path class="cls-7" d="M186.14,58.85a1.72,1.72,0,0,1,1.64,1.78l-.12,1.2a1.71,1.71,0,0,1-2,1.42L173.32,62l0-.27h.05l3.17,0,.86-2.15s-1.11-1.34-1.19-1.38-2.46-.37-2.46-.37h-.05l0-.26Z"/><path class="cls-5" d="M174.34,59.91a2.55,2.55,0,0,0-.57-2l12.09,1.19a1.58,1.58,0,0,1,1.51,1.63l-.09.92a1.58,1.58,0,0,1-1.8,1.31l-12.09-1.19S174.18,61.53,174.34,59.91Z"/><path class="cls-11" d="M187.37,60.73l-.09.92a1.06,1.06,0,0,1-.09.35,3.45,3.45,0,0,0-2.47-2.27,95.13,95.13,0,0,0-10.95-1.82l12.09,1.19A1.58,1.58,0,0,1,187.37,60.73Z"/><path class="cls-4" d="M150.7,88.43l-.82,1.83a.3.3,0,0,0,.15.4l4.29,1.92a.34.34,0,0,0,.42-.5l-1.66-2.58A2.64,2.64,0,0,1,150.7,88.43Z"/><path class="cls-4" d="M145.26,88.43l-.82,1.83a.3.3,0,0,0,.15.4l4.28,1.92a.34.34,0,0,0,.43-.5l-1.66-2.58A2.64,2.64,0,0,1,145.26,88.43Z"/><path class="cls-17" d="M136,38l-.46,2.85-1-3.81s1.35-.65,1.41-.41A10.57,10.57,0,0,1,136,38Z"/><polygon class="cls-15" points="128.34 44.13 127.92 49.07 132.28 48.86 131.78 44.48 128.34 44.13"/><path class="cls-18" d="M132,46.56l-.24-2.08-3.44-.35-.14,1.71A3.44,3.44,0,0,0,132,46.56Z"/><path class="cls-18" d="M134.69,40.8a.89.89,0,1,0,1.57.76A1,1,0,0,0,136,40.2,1,1,0,0,0,134.69,40.8Z"/><path class="cls-15" d="M135.33,41.19c0-.14,0-.28.08-.42a4.45,4.45,0,0,0,.08-1.79,4.66,4.66,0,0,0-9.25.41,1,1,0,0,0-.9-.13,1.24,1.24,0,0,0-.55,1.66,1.26,1.26,0,0,0,1.5.91.94.94,0,0,0,.22-.12A4.37,4.37,0,0,0,130.59,46a4.2,4.2,0,0,0,2.91-1A6.11,6.11,0,0,0,135.33,41.19Z"/><path class="cls-18" d="M131.93,39.7c0,.27,0,.53,0,.78a1.68,1.68,0,0,0,.14.7.64.64,0,0,1,.18.4.51.51,0,0,1-.2.43.91.91,0,0,1-.8.16,1,1,0,0,0,.65-.3.34.34,0,0,0,.1-.27c0-.1,0-.12-.16-.28a1,1,0,0,1-.12-.43,1.41,1.41,0,0,1,0-.41A2.61,2.61,0,0,1,131.93,39.7Z"/><path class="cls-19" d="M130.38,40a.4.4,0,0,1-.48.44.41.41,0,0,1-.33-.35.41.41,0,0,1,.81-.09Z"/><path class="cls-19" d="M133.86,40.38a.41.41,0,0,1-.81.09.41.41,0,0,1,.81-.09Z"/><path class="cls-18" d="M129.7,42.81a2.7,2.7,0,0,0,.34.25l.36.21a2.49,2.49,0,0,0,.79.24,2.07,2.07,0,0,0,.82-.06,2.73,2.73,0,0,0,.76-.34,2.15,2.15,0,0,1-.74.42,2,2,0,0,1-.85.09,2.16,2.16,0,0,1-.82-.28A2.61,2.61,0,0,1,129.7,42.81Z"/><path class="cls-17" d="M130.9,39.14a3.76,3.76,0,0,0-.6-.15,2.11,2.11,0,0,0-.56,0,1.78,1.78,0,0,0-.55.14c-.13.05-.46.24-.55.28a1.31,1.31,0,0,1,.43-.5,1.37,1.37,0,0,1,1.3-.15A1.36,1.36,0,0,1,130.9,39.14Z"/><path class="cls-17" d="M132.69,39.34a1.25,1.25,0,0,1,.59-.28,1.39,1.39,0,0,1,.67,0,1.46,1.46,0,0,1,.57.36,1.42,1.42,0,0,1,.33.57c-.08-.05-.37-.31-.49-.37a1.73,1.73,0,0,0-.51-.25,2,2,0,0,0-.55-.1A3.16,3.16,0,0,0,132.69,39.34Z"/><path class="cls-23" d="M130.74,67.3s-.91,6.17,5,7.24a71.89,71.89,0,0,0,13.38.76l1,14.17,3.11.15s8-19.68-3.08-22.76l-10,0-4.11-.29a29.71,29.71,0,0,0-4.2-.83C131.91,66,130.84,67.4,130.74,67.3Z"/><path class="cls-24" d="M125.27,67.33s-.91,6.17,5,7.25a72.3,72.3,0,0,0,13.37.75l1,14.17,3.11.16s8-19.69-3.08-22.76l-10,0-4.1-.29a31.19,31.19,0,0,0-4.2-.83C126.44,66,125.36,67.43,125.27,67.33Z"/><path class="cls-7" d="M132.77,47.1s4.1.52,5.15,1.36S144,61.75,144,61.75l-4.16,4.88L131,66.7s-6.64,3.58-10.81.2-2-15.18.39-17.72,6.71-2.47,6.71-2.47S131.14,49.44,132.77,47.1Z"/><path class="cls-22" d="M124.83,53.28a20.44,20.44,0,0,1,.3,2.06c0,.35.05.69.07,1s0,.69,0,1A13.26,13.26,0,0,1,125,59.5a7.27,7.27,0,0,1-.6,2,10,10,0,0,0,.39-2,20.11,20.11,0,0,0,.11-2c0-.69,0-1.38,0-2.07Z"/><path class="cls-22" d="M137.1,52.83c.19,1,.39,2,.59,3s.42,2,.66,3,.51,2,.83,2.95a14.36,14.36,0,0,0,.55,1.42,5.44,5.44,0,0,0,.79,1.31,4.85,4.85,0,0,1-.9-1.25,11.11,11.11,0,0,1-.64-1.41c-.18-.48-.34-1-.49-1.47s-.27-1-.4-1.49-.23-1-.33-1.5-.19-1-.27-1.52C137.32,54.87,137.19,53.85,137.1,52.83Z"/><path class="cls-25" d="M146,55.08c-.76-1.18-7-3.18-7-3.18v2l6.32,2.21Z"/><polygon class="cls-22" points="145.54 55 138.33 51.67 138.33 52.96 145.36 55.5 145.54 55"/><polygon class="cls-25" points="145.14 55 137.53 52.12 137.53 54.34 145.06 55.5 145.14 55"/><path class="cls-22" d="M146,54.77a31.62,31.62,0,0,1,2.06-4.14,20.27,20.27,0,0,1-.91,5.09Z"/><polygon class="cls-25" points="146.63 54.92 148.41 50.43 148.41 52.57 147.18 55.5 146.63 54.92"/><polygon class="cls-22" points="147.18 55 149.12 50.63 149.12 52.19 147.18 55"/><polygon class="cls-26" points="147.18 68.47 149.63 64.25 149.63 50.79 147.18 55 147.18 68.47"/><polygon class="cls-4" points="135.92 66.43 144.58 68.47 144.58 55 135.92 52.96 135.92 66.43"/><path class="cls-27" d="M144.58,55a3.73,3.73,0,0,1,2.6,0C147.05,55.77,144.77,55.92,144.58,55Z"/><path class="cls-28" d="M144.58,68.46c0,.33,2.62.33,2.62,0V55a3.12,3.12,0,0,1-2.62,0Z"/><path class="cls-15" d="M139.16,63.82c0-.21-1.59-.44-2.16-.47l-4.31-.16.07.25v1.12l-.17.74c.87,0,3,.14,3.41.22a11.22,11.22,0,0,1,1.61.56s.42-.1-.12-.33a2.43,2.43,0,0,1-.86-.62c-.07-.08,0-.23.06-.21,1.46.38,1.61.45,1.61.45s1.72,0,0-.4a3.8,3.8,0,0,1-1.48-.48s0-.22.09-.22c.89-.06,2.49.26,2.05,0a11.33,11.33,0,0,0-1.91-.42s-.07-.17,0-.18C137.94,63.65,139.19,64,139.16,63.82Z"/><path class="cls-22" d="M123.82,61.32c.36.09.72.19,1.08.26s.73.15,1.09.23c.72.13,1.45.24,2.18.35s1.46.18,2.2.25,1.47.14,2.2.18h.1l0,.09a5.86,5.86,0,0,1,.13.73,6,6,0,0,1,0,.74,4.49,4.49,0,0,1-.06.73,4.27,4.27,0,0,1-.21.72v0h0l-.8.54-.81.53.76-.6.77-.59,0,0a3.22,3.22,0,0,0,.17-.68,5.74,5.74,0,0,0,0-.71c0-.24,0-.48-.07-.71a5.42,5.42,0,0,0-.14-.7l.12.09c-.38,0-.75,0-1.12-.06l-1.11-.09c-.74-.08-1.47-.17-2.2-.29s-1.46-.26-2.19-.43c-.36-.09-.72-.18-1.07-.29S124.17,61.44,123.82,61.32Z"/><path class="cls-17" d="M136.09,35.27s1.37,0-.07-1.11-5.29-2.51-7.76-1.21c0,0-.49-1.05-1.21-.8s.47,1,.47,1-.92,0-1.19.42.35.35.65.33c-.51.09-2.5,1.35-1.51,5.36a21.06,21.06,0,0,0,2.38-3s4.63,2.57,4.17.53c0,0,4.79,3,4.11.52C136.13,37.27,138,37.4,136.09,35.27Z"/><path class="cls-17" d="M125.47,39.25a.89.89,0,0,1,.8.2c.41.32.36,1.47.36,1.47s2,1.27,1.76-4.1c-.22-5.7-1.64.46-1.64.46Z"/><path class="cls-17" d="M104.12,146.28l.82,1.83a.3.3,0,0,1-.15.4l-4.28,1.92a.34.34,0,0,1-.43-.5l1.66-2.58A2.64,2.64,0,0,0,104.12,146.28Z"/><path class="cls-17" d="M109.68,146.07l.82,1.83a.3.3,0,0,1-.15.39l-4.29,1.92a.34.34,0,0,1-.42-.49l1.66-2.59A2.64,2.64,0,0,0,109.68,146.07Z"/><path class="cls-16" d="M114.69,86.8S110,86,108.45,91.23l1.93,2.9s4.06-1.56,4.07-1.71S114.69,86.8,114.69,86.8Z"/><path class="cls-16" d="M122.2,89.15s1.36,2,2.06,2.86c1.75,2,2,1.41,3.06,3.16a2.55,2.55,0,0,1-.69,3.64c-.67.54.45,2.56-.8,3.7-1.65,1.48-3.17.08-4.3.91s-1.38,2.07-4.06,1.84-2.66-9-2.66-9,2.2-4.65,2.29-4.68Z"/><path class="cls-16" d="M108.45,91.23a7.93,7.93,0,0,1-.69,2.54c-1.34,2.33-2.06,1.57-2.81,3.5a2.54,2.54,0,0,0,1.35,3.44c.77.41,0,2.61,1.48,3.49,1.89,1.15,3.13-.51,4.39.1s1.74,1.77,4.33,1,.94-9.34.94-9.34-3-4.16-3.11-4.19S108.45,91.23,108.45,91.23Z"/><path class="cls-15" d="M115.22,101.62a44.55,44.55,0,0,1,6.54-.76c2.06.07-1.25,5.43-1.25,5.43l-3.36.07s-2.06-2.3-1.93-2.57a9.64,9.64,0,0,0,0-2Z"/><path class="cls-15" d="M119.22,97.35l1.18,3.58s-1,2.13-4.18,1.21a3.31,3.31,0,0,0-.12-2.27C115.61,98.31,119.22,97.35,119.22,97.35Z"/><path class="cls-20" d="M119.22,97.35l.55,1.67c-.33,1.22-1.4,2.06-3.42,2.32a5,5,0,0,0-.25-1.47C115.61,98.31,119.22,97.35,119.22,97.35Z"/><path class="cls-18" d="M112,94.72a.94.94,0,1,1-1.68.74,1,1,0,0,1,.38-1.42A1.05,1.05,0,0,1,112,94.72Z"/><path class="cls-15" d="M111.88,97.37a9.34,9.34,0,0,1-.55-2.25c0-.15,0-.3-.08-.45a5,5,0,0,1,0-1.89,4.92,4.92,0,0,1,9.75.78,1,1,0,0,1,1-.1,1.48,1.48,0,0,1-1.11,2.67,1,1,0,0,1-.22-.13,4.62,4.62,0,0,1-4.47,4.35A4.55,4.55,0,0,1,111.88,97.37Z"/><path class="cls-18" d="M115,93.67a3.39,3.39,0,0,1,.16.83,2.07,2.07,0,0,1,0,.43,1,1,0,0,1-.15.45c-.1.13-.16.18-.18.29a.38.38,0,0,0,.1.29,1.11,1.11,0,0,0,.68.34.92.92,0,0,1-.83-.2.56.56,0,0,1-.2-.45.68.68,0,0,1,.21-.42.86.86,0,0,0,.12-.34c0-.12,0-.26.06-.39S115,94,115,93.67Z"/><path class="cls-19" d="M116.59,94a.43.43,0,0,0,.5.48.44.44,0,0,0,.35-.36.43.43,0,0,0-.5-.48A.44.44,0,0,0,116.59,94Z"/><path class="cls-19" d="M112.91,94.32a.42.42,0,0,0,.49.48.45.45,0,0,0,.36-.36.43.43,0,0,0-.85-.12Z"/><path class="cls-29" d="M116.66,97.37a1.44,1.44,0,0,0-1.19.16,1.07,1.07,0,0,0-1.12,0,1.19,1.19,0,0,0,1.26.87A1.07,1.07,0,0,0,116.66,97.37Z"/><path class="cls-18" d="M117.2,97a3,3,0,0,1-.37.25,2.77,2.77,0,0,1-1.23.43,2.28,2.28,0,0,1-.86-.09,3.09,3.09,0,0,1-.79-.4,2.29,2.29,0,0,0,.76.48,2.34,2.34,0,0,0,.9.13,2.37,2.37,0,0,0,.87-.26A2.57,2.57,0,0,0,117.2,97Z"/><path class="cls-16" d="M116.08,93.12a3.83,3.83,0,0,1,.64-.13,2.32,2.32,0,0,1,.59,0,2,2,0,0,1,.57.17c.14,0,.48.27.57.31a1.52,1.52,0,0,0-.43-.54,1.44,1.44,0,0,0-.66-.28,1.56,1.56,0,0,0-.71.07A1.33,1.33,0,0,0,116.08,93.12Z"/><path class="cls-16" d="M114.19,93.26a1.3,1.3,0,0,0-.62-.31,1.42,1.42,0,0,0-.71,0,1.29,1.29,0,0,0-.61.35,1.52,1.52,0,0,0-.37.59c.09,0,.4-.31.53-.38a2.1,2.1,0,0,1,1.13-.32A5,5,0,0,1,114.19,93.26Z"/><path class="cls-15" d="M123,123.51s1.32,6.22-4.67,7.69a73.19,73.19,0,0,1-13.55,1.63l-.14,14.47-3.15.36s-9.41-19.5,1.67-23.34l10.13-.59,4.15-.56a32,32,0,0,1,4.22-1.12C121.73,122.25,122.92,123.62,123,123.51Z"/><path class="cls-15" d="M128.58,123.2s1.32,6.21-4.67,7.68a73.19,73.19,0,0,1-13.55,1.63L110.22,147l-3.15.36s-9.41-19.5,1.67-23.34l10.13-.59,4.15-.56a32,32,0,0,1,4.22-1.12C127.3,121.93,128.49,123.3,128.58,123.2Z"/><path class="cls-6" d="M107,122.46a11.57,11.57,0,0,0-11.29,8.61c-1.64,5.63-5.38,11.44-5,11.39,7.92,4.43,10.41,0,15.88,1.29s7.42.73,7.42.73c-1.58-7.95-3.67-12-3.67-12,.46.08,13.9.28,17.22-3.4.93-1,1.64-2.33,1.5-5.5C128.81,117.71,108.51,122.44,107,122.46Z"/><path class="cls-5" d="M108.55,132.92l.52-.1.5-.13.25-.09-.25-.07a2.08,2.08,0,0,1-.47-.24,2.65,2.65,0,0,1-.69-.75l.18.19c.06.05.11.12.18.17a2.27,2.27,0,0,0,.4.29,2.06,2.06,0,0,0,.91.31h.28l-.25.11a3,3,0,0,1-.5.18,5,5,0,0,1-.53.11,4.63,4.63,0,0,1-.52.07l-.53,0Z"/><path class="cls-15" d="M110.14,110.34s-.41,10.15-1.55,11.74l6.28-1.43v-11Z"/><path class="cls-6" d="M112.67,111.72a21.41,21.41,0,0,1,1.17,3.92,16,16,0,0,1-.73,7.66c-1,2.69,6.6,1.67,6.78,1.67,8,.19,7.92-.13,7.92-.13l1.28-1c-.18-3.29-.63-6.13-.56-9.06l.07-3-.36-3-11.33-.89Z"/><path class="cls-25" d="M108.8,114c.69-1.07,6.35-2.9,6.35-2.9v1.82l-5.76,2Z"/><path class="cls-25" d="M108.8,114c.69-1.07,6.35-2.9,6.35-2.9v1.82l-5.76,2Z"/><polygon class="cls-22" points="109.2 113.91 115.78 110.88 115.78 112.05 109.37 114.37 109.2 113.91"/><polygon class="cls-25" points="109.57 113.91 116.51 111.28 116.51 113.31 109.64 114.37 109.57 113.91"/><path class="cls-22" d="M108.8,113.7a29,29,0,0,0-1.89-3.78,18.5,18.5,0,0,0,.83,4.65Z"/><polygon class="cls-25" points="108.21 113.84 106.59 109.74 106.59 111.69 107.7 114.37 108.21 113.84"/><polygon class="cls-22" points="107.7 113.91 105.94 109.92 105.94 111.34 107.7 113.91"/><polygon class="cls-30" points="107.7 126.19 106.08 122.46 106.08 110.17 107.7 113.91 107.7 126.19"/><polygon class="cls-7" points="117.98 124.34 110.08 126.19 110.08 113.91 117.98 112.05 117.98 124.34"/><path class="cls-27" d="M110.08,113.91a3.47,3.47,0,0,0-2.38,0C107.82,114.61,109.91,114.75,110.08,113.91Z"/><path class="cls-31" d="M110.08,126.2c0,.3-2.39.3-2.39,0V113.91a2.81,2.81,0,0,0,2.39,0Z"/><path class="cls-15" d="M131,109.11l-5.37,2.49s-.42,6.88-.68,7.18c-.47.55-5.23,2.13-7.75,2.59a2.23,2.23,0,0,1-1.2-.09l-3.8-1.35c-.54-.19-2.08-.55-2.18-.37s1.19.3,2,.68c.11.05,0,.19,0,.18a10.69,10.69,0,0,0-1.94-.31c-.48,0,1.12.32,1.92.7.06,0,.06.21,0,.24a3.87,3.87,0,0,1-1.56-.1c-1.73-.27-.14.37-.14.37s.17,0,1.67.18c0,0,.07.17,0,.22a2.43,2.43,0,0,1-1,.26c-.58,0-.22.26-.22.26a10.81,10.81,0,0,1,1.69.08c.44.08,2.43.78,3.25,1.05l.11-.13c1.14.26,11.64,1,12.91-2.08A36.9,36.9,0,0,0,131,109.11Z"/><path class="cls-6" d="M115.22,101.62s3,3.55,6.54-.76a11.29,11.29,0,0,1,6.63,1.69c2.81,2,4.49,6.48,4.49,6.48s-4,2.69-7.29,2.69L118,109l-5.29,2.73a13.29,13.29,0,0,1-4.53-1.22S108.5,103.37,115.22,101.62Z"/><path class="cls-17" d="M124.66,107.68c.14.44.25.88.37,1.33.22.87.42,1.7.57,2.59a4.1,4.1,0,0,0,.86-.06,17.42,17.42,0,0,0,3.74-1.21c2-.89,1.7-.81,2.68-1.3a24.41,24.41,0,0,1-2.6,1.48,14.2,14.2,0,0,1-3.78,1.29,3.69,3.69,0,0,1-1.12,0c-.1-.65-.22-1.32-.53-2.79l-.29-1.35-.3-1.34C124.4,106.8,124.53,107.24,124.66,107.68Z"/><path class="cls-17" d="M112.57,108.5a7.59,7.59,0,0,0-.13,1.63,10.43,10.43,0,0,0,.43,1.75l-.13.05a12.29,12.29,0,0,1-.51-1.78,5.62,5.62,0,0,1,.08-1.69,7.93,7.93,0,0,1,.46-1.63,9,9,0,0,1,.73-1.5c-.2.52-.38,1-.54,1.57A12.86,12.86,0,0,0,112.57,108.5Z"/><path class="cls-16" d="M121,93.56s-5.23-1.26-7.73-4.81c0,0,0-3.23,4.76-2.5S123.77,91.5,121,93.56Z"/><path class="cls-32" d="M223.26,22.11c45.72-3.62,92.65,17.8,119.88,54.7,5.23,7.11,9.89,15,10.85,23.81a25.8,25.8,0,0,1-3.21,15.66c-3.65,6.18-13.16,4-13.64-3.18A15.29,15.29,0,0,1,342,100.67c6.84-5.9,17.35-5.48,25.6-1.81s15,10,22.11,15.52c25.41,19.55,68.88,24.91,100.82,22.12"/><path class="cls-33" d="M597.72,131.28c0,4.75-22.94,13.7-36.32,13.7C536.89,145,509,136,509,131.28s19.87-8.6,44.38-8.6S597.72,126.53,597.72,131.28Z"/><path class="cls-34" d="M595.08,87.25l-30.83,16.31L510.68,87.25s.36,40.47,1.19,41.78S560.8,145.58,564,145s29-16.42,30.24-17.61S595.08,87.25,595.08,87.25Z"/><path class="cls-34" d="M595.08,87.25s-41.9-15.8-44.16-15.64-39.64,14.57-40.24,15.64l53.57,16.31Z"/><path class="cls-35" d="M595.08,87.25s-41.9-15.8-44.16-15.64-39.64,14.57-40.24,15.64l53.57,16.31Z"/><path class="cls-36" d="M550.92,71.61s12.5-16.14,14.88-16.86,46.81,9.76,47.86,11.07-18.58,21.43-18.58,21.43S570.8,79.07,550.92,71.61Z"/><path class="cls-36" d="M550.92,71.61s-10.54-12-20.6-15.79c-1-.35-39.87,15.15-39.75,15.79s17.26,11.47,20.11,15.64C510.68,87.25,547,73.35,550.92,71.61Z"/><path class="cls-37" d="M588.41,76.25c-2.87.42-10.72.9-13.41.34-1.87-.39-7.44-3-10.79-4.41.54-2,2.92-3.79,2.27-4.39-.89-.82-5-5.27-6.84-5.43-.26,0-.65-.09-1.11-.18-3.81,4.52-7.61,9.43-7.61,9.43,14,5.24,30.11,10.84,38.47,13.7-.36-3.68-.63-6.31-.63-6.31C588.71,78.13,589.81,76.05,588.41,76.25Z"/><path class="cls-38" d="M548.34,60.63s7.57,2.21,9.44,2.37,5.94,4.61,6.83,5.43-3.85,3.76-1.89,6.66,6.26.33,6.32,1.2.35,6.19.7,7.45-4.32,9.47-5.13,11.29a20.73,20.73,0,0,1-8.94-3.59s-13,7.34-13.87,7.7-4.45-5.8-7.07-11.14-5.1-10.4-4.59-11,15-7.07,15-7.07S545.27,63.21,548.34,60.63Z"/><path class="cls-39" d="M568.89,86.51a6.78,6.78,0,0,0,.85-2.77,8.29,8.29,0,0,1-.19-1.1l-.89-1a61.52,61.52,0,0,1-4.85-5.47l-.15-.21a3,3,0,0,1-.94-.91,2.73,2.73,0,0,1-.46-1.17,33.25,33.25,0,0,1-2.66-5.7,19.14,19.14,0,0,1-1.29-5.09,1.94,1.94,0,0,0-.53-.13,19.48,19.48,0,0,1-2.23-.43C557.24,71.64,561.73,80.68,568.89,86.51Z"/><path class="cls-39" d="M562.32,88.76a36.18,36.18,0,0,0,3.91,3.1c.44-.86.93-1.79,1.39-2.71-.79-.65-1.57-1.29-2.34-1.94a40.15,40.15,0,0,1-8.4-10.57,37.12,37.12,0,0,1-3.76-8.71,31.85,31.85,0,0,1-1-6.25L549.78,61a15.69,15.69,0,0,0-.63,4.86,23.18,23.18,0,0,0,2.2,8.27A44.24,44.24,0,0,0,562.32,88.76Z"/><path class="cls-39" d="M550.6,93a68.74,68.74,0,0,1-7.46-11.83c-1.42-2.78-2.77-5.62-4-8.52-1.5.69-3.09,1.42-4.5,2.09.94,2.3,2,4.57,3.06,6.81a102.45,102.45,0,0,0,8.94,15l4.68-2.61C551.1,93.57,550.84,93.26,550.6,93Z"/><path class="cls-39" d="M545.16,69.2c0,.45,0,.72,0,.72L542.76,71a74.34,74.34,0,0,0,4.51,10.77,64.07,64.07,0,0,0,6.78,10.61l1.62-.92a17.93,17.93,0,0,0,3.25,1.9,63.63,63.63,0,0,1-8.18-11.58A54.33,54.33,0,0,1,545.16,69.2Z"/><path class="cls-39" d="M556.15,65.13c-3.69,1.49-7.45,2.86-11,4.61-.11.05,0,.23.09.18,3.58-1.75,7.34-3.12,11-4.61.12,0,0-.23-.09-.18Z"/><path class="cls-39" d="M566.87,84.89c-1.88,1-3.77,2.06-5.61,3.17-.94.56-1.87,1.14-2.78,1.75a23.15,23.15,0,0,1-2.8,1.55.1.1,0,0,0,.09.18,24.08,24.08,0,0,0,2.64-1.44c.91-.6,1.83-1.19,2.77-1.76,1.89-1.15,3.84-2.19,5.78-3.27.11-.06,0-.24-.09-.18Z"/><path class="cls-40" d="M534.73,88c2.62,5.34,6.17,11.49,7.07,11.14s13.87-7.7,13.87-7.7A20.73,20.73,0,0,0,564.61,95c.81-1.82,5.48-10,5.13-11.29s-.63-6.59-.7-7.45-4.37,1.69-6.32-1.2a3.09,3.09,0,0,1,.13-3.46,19.44,19.44,0,0,0-3.38-1.34c-1.32.46-1,1.63-1.33,2.42l-2.43,4.73c-1.48-1.87-2.81-3.39-3.4-3.5-1.46-.27-7-2.64-7.92-3s-.45,5.28-4.37,5.82c-2,.28-3.15-1.24-4-2.72A57.49,57.49,0,0,0,530.14,77C529.63,77.6,532.11,82.65,534.73,88Z"/><path class="cls-41" d="M586.54,76.89c1.4-.2.3,1.87.36,2.74,0,0,2,20.46,2.72,27.19,0,0,.66,2.6,0,3s-21.18.08-21.56-.25.22-3.48.22-3.48l.31-7.66-2.52,7.24s-.6,3.16-1.07,3.32-19.67-7-20.15-7.65,1.08-2.82,1.08-2.82c3.11-6,12.48-24.31,12.48-24.31.37-.78,0-2,1.33-2.42.47-.16,10.73,4.86,13.41,5.42S583.67,77.31,586.54,76.89Z"/><path class="cls-42" d="M569.84,92.73a4.21,4.21,0,0,0,3.36-3.29c.37-1.36.67-2.73,1-4.09s.86-2.69,1.22-4h0a26.85,26.85,0,0,0,3.35.39,28.25,28.25,0,0,0,3.05-.09,14.94,14.94,0,0,0,5.54,7.13c.15.1.33-.1.18-.2a14.71,14.71,0,0,1-5.43-7l.48,0a36.82,36.82,0,0,0,3.79-.36c.18,0,.15-.29,0-.26a39.61,39.61,0,0,1-4.38.44.17.17,0,0,0-.14,0c-.78,0-1.56.06-2.33.07a23.24,23.24,0,0,1-4-.38,10.78,10.78,0,0,1-3.06-.59h0a15,15,0,0,1,.88-2.65c.07-.15-.18-.27-.25-.11a22.49,22.49,0,0,0-1.25,4.17c-.55,2.24-1,4.49-1.5,6.75s-.86,4.26-1.28,6.4c-.2,1-.36,2.12-.63,3.16,0,.16.24.21.28,0,.25-1,.41-2,.61-3.06Zm2.23-10.45c.12-.51.24-1,.37-1.56a9.32,9.32,0,0,0,2.52.5l.22,0c-.62,2.33-1.36,4.61-1.94,7a8,8,0,0,1-1.11,3,3.83,3.83,0,0,1-2.23,1.29c.23-1.16.46-2.32.7-3.49C571.06,86.72,571.54,84.49,572.07,82.28Z"/><path class="cls-42" d="M554.58,81.91c3.91.39,7-2,9.21-4.7.39.18.78.37,1.18.53,2.29,1,4.72,1.53,7,2.47.17.07.29-.16.12-.23-2.29-.94-4.71-1.54-7-2.47A73.19,73.19,0,0,1,558.47,74a.13.13,0,1,0-.12.23c1.75.92,3.41,2,5.18,2.83-2.13,2.57-5.12,5-8.9,4.58C554.45,81.64,554.4,81.9,554.58,81.91Z"/><path class="cls-42" d="M566,105.14c-6.74-1.92-13.87-3.12-19.77-7-.15-.1-.33.09-.18.19,5.94,3.91,13.11,5.13,19.9,7.06C566.11,105.44,566.16,105.19,566,105.14Z"/><path class="cls-42" d="M589.11,106.15c-1.65.23-3.38.18-5.05.25s-3.65.16-5.49.22c-3.36.12-6.78.36-10.08-.55-.17,0-.22.2,0,.25a30.93,30.93,0,0,0,9.69.58l5.41-.22c1.85-.08,3.77,0,5.6-.27C589.31,106.38,589.29,106.12,589.11,106.15Z"/><path class="cls-42" d="M575.62,79.67a1.05,1.05,0,1,1-.86-1.08A1,1,0,0,1,575.62,79.67Z"/><path class="cls-40" d="M563.09,87.65c-1.06-1.27-4.56-6.33-6.93-9.06-3,5.8-8.11,15.8-10.25,20,0,0-1.56,2.18-1.08,2.82.25.34,5.63,2.47,10.77,4.39-.26-5-.61-10.81-.61-10.81A23.57,23.57,0,0,0,563.09,87.65Z"/><path class="cls-40" d="M565,109c.47-.16,1.07-3.32,1.07-3.32l2.23-6.43a125.39,125.39,0,0,0-11.51,6.93A84.87,84.87,0,0,0,565,109Z"/><path class="cls-40" d="M587.89,89.59c-6.47,3.13-13,6.15-19.35,9.54l-.28,7s-.6,3.16-.22,3.48,20.87.68,21.56.25,0-3,0-3C589.25,103.24,588.51,95.79,587.89,89.59Z"/><path class="cls-22" d="M518.44,85.69s6-6.58,7.09-8.4,7.65-3.74,8.92-4.24,1.91,5.78,5.83,5.24,3.45-6.19,4.36-5.83,6.46,2.73,7.92,3,7.46,9.1,8.92,10.82a23.66,23.66,0,0,1-8.1,7.3s1,16.82.91,17.91-8.1,1.64-14.83,1.64-13.11,0-13.47-.82.27-18.73.27-18.73S519.53,90.09,518.44,85.69Z"/><path class="cls-43" d="M526.89,80c-.32,4.49-.81,9-.81,13.49a.12.12,0,0,0,.23,0c0-4.5.48-9,.81-13.49,0-.15-.22-.15-.23,0Z"/><path class="cls-43" d="M552.3,79c.12,2.42.21,4.85.42,7.27.11,1.23.24,2.46.4,3.69a27.35,27.35,0,0,1,.18,3.62.12.12,0,0,0,.23,0,27.55,27.55,0,0,0-.16-3.4c-.15-1.23-.29-2.46-.4-3.7-.23-2.49-.32-5-.44-7.48,0-.15-.24-.15-.23,0Z"/><path class="cls-43" d="M543.42,86c.05,1.22,0,2.47.09,3.68,0,.41.12.81.19,1.21,0,.14,0,.45.13.56.37.38.75.74,1.14,1.1s.66.59,1,.86c.16.12.49.45.7.45s.51-.31.67-.43c.32-.25.63-.52.93-.79s.83-.78,1.23-1.19c.09-.09.09-.33.11-.45.08-.39.15-.79.2-1.19.16-1.25.05-2.54.11-3.81a.12.12,0,0,0-.23,0c-.05,1.14,0,2.29-.07,3.42a12.46,12.46,0,0,1-.31,1.91c0-.07-.15.15-.21.2l-.7.68a9.9,9.9,0,0,1-1.71,1.39c-.23.14-1.47-1.13-1.66-1.3-.35-.33-.7-.66-1-1,.06.07,0,0,0-.09s0-.24-.07-.37c-.08-.42-.15-.85-.2-1.28-.13-1.17,0-2.37-.07-3.55,0-.14-.24-.14-.23,0Z"/><path class="cls-43" d="M539.83,80.85c2.85.05,5.17-2.32,6-4.89a12.67,12.67,0,0,0,.5-2.79l-1.72-.71c-.91-.36-.45,5.28-4.36,5.83s-4.55-5.73-5.83-5.24c-.24.1-.68.25-1.24.43C534.38,76.56,536,80.81,539.83,80.85Z"/><path class="cls-43" d="M529.28,86.25a1.33,1.33,0,1,0,1.33,1.33A1.33,1.33,0,0,0,529.28,86.25Z"/><path class="cls-43" d="M532.77,94.91a1.33,1.33,0,1,0,1.33,1.33A1.34,1.34,0,0,0,532.77,94.91Z"/><path class="cls-43" d="M527.93,101.94a1.34,1.34,0,0,0-1.33-1.33,1.32,1.32,0,0,0-.56.13c0,.78,0,1.58-.06,2.38a1.26,1.26,0,0,0,.62.15A1.33,1.33,0,0,0,527.93,101.94Z"/><path class="cls-43" d="M535.81,104.94a1.33,1.33,0,1,0,1.33,1.33A1.33,1.33,0,0,0,535.81,104.94Z"/><path class="cls-43" d="M527.52,111.06a1.34,1.34,0,0,0-1.33,1.33s0,.08,0,.11a7.93,7.93,0,0,0,2.54.44,1.38,1.38,0,0,0,.11-.55A1.33,1.33,0,0,0,527.52,111.06Z"/><path class="cls-43" d="M542.9,98.57a1.33,1.33,0,1,0,1.33,1.33A1.34,1.34,0,0,0,542.9,98.57Z"/><path class="cls-43" d="M547.07,106a1.33,1.33,0,1,0,1.34,1.33A1.34,1.34,0,0,0,547.07,106Z"/><path class="cls-43" d="M553.87,111.45a1.14,1.14,0,0,0,.07.41c.21-.11.34-.23.35-.36s0-.49,0-1A1.29,1.29,0,0,0,553.87,111.45Z"/><path class="cls-43" d="M540.9,112.39a1.34,1.34,0,0,0-1.19.75l2.37,0A1.35,1.35,0,0,0,540.9,112.39Z"/><path class="cls-43" d="M553.82,101.26a1.33,1.33,0,1,0-.91,2.3,1.32,1.32,0,0,0,1-.46C553.89,102.48,553.85,101.87,553.82,101.26Z"/><path class="cls-43" d="M523.53,80.86a1.33,1.33,0,1,0,1.33,1.33A1.33,1.33,0,0,0,523.53,80.86Z"/><path class="cls-43" d="M532.46,78.67A1.33,1.33,0,1,0,531.13,80,1.33,1.33,0,0,0,532.46,78.67Z"/><path class="cls-43" d="M540,83.94a1.33,1.33,0,1,0-1.33-1.33A1.33,1.33,0,0,0,540,83.94Z"/><path class="cls-43" d="M551.78,75.32v-.06c-.62-.2-1.44-.5-2.31-.84a1.36,1.36,0,0,0-.35.9,1.33,1.33,0,1,0,2.66,0Z"/><path class="cls-43" d="M538.46,89.62A1.33,1.33,0,1,0,539.79,91,1.32,1.32,0,0,0,538.46,89.62Z"/><path class="cls-43" d="M549.12,82.19a1.33,1.33,0,1,0,1.33,1.33A1.33,1.33,0,0,0,549.12,82.19Z"/><path class="cls-43" d="M553.41,92.56a1.33,1.33,0,1,0-1.33,1.33A1.33,1.33,0,0,0,553.41,92.56Z"/><path class="cls-43" d="M558.84,82.78a1.33,1.33,0,1,0,1.56,2.12Z"/><path class="cls-44" d="M533.05,86.18a19.27,19.27,0,0,1-3.47.22,7.09,7.09,0,0,1-2.84-1.14A10.69,10.69,0,0,0,520,84c-.91,1-1.56,1.73-1.56,1.73,1.09,4.4,7.82,7.9,7.82,7.9s-.63,17.91-.27,18.73,6.73.82,13.47.82,14.74-.55,14.83-1.64c.07-.81-.47-10.31-.75-15.14-1.53-.83-3-1.68-4.53-2.59C544.11,90.79,539.15,85.9,533.05,86.18Z"/><path class="cls-34" d="M564.25,103.56c-.84.06-17.38-5.11-31.8-9.68l-21.77-6.63s.36,40.47,1.19,41.78S560.8,145.58,564,145s29-16.42,30.24-17.61c.86-.87.91-21.62.87-32.93Z"/><path class="cls-45" d="M564.25,103.56,564,145c3.22-.59,29-16.42,30.24-17.61s.83-40.12.83-40.12Z"/><path class="cls-35" d="M595.08,87.25l-30.83,16.31L510.68,87.25s.12,13.43.38,25.07c10.44,4.71,38.81,17.28,41.85,16.12,3.72-1.43,11.34-18.81,11.34-18.81s15.24,15.71,17,15.83c1.17.08,8.59-2.67,13.6-4.59C595.29,109.5,595.08,87.25,595.08,87.25Z"/><path class="cls-34" d="M564.25,103.56s15.83,20.35,17.14,20.47,20-9.34,32.26-24c.6-.72-18.57-12.74-18.57-12.74S573.06,97.25,564.25,103.56Z"/><path class="cls-34" d="M510.68,87.25s-18.33,13.93-18,14.52,56.42,22.74,58.21,22.26,13.33-20.47,13.33-20.47S527,89.63,510.68,87.25Z"/><path class="cls-45" d="M542.26,95.86c-2.69-.89-5.48-1.79-8.28-2.66a56.33,56.33,0,0,0-5.32,7.31,95.29,95.29,0,0,0-6.82,13l8.38,3.23c2.26-4.53,4.39-9.13,6.52-13.69A25.84,25.84,0,0,1,542.26,95.86Z"/><path class="cls-46" d="M527.64,116.86c.22-.77,1.47-.58,1.25.2a22.51,22.51,0,0,1-2.42,6.48c-.45.68-1.42-.13-1-.81A20.29,20.29,0,0,0,527.64,116.86Z"/><path class="cls-46" d="M525.43,116.85c.28-.76,1.43-.23,1.15.53a15.4,15.4,0,0,1-2.52,5.08c-.54.61-1.51-.19-1-.81A14.42,14.42,0,0,0,525.43,116.85Z"/><path class="cls-46" d="M522.55,116.39a.63.63,0,0,1,1.25.2,10.68,10.68,0,0,1-2.31,5.28c-.55.61-1.53-.19-1-.8A9.38,9.38,0,0,0,522.55,116.39Z"/><path class="cls-46" d="M521.14,115.47c-.49,1.72-1.42,3.29-1.76,5a.63.63,0,0,1-1.25-.2c.34-1.78,1.27-3.33,1.77-5C520.11,114.49,521.37,114.68,521.14,115.47Z"/><path class="cls-46" d="M518.76,115.69a47.67,47.67,0,0,0-2,4.49c-.26.77-1.41.24-1.15-.53a48.85,48.85,0,0,1,2-4.49A.63.63,0,0,1,518.76,115.69Z"/><path class="cls-46" d="M516.61,114.05a32.45,32.45,0,0,0-1.92,5.11c-.15.8-1.4.6-1.24-.2a33.59,33.59,0,0,1,2-5.44C515.75,112.76,516.9,113.29,516.61,114.05Z"/><path class="cls-46" d="M514,114.3a10.7,10.7,0,0,0-2,4.18.63.63,0,0,1-1.25-.2,12.18,12.18,0,0,1,2.24-4.79C513.48,112.81,514.45,113.62,514,114.3Z"/><path class="cls-46" d="M511.48,113.31a21.21,21.21,0,0,0-2,4.58c-.22.77-1.47.58-1.25-.2a22.42,22.42,0,0,1,2.1-4.91C510.73,112.07,511.88,112.59,511.48,113.31Z"/><path class="cls-46" d="M509.59,111.71a14.62,14.62,0,0,0-2.08,4.48.63.63,0,0,1-1.25-.2,15.48,15.48,0,0,1,2.18-4.81C508.85,110.49,510,111,509.59,111.71Z"/><path class="cls-46" d="M506.54,110.7c.42-.68,1.57-.16,1.15.53a12.72,12.72,0,0,0-1.9,4.43.63.63,0,0,1-1.25-.2A13.79,13.79,0,0,1,506.54,110.7Z"/><path class="cls-47" d="M542.75,96s-3.33-5.49-7-6.25-8.71-.38-9.47-1.53-6.88-5.54-11.09-1.81-10.43,24.16-9.5,25.34,6.13,4.17,11.62,5.32,12.5,4.68,13,.63,8.54-22.38,8.54-22.38S541.66,95.86,542.75,96Z"/><path class="cls-48" d="M520.09,94c-2.48-.66-1.43-2.9-1.21-4.76a6.18,6.18,0,0,0-1.26-4.14c3.82-1,8,2.15,8.66,3.1.41.63,2.13.8,4.19,1a15.38,15.38,0,0,0-3,1.82C525.5,92.5,522.83,94.65,520.09,94Z"/><path class="cls-48" d="M531.07,106a55,55,0,0,1,3-10.19c.82-1.93,2.2-4,4.59-3.39a7,7,0,0,1,2.21,1.11A22.8,22.8,0,0,1,542.75,96c-1.09-.16-3.91-.68-3.91-.68s-8.06,18.33-8.54,22.38a2,2,0,0,1-2,1.86c.19-1.27.36-2.56.59-3.81C529.5,112.51,530.38,109.21,531.07,106Z"/><path class="cls-49" d="M552.14,51.92C540.85,44.51,528.73,31.48,536.85,25s15.29,5.24,15.29,5.24,7.17-11.76,15.28-5.24S563.42,44.51,552.14,51.92Z"/><path class="cls-50" d="M567.42,25c-8.11-6.52-15.28,5.24-15.28,5.24V51.92C563.42,44.51,575.54,31.48,567.42,25Z"/><path class="cls-32" d="M983.93,111.73C950.7,119.92,913.55,109.83,889,86c-4.72-4.6-9.1-9.87-10.87-16.21a19.26,19.26,0,0,1,.47-11.92,5.47,5.47,0,0,1,10.42.68,11.38,11.38,0,0,1-2,9.74c-4.32,5.17-12.11,6.14-18.63,4.43s-12.22-5.56-18.16-8.75C829.15,52.6,791.5,43.5,761.5,61.5c-78.38,47-100.1,34-112,33"/><path class="cls-51" d="M1064.4,93.31a17.08,17.08,0,0,0-7.24-12.24c-4-2.77-12.3-4.51-18.42-.89-1.68-6.91-8.7-11.6-13.5-12.56A17,17,0,0,0,1011.42,71c-7.27,5.81-8.45,16.86-5.28,25.61,3,8.25,9,15,15.1,21.33a3.66,3.66,0,0,0,2.7,1.14c8.8-.11,17.82-.46,25.81-4.09C1058.23,111.13,1065.32,102.58,1064.4,93.31Z"/><path class="cls-51" d="M1024.44,118.08l-2.71-1.14-4.8,4.09c.69,4.48,7.11,3.5,7.11,3.5Z"/><path class="cls-52" d="M1036.18,80.57a5.32,5.32,0,0,1,4.41,1.12"/></g></g></svg>