<svg width="160" height="160" viewBox="0 0 160 160" fill="none" xmlns="http://www.w3.org/2000/svg">
<path d="M40.0001 146.667C36.3334 146.667 33.1934 145.36 30.5801 142.747C27.9668 140.133 26.6623 136.996 26.6668 133.333V66.6666C26.6668 63 27.9734 59.86 30.5868 57.2466C33.2001 54.6333 36.3379 53.3289 40.0001 53.3333H46.6668V40C46.6668 30.7777 49.9179 22.9155 56.4201 16.4133C62.9223 9.91107 70.7823 6.66219 80.0001 6.66663C89.2223 6.66663 97.0845 9.91774 103.587 16.42C110.089 22.9222 113.338 30.7822 113.333 40V53.3333H120C123.667 53.3333 126.807 54.64 129.42 57.2533C132.033 59.8666 133.338 63.0044 133.333 66.6666V133.333C133.333 137 132.027 140.14 129.413 142.753C126.8 145.367 123.662 146.671 120 146.667H40.0001ZM40.0001 133.333H120V66.6666H40.0001V133.333ZM80.0001 113.333C83.6668 113.333 86.8068 112.027 89.4201 109.413C92.0334 106.8 93.3379 103.662 93.3334 100C93.3334 96.3333 92.0268 93.1933 89.4134 90.58C86.8001 87.9666 83.6623 86.6622 80.0001 86.6666C76.3334 86.6666 73.1934 87.9733 70.5801 90.5866C67.9668 93.2 66.6623 96.3377 66.6668 100C66.6668 103.667 67.9734 106.807 70.5868 109.42C73.2001 112.033 76.3379 113.338 80.0001 113.333ZM60.0001 53.3333H100V40C100 34.4444 98.0557 29.7222 94.1668 25.8333C90.2779 21.9444 85.5557 20 80.0001 20C74.4445 20 69.7223 21.9444 65.8334 25.8333C61.9445 29.7222 60.0001 34.4444 60.0001 40V53.3333Z" fill="black"/>
</svg>
